<?xml version="1.0" encoding="UTF-8" standalone="no"?>
<!DOCTYPE svg PUBLIC "-//W3C//DTD SVG 1.0//EN"
 "http://www.w3.org/TR/2001/REC-SVG-20010904/DTD/svg10.dtd" [
 <!ATTLIST svg xmlns:xlink CDATA #FIXED "http://www.w3.org/1999/xlink">
]>
<!-- Generated by Graphviz version 2.20.2 (Wed Sep 16 11:12:11 UTC 2009)
     For user: (ivo) Ivo Wetzel,,, -->
<!-- Title: dependencies Pages: 1 -->
<svg width="1752pt" height="2680pt"
 viewBox="0.00 0.00 1752.00 2680.00" xmlns="http://www.w3.org/2000/svg" xmlns:xlink="http://www.w3.org/1999/xlink">
<g id="graph0" class="graph" transform="scale(1 1) rotate(0) translate(4 2676)">
<title>dependencies</title>
<polygon style="fill:white;stroke:white;" points="-4,4 -4,-2676 1748,-2676 1748,4 -4,4"/>
<!-- gui -->
<g id="node1" class="node"><title>gui</title>
<ellipse style="fill:#cbff00;stroke:#cbff00;stroke-width:2;" cx="453" cy="-1736" rx="98.0403" ry="98.0403"/>
<text text-anchor="middle" x="453" y="-1725.9" style="font-family:Times New Roman;font-size:34.00;fill:#000000;">gui[10](1)</text>
</g>
<!-- atarashii -->
<g id="node2" class="node"><title>atarashii</title>
<ellipse style="fill:#ff0000;stroke:#ff0000;stroke-width:2;" cx="1205" cy="-1474" rx="127.787" ry="127.787"/>
<text text-anchor="middle" x="1205" y="-1464.2" style="font-family:Times New Roman;font-size:32.00;fill:#000000;">atarashii[9](1)</text>
</g>
<!-- gui&#45;&gt;atarashii -->
<g id="edge12" class="edge"><title>gui&#45;&gt;atarashii</title>
<path style="fill:none;stroke:#cbff00;" d="M546,-1704C679,-1658 923,-1573 1074,-1519"/>
<polygon style="fill:#cbff00;stroke:#cbff00;" points="1075.43,-1522.23 1084,-1516 1073.42,-1515.52 1075.43,-1522.23"/>
</g>
<!-- __init__ -->
<g id="node18" class="node"><title>__init__</title>
<ellipse style="fill:#7f0000;stroke:#7f0000;stroke-width:2;" cx="1030" cy="-1249" rx="61.0355" ry="61.0355"/>
<text text-anchor="middle" x="1030" y="-1244.5" style="font-family:Times New Roman;font-size:15.00;fill:#ffffff;">__init__[2](1)</text>
</g>
<!-- atarashii&#45;&gt;__init__ -->
<g id="edge44" class="edge"><title>atarashii&#45;&gt;__init__</title>
<path style="fill:none;stroke:#ff0000;" d="M1126,-1373C1108,-1349 1089,-1324 1073,-1303"/>
<ellipse style="fill:#ff0000;stroke:#ff0000;" cx="1070.56" cy="-1300.07" rx="4.00002" ry="4.00002"/>
</g>
<!-- updater -->
<g id="node3" class="node"><title>updater</title>
<ellipse style="fill:#66007f;stroke:#66007f;stroke-width:2;" cx="1495" cy="-529" rx="96.1719" ry="96.1719"/>
<text text-anchor="middle" x="1495" y="-521" style="font-family:Times New Roman;font-size:25.00;fill:#ffffff;">updater[6](1)</text>
</g>
<!-- updater&#45;&gt;atarashii -->
<g id="edge20" class="edge"><title>updater&#45;&gt;atarashii</title>
<path style="fill:none;stroke:#66007f;" d="M1492,-625C1488,-738 1480,-916 1472,-946 1431,-1097 1344,-1255 1281,-1358"/>
<polygon style="fill:#66007f;stroke:#66007f;" points="1277.8,-1356.56 1276,-1367 1283.92,-1359.96 1277.8,-1356.56"/>
</g>
<!-- view -->
<g id="node4" class="node"><title>view</title>
<ellipse style="fill:#7f004c;stroke:#7f004c;stroke-width:2;" cx="735" cy="-287" rx="75.1063" ry="75.1063"/>
<text text-anchor="middle" x="735" y="-279" style="font-family:Times New Roman;font-size:25.00;fill:#ffffff;">view[6](2)</text>
</g>
<!-- message -->
<g id="node6" class="node"><title>message</title>
<ellipse style="fill:#007f33;stroke:#007f33;stroke-width:2;" cx="478" cy="-88" rx="87.8133" ry="87.8133"/>
<text text-anchor="middle" x="478" y="-82" style="font-family:Times New Roman;font-size:20.00;fill:#ffffff;">message[4](1)</text>
</g>
<!-- view&#45;&gt;message -->
<g id="edge40" class="edge"><title>view&#45;&gt;message</title>
<path style="fill:none;stroke:#7f004c;" d="M675,-241C640,-213 594,-178 556,-148"/>
<polygon style="fill:#7f004c;stroke:#7f004c;" points="558.1,-145.2 548,-142 553.9,-150.8 558.1,-145.2"/>
</g>
<!-- html -->
<g id="node7" class="node"><title>html</title>
<ellipse style="fill:#197f00;stroke:#197f00;stroke-width:2;" cx="1063" cy="-88" rx="64.0085" ry="64.0085"/>
<text text-anchor="middle" x="1063" y="-82" style="font-family:Times New Roman;font-size:20.00;fill:#ffffff;">html[4](1)</text>
</g>
<!-- view&#45;&gt;html -->
<g id="edge84" class="edge"><title>view&#45;&gt;html</title>
<path style="fill:none;stroke:#7f004c;" d="M799,-248C857,-213 942,-161 999,-126"/>
<polygon style="fill:#7f004c;stroke:#7f004c;" points="1000.96,-128.916 1008,-121 997.559,-122.797 1000.96,-128.916"/>
</g>
<!-- dialog_settings -->
<g id="node5" class="node"><title>dialog_settings</title>
<ellipse style="fill:#657f00;stroke:#657f00;stroke-width:2;" cx="188" cy="-821" rx="124.919" ry="124.919"/>
<text text-anchor="middle" x="188" y="-814.2" style="font-family:Times New Roman;font-size:22.00;fill:#ffffff;">dialog_settings[5](1)</text>
</g>
<!-- gui_events -->
<g id="node14" class="node"><title>gui_events</title>
<ellipse style="fill:#cbff00;stroke:#cbff00;stroke-width:2;" cx="354" cy="-529" rx="85.241" ry="85.241"/>
<text text-anchor="middle" x="354" y="-524.2" style="font-family:Times New Roman;font-size:17.00;fill:#000000;">gui_events[3](1)</text>
</g>
<!-- dialog_settings&#45;&gt;gui_events -->
<g id="edge100" class="edge"><title>dialog_settings&#45;&gt;gui_events</title>
<path style="fill:none;stroke:#657f00;" d="M250,-712C269,-679 289,-643 307,-612"/>
<polygon style="fill:#657f00;stroke:#657f00;" points="310.203,-613.441 312,-603 304.084,-610.042 310.203,-613.441"/>
</g>
<!-- message&#45;&gt;gui -->
<g id="edge144" class="edge"><title>message&#45;&gt;gui</title>
<path style="fill:none;stroke:#007f33;" d="M417,-152C366,-210 296,-302 266,-398 232,-509 213,-556 266,-660 279,-684 304,-671 316,-696 393,-841 324,-902 324,-1067 324,-1249 324,-1249 324,-1249 324,-1406 307,-1453 361,-1602 367,-1619 376,-1636 385,-1651"/>
<polygon style="fill:#007f33;stroke:#007f33;" points="382.541,-1653.62 391,-1660 388.365,-1649.74 382.541,-1653.62"/>
</g>
<!-- html&#45;&gt;gui -->
<g id="edge140" class="edge"><title>html&#45;&gt;gui</title>
<path style="fill:none;stroke:#197f00;" d="M1060,-152C1053,-258 1038,-476 1010,-660 989,-788 1011,-833 946,-946 933,-966 921,-963 906,-982 881,-1011 623,-1447 508,-1642"/>
<polygon style="fill:#197f00;stroke:#197f00;" points="504.797,-1640.56 503,-1651 510.916,-1643.96 504.797,-1640.56"/>
</g>
<!-- atarashii_actions -->
<g id="node8" class="node"><title>atarashii_actions</title>
<ellipse style="fill:#ff0000;stroke:#ff0000;stroke-width:2;" cx="1205" cy="-529" rx="131.219" ry="131.219"/>
<text text-anchor="middle" x="1205" y="-523" style="font-family:Times New Roman;font-size:20.00;fill:#000000;">atarashii_actions[4](1)</text>
</g>
<!-- atarashii_actions&#45;&gt;atarashii -->
<g id="edge6" class="edge"><title>atarashii_actions&#45;&gt;atarashii</title>
<path style="fill:none;stroke:#ff0000;" d="M1205,-660C1205,-838 1205,-1157 1205,-1338"/>
<ellipse style="fill:#ff0000;stroke:#ff0000;" cx="1205" cy="-1342" rx="4" ry="4"/>
</g>
<!-- dialog -->
<g id="node9" class="node"><title>dialog</title>
<ellipse style="fill:#657f00;stroke:#657f00;stroke-width:2;" cx="188" cy="-1944" rx="74.1867" ry="74.1867"/>
<text text-anchor="middle" x="188" y="-1937.6" style="font-family:Times New Roman;font-size:21.00;fill:#ffffff;">dialog[4](3)</text>
</g>
<!-- dialog&#45;&gt;gui -->
<g id="edge134" class="edge"><title>dialog&#45;&gt;gui</title>
<path style="fill:none;stroke:#657f00;" d="M246,-1898C282,-1870 328,-1834 368,-1803"/>
<polygon style="fill:#657f00;stroke:#657f00;" points="370.1,-1805.8 376,-1797 365.9,-1800.2 370.1,-1805.8"/>
</g>
<!-- dialog&#45;&gt;dialog_settings -->
<g id="edge50" class="edge"><title>dialog&#45;&gt;dialog_settings</title>
<path style="fill:none;stroke:#657f00;" d="M188,-1870C188,-1777 188,-1613 188,-1474 188,-1474 188,-1474 188,-1249 188,-1150 188,-1038 188,-954"/>
<ellipse style="fill:#657f00;stroke:#657f00;" cx="188" cy="-950" rx="4" ry="4"/>
</g>
<!-- dialog&#45;&gt;gui_events -->
<g id="edge98" class="edge"><title>dialog&#45;&gt;gui_events</title>
<path style="fill:none;stroke:#657f00;" d="M198,-1870C222,-1705 279,-1292 316,-946 328,-835 340,-708 346,-624"/>
<polygon style="fill:#657f00;stroke:#657f00;" points="349.488,-624.299 347,-614 342.522,-623.602 349.488,-624.299"/>
</g>
<!-- utils -->
<g id="node10" class="node"><title>utils</title>
<ellipse style="fill:#cc00ff;stroke:#cc00ff;stroke-width:2;" cx="994" cy="-1067" rx="85.213" ry="85.213"/>
<text text-anchor="middle" x="994" y="-1059.6" style="font-family:Times New Roman;font-size:26.00;fill:#000000;">utils[3](14)</text>
</g>
<!-- utils&#45;&gt;atarashii -->
<g id="edge22" class="edge"><title>utils&#45;&gt;atarashii</title>
<path style="fill:none;stroke:#cc00ff;" d="M1052,-1129C1067,-1147 1082,-1168 1094,-1188 1122,-1237 1146,-1293 1164,-1344"/>
<ellipse style="fill:#cc00ff;stroke:#cc00ff;" cx="1165.6" cy="-1348.25" rx="4.00001" ry="4.00001"/>
</g>
<!-- utils&#45;&gt;updater -->
<g id="edge112" class="edge"><title>utils&#45;&gt;updater</title>
<path style="fill:none;stroke:#cc00ff;" d="M1058,-1011C1079,-992 1101,-969 1119,-946 1196,-845 1164,-781 1258,-696 1287,-669 1305,-680 1339,-660 1367,-642 1394,-621 1419,-600"/>
<ellipse style="fill:#cc00ff;stroke:#cc00ff;" cx="1421.93" cy="-597.561" rx="4.00002" ry="4.00002"/>
</g>
<!-- utils&#45;&gt;view -->
<g id="edge170" class="edge"><title>utils&#45;&gt;view</title>
<path style="fill:none;stroke:#cc00ff;" d="M996,-982C998,-907 1001,-794 1007,-696 1010,-629 1047,-452 1010,-398 967,-335 882,-307 818,-295"/>
<ellipse style="fill:#cc00ff;stroke:#cc00ff;" cx="813.969" cy="-294.496" rx="4.00001" ry="4.00001"/>
</g>
<!-- utils&#45;&gt;dialog_settings -->
<g id="edge56" class="edge"><title>utils&#45;&gt;dialog_settings</title>
<path style="fill:none;stroke:#cc00ff;" d="M909,-1062C784,-1053 546,-1025 362,-946 337,-935 314,-921 291,-906"/>
<ellipse style="fill:#cc00ff;stroke:#cc00ff;" cx="287.255" cy="-903.325" rx="4.00002" ry="4.00002"/>
</g>
<!-- utils&#45;&gt;message -->
<g id="edge38" class="edge"><title>utils&#45;&gt;message</title>
<path style="fill:none;stroke:#cc00ff;" d="M921,-1023C893,-1003 864,-976 846,-946 788,-848 880,-773 798,-696 700,-605 591,-757 501,-660 485,-641 485,-236 483,-212 483,-203 482,-193 482,-184"/>
<ellipse style="fill:#cc00ff;stroke:#cc00ff;" cx="482" cy="-180" rx="4" ry="4"/>
</g>
<!-- utils&#45;&gt;html -->
<g id="edge82" class="edge"><title>utils&#45;&gt;html</title>
<path style="fill:none;stroke:#cc00ff;" d="M1079,-1065C1247,-1060 1613,-1038 1691,-946 1770,-851 1671,-494 1594,-398 1469,-243 1244,-149 1132,-110"/>
<ellipse style="fill:#cc00ff;stroke:#cc00ff;" cx="1127.75" cy="-108.405" rx="4.00001" ry="4.00001"/>
</g>
<!-- view_menu -->
<g id="node11" class="node"><title>view_menu</title>
<ellipse style="fill:#7f004c;stroke:#7f004c;stroke-width:2;" cx="920" cy="-529" rx="86.8728" ry="86.8728"/>
<text text-anchor="middle" x="920" y="-524.2" style="font-family:Times New Roman;font-size:17.00;fill:#ffffff;">view_menu[3](1)</text>
</g>
<!-- utils&#45;&gt;view_menu -->
<g id="edge62" class="edge"><title>utils&#45;&gt;view_menu</title>
<path style="fill:none;stroke:#cc00ff;" d="M983,-983C981,-970 980,-958 979,-946 967,-835 976,-806 959,-696 955,-672 949,-645 944,-621"/>
<ellipse style="fill:#cc00ff;stroke:#cc00ff;" cx="942.97" cy="-616.881" rx="4.00001" ry="4.00001"/>
</g>
<!-- gui_helpers -->
<g id="node12" class="node"><title>gui_helpers</title>
<ellipse style="fill:#cbff00;stroke:#cbff00;stroke-width:2;" cx="453" cy="-821" rx="87.9048" ry="87.9048"/>
<text text-anchor="middle" x="453" y="-816.2" style="font-family:Times New Roman;font-size:17.00;fill:#000000;">gui_helpers[3](1)</text>
</g>
<!-- utils&#45;&gt;gui_helpers -->
<g id="edge68" class="edge"><title>utils&#45;&gt;gui_helpers</title>
<path style="fill:none;stroke:#cc00ff;" d="M909,-1058C817,-1045 668,-1015 560,-946 541,-934 523,-917 508,-900"/>
<ellipse style="fill:#cc00ff;stroke:#cc00ff;" cx="505.325" cy="-896.255" rx="4.00002" ry="4.00002"/>
</g>
<!-- text -->
<g id="node13" class="node"><title>text</title>
<ellipse style="fill:#0066ff;stroke:#0066ff;stroke-width:2;" cx="729" cy="-821" rx="52.7777" ry="52.7777"/>
<text text-anchor="middle" x="729" y="-816.2" style="font-family:Times New Roman;font-size:17.00;fill:#000000;">text[3](1)</text>
</g>
<!-- utils&#45;&gt;text -->
<g id="edge94" class="edge"><title>utils&#45;&gt;text</title>
<path style="fill:none;stroke:#cc00ff;" d="M917,-1030C880,-1009 835,-980 803,-946 784,-926 767,-900 755,-876"/>
<ellipse style="fill:#cc00ff;stroke:#cc00ff;" cx="752.985" cy="-872.473" rx="4.00002" ry="4.00002"/>
</g>
<!-- tray -->
<g id="node15" class="node"><title>tray</title>
<ellipse style="fill:#19007f;stroke:#19007f;stroke-width:2;" cx="616" cy="-821" rx="52.7777" ry="52.7777"/>
<text text-anchor="middle" x="616" y="-816.2" style="font-family:Times New Roman;font-size:17.00;fill:#ffffff;">tray[3](1)</text>
</g>
<!-- utils&#45;&gt;tray -->
<g id="edge130" class="edge"><title>utils&#45;&gt;tray</title>
<path style="fill:none;stroke:#cc00ff;" d="M910,-1054C839,-1039 739,-1007 673,-946 654,-928 641,-903 632,-880"/>
<ellipse style="fill:#cc00ff;stroke:#cc00ff;" cx="630.405" cy="-875.745" rx="4.00001" ry="4.00001"/>
</g>
<!-- updater_tweet -->
<g id="node16" class="node"><title>updater_tweet</title>
<ellipse style="fill:#66007f;stroke:#66007f;stroke-width:2;" cx="1597" cy="-821" rx="91.2241" ry="91.2241"/>
<text text-anchor="middle" x="1597" y="-816.5" style="font-family:Times New Roman;font-size:15.00;fill:#ffffff;">updater_tweet[2](1)</text>
</g>
<!-- utils&#45;&gt;updater_tweet -->
<g id="edge4" class="edge"><title>utils&#45;&gt;updater_tweet</title>
<path style="fill:none;stroke:#cc00ff;" d="M1079,-1059C1178,-1047 1346,-1017 1472,-946 1494,-933 1515,-916 1533,-898"/>
<ellipse style="fill:#cc00ff;stroke:#cc00ff;" cx="1536.17" cy="-894.828" rx="4.00002" ry="4.00002"/>
</g>
<!-- send -->
<g id="node19" class="node"><title>send</title>
<ellipse style="fill:#007f7f;stroke:#007f7f;stroke-width:2;" cx="1063" cy="-821" rx="53.0581" ry="53.0581"/>
<text text-anchor="middle" x="1063" y="-816.6" style="font-family:Times New Roman;font-size:16.00;fill:#ffffff;">send[2](2)</text>
</g>
<!-- utils&#45;&gt;send -->
<g id="edge72" class="edge"><title>utils&#45;&gt;send</title>
<path style="fill:none;stroke:#cc00ff;" d="M1017,-985C1026,-951 1037,-912 1047,-880"/>
<ellipse style="fill:#cc00ff;stroke:#cc00ff;" cx="1048.03" cy="-875.881" rx="4.00001" ry="4.00001"/>
</g>
<!-- twp -->
<g id="node20" class="node"><title>twp</title>
<ellipse style="fill:#3200ff;stroke:#3200ff;stroke-width:2;" cx="896" cy="-821" rx="47.0013" ry="47.0013"/>
<text text-anchor="middle" x="896" y="-816.5" style="font-family:Times New Roman;font-size:15.00;fill:#000000;">twp[2](1)</text>
</g>
<!-- utils&#45;&gt;twp -->
<g id="edge76" class="edge"><title>utils&#45;&gt;twp</title>
<path style="fill:none;stroke:#cc00ff;" d="M962,-988C947,-950 930,-906 917,-873"/>
<ellipse style="fill:#cc00ff;stroke:#cc00ff;" cx="915.405" cy="-868.745" rx="4.00001" ry="4.00001"/>
</g>
<!-- updater_message -->
<g id="node23" class="node"><title>updater_message</title>
<ellipse style="fill:#66007f;stroke:#66007f;stroke-width:2;" cx="1365" cy="-821" rx="104.179" ry="104.179"/>
<text text-anchor="middle" x="1365" y="-816.5" style="font-family:Times New Roman;font-size:15.00;fill:#ffffff;">updater_message[2](1)</text>
</g>
<!-- utils&#45;&gt;updater_message -->
<g id="edge164" class="edge"><title>utils&#45;&gt;updater_message</title>
<path style="fill:none;stroke:#cc00ff;" d="M1072,-1032C1118,-1010 1176,-979 1225,-946 1245,-932 1265,-916 1284,-899"/>
<ellipse style="fill:#cc00ff;stroke:#cc00ff;" cx="1287.17" cy="-895.828" rx="4.00002" ry="4.00002"/>
</g>
<!-- view_menu&#45;&gt;view -->
<g id="edge176" class="edge"><title>view_menu&#45;&gt;view</title>
<path style="fill:none;stroke:#7f004c;" d="M871,-457C857,-438 841,-417 827,-398 815,-382 802,-366 789,-350"/>
<ellipse style="fill:#7f004c;stroke:#7f004c;" cx="786.561" cy="-347.073" rx="4.00002" ry="4.00002"/>
</g>
<!-- gui_helpers&#45;&gt;gui -->
<g id="edge138" class="edge"><title>gui_helpers&#45;&gt;gui</title>
<path style="fill:none;stroke:#cbff00;" d="M453,-909C453,-1078 453,-1447 453,-1630"/>
<ellipse style="fill:#cbff00;stroke:#cbff00;" cx="453" cy="-1634" rx="4" ry="4"/>
</g>
<!-- text&#45;&gt;gui -->
<g id="edge148" class="edge"><title>text&#45;&gt;gui</title>
<path style="fill:none;stroke:#0066ff;" d="M711,-871C702,-895 688,-923 672,-946 657,-965 643,-961 632,-982 561,-1103 539,-1466 500,-1602 497,-1613 494,-1624 490,-1634"/>
<polygon style="fill:#0066ff;stroke:#0066ff;" points="486.521,-1633.42 487,-1644 493.226,-1635.43 486.521,-1633.42"/>
</g>
<!-- gui_events&#45;&gt;gui -->
<g id="edge136" class="edge"><title>gui_events&#45;&gt;gui</title>
<path style="fill:none;stroke:#cbff00;" d="M354,-614C354,-720 355,-906 354,-1067 354,-1249 354,-1249 354,-1249 354,-1384 391,-1537 420,-1635"/>
<ellipse style="fill:#cbff00;stroke:#cbff00;" cx="421.03" cy="-1639.12" rx="4.00001" ry="4.00001"/>
</g>
<!-- tray&#45;&gt;gui -->
<g id="edge150" class="edge"><title>tray&#45;&gt;gui</title>
<path style="fill:none;stroke:#19007f;" d="M603,-873C596,-904 586,-945 579,-982 533,-1212 491,-1483 469,-1629"/>
<polygon style="fill:#19007f;stroke:#19007f;" points="465.529,-1628.51 467,-1639 472.393,-1629.88 465.529,-1628.51"/>
</g>
<!-- updater_tweet&#45;&gt;updater -->
<g id="edge110" class="edge"><title>updater_tweet&#45;&gt;updater</title>
<path style="fill:none;stroke:#66007f;" d="M1567,-735C1555,-702 1542,-663 1530,-628"/>
<ellipse style="fill:#66007f;stroke:#66007f;" cx="1528.4" cy="-623.745" rx="4.00001" ry="4.00001"/>
</g>
<!-- notify -->
<g id="node17" class="node"><title>notify</title>
<ellipse style="fill:#00ff66;stroke:#00ff66;stroke-width:2;" cx="1024" cy="-1944" rx="55.0584" ry="55.0584"/>
<text text-anchor="middle" x="1024" y="-1939.5" style="font-family:Times New Roman;font-size:15.00;fill:#000000;">notify[2](1)</text>
</g>
<!-- notify&#45;&gt;atarashii -->
<g id="edge16" class="edge"><title>notify&#45;&gt;atarashii</title>
<path style="fill:none;stroke:#00ff66;" d="M1032,-1889C1042,-1827 1063,-1722 1100,-1638 1108,-1621 1116,-1604 1126,-1588"/>
<polygon style="fill:#00ff66;stroke:#00ff66;" points="1129.2,-1589.44 1131,-1579 1123.08,-1586.04 1129.2,-1589.44"/>
</g>
<!-- __init__&#45;&gt;utils -->
<g id="edge24" class="edge"><title>__init__&#45;&gt;utils</title>
<path style="fill:none;stroke:#7f0000;" d="M1018,-1189C1016,-1180 1014,-1169 1012,-1159"/>
<ellipse style="fill:#7f0000;stroke:#7f0000;" cx="1011.5" cy="-1154.97" rx="4.00001" ry="4.00001"/>
</g>
<!-- send&#45;&gt;atarashii_actions -->
<g id="edge118" class="edge"><title>send&#45;&gt;atarashii_actions</title>
<path style="fill:none;stroke:#007f7f;" d="M1086,-773C1102,-741 1123,-697 1143,-656"/>
<polygon style="fill:#007f7f;stroke:#007f7f;" points="1146.2,-657.441 1148,-647 1140.08,-654.042 1146.2,-657.441"/>
</g>
<!-- send&#45;&gt;view_menu -->
<g id="edge60" class="edge"><title>send&#45;&gt;view_menu</title>
<path style="fill:none;stroke:#007f7f;" d="M1040,-773C1019,-731 988,-668 962,-616"/>
<polygon style="fill:#007f7f;stroke:#007f7f;" points="965.26,-614.717 958,-607 958.863,-617.56 965.26,-614.717"/>
</g>
<!-- twp&#45;&gt;view -->
<g id="edge168" class="edge"><title>twp&#45;&gt;view</title>
<path style="fill:none;stroke:#3200ff;" d="M877,-778C859,-734 833,-671 830,-660 803,-546 852,-507 814,-398 808,-382 800,-367 790,-353"/>
<polygon style="fill:#3200ff;stroke:#3200ff;" points="792.459,-350.379 784,-344 786.635,-354.262 792.459,-350.379"/>
</g>
<!-- view_html -->
<g id="node21" class="node"><title>view_html</title>
<ellipse style="fill:#7f004c;stroke:#7f004c;stroke-width:2;" cx="578" cy="-529" rx="73.9509" ry="73.9509"/>
<text text-anchor="middle" x="578" y="-524.5" style="font-family:Times New Roman;font-size:15.00;fill:#ffffff;">view_html[2](1)</text>
</g>
<!-- view_html&#45;&gt;view -->
<g id="edge174" class="edge"><title>view_html&#45;&gt;view</title>
<path style="fill:none;stroke:#7f004c;" d="M614,-464C627,-443 642,-419 656,-398 665,-383 676,-369 685,-355"/>
<ellipse style="fill:#7f004c;stroke:#7f004c;" cx="687.675" cy="-351.255" rx="4.00002" ry="4.00002"/>
</g>
<!-- settings -->
<g id="node22" class="node"><title>settings</title>
<ellipse style="fill:#00ffff;stroke:#00ffff;stroke-width:2;" cx="943" cy="-2351" rx="91.0493" ry="91.0493"/>
<text text-anchor="middle" x="943" y="-2344.6" style="font-family:Times New Roman;font-size:21.00;fill:#000000;">settings[2](10)</text>
</g>
<!-- settings&#45;&gt;gui -->
<g id="edge146" class="edge"><title>settings&#45;&gt;gui</title>
<path style="fill:none;stroke:#00ffff;" d="M853,-2335C785,-2318 692,-2285 633,-2224 532,-2118 486,-1950 466,-1841"/>
<ellipse style="fill:#00ffff;stroke:#00ffff;" cx="465.496" cy="-1836.97" rx="4.00001" ry="4.00001"/>
</g>
<!-- settings&#45;&gt;atarashii -->
<g id="edge18" class="edge"><title>settings&#45;&gt;atarashii</title>
<path style="fill:none;stroke:#00ffff;" d="M985,-2270C1017,-2204 1060,-2107 1082,-2018 1122,-1853 1064,-1800 1114,-1638 1119,-1622 1125,-1607 1132,-1591"/>
<polygon style="fill:#00ffff;stroke:#00ffff;" points="1135.2,-1592.44 1137,-1582 1129.08,-1589.04 1135.2,-1592.44"/>
</g>
<!-- settings&#45;&gt;updater -->
<g id="edge106" class="edge"><title>settings&#45;&gt;updater</title>
<path style="fill:none;stroke:#00ffff;" d="M1016,-2296C1043,-2275 1072,-2250 1097,-2224 1336,-1973 1425,-1918 1566,-1602 1686,-1330 1663,-1241 1691,-946 1696,-890 1714,-746 1691,-696 1669,-649 1626,-610 1586,-581"/>
<ellipse style="fill:#00ffff;stroke:#00ffff;" cx="1582.25" cy="-578.325" rx="4.00002" ry="4.00002"/>
</g>
<!-- settings&#45;&gt;dialog_settings -->
<g id="edge54" class="edge"><title>settings&#45;&gt;dialog_settings</title>
<path style="fill:none;stroke:#00ffff;" d="M852,-2346C731,-2335 513,-2306 348,-2224 224,-2161 176,-2141 111,-2018 96,-1988 103,-1977 103,-1944 103,-1944 103,-1944 103,-1249 103,-1146 127,-1033 149,-949"/>
<ellipse style="fill:#00ffff;stroke:#00ffff;" cx="150.03" cy="-944.881" rx="4.00001" ry="4.00001"/>
</g>
<!-- settings&#45;&gt;atarashii_actions -->
<g id="edge120" class="edge"><title>settings&#45;&gt;atarashii_actions</title>
<path style="fill:none;stroke:#00ffff;" d="M1001,-2281C1015,-2263 1030,-2243 1042,-2224 1202,-1963 1269,-1900 1336,-1602 1360,-1490 1354,-1458 1336,-1346 1332,-1323 1277,-1174 1272,-1152 1251,-1061 1255,-1037 1245,-946 1234,-853 1225,-749 1217,-668"/>
<ellipse style="fill:#00ffff;stroke:#00ffff;" cx="1216.5" cy="-663.969" rx="4.00001" ry="4.00001"/>
</g>
<!-- settings&#45;&gt;dialog -->
<g id="edge158" class="edge"><title>settings&#45;&gt;dialog</title>
<path style="fill:none;stroke:#00ffff;" d="M857,-2322C790,-2299 697,-2264 620,-2224 485,-2154 337,-2053 255,-1993"/>
<ellipse style="fill:#00ffff;stroke:#00ffff;" cx="251.255" cy="-1990.32" rx="4.00002" ry="4.00002"/>
</g>
<!-- settings&#45;&gt;utils -->
<g id="edge28" class="edge"><title>settings&#45;&gt;utils</title>
<path style="fill:none;stroke:#00ffff;" d="M942,-2260C941,-2078 939,-1661 938,-1310 937,-1255 926,-1240 938,-1188 940,-1175 945,-1162 950,-1150"/>
<ellipse style="fill:#00ffff;stroke:#00ffff;" cx="951.595" cy="-1145.75" rx="4.00001" ry="4.00001"/>
</g>
<!-- settings&#45;&gt;notify -->
<g id="edge30" class="edge"><title>settings&#45;&gt;notify</title>
<path style="fill:none;stroke:#00ffff;" d="M961,-2262C976,-2184 998,-2075 1011,-2006"/>
<ellipse style="fill:#00ffff;stroke:#00ffff;" cx="1012.03" cy="-2001.88" rx="4.00001" ry="4.00001"/>
</g>
<!-- settings&#45;&gt;__init__ -->
<g id="edge46" class="edge"><title>settings&#45;&gt;__init__</title>
<path style="fill:none;stroke:#00ffff;" d="M948,-2260C953,-2178 958,-2053 958,-1944 958,-1944 958,-1944 958,-1736 958,-1584 992,-1410 1013,-1317"/>
<ellipse style="fill:#00ffff;stroke:#00ffff;" cx="1014.03" cy="-1312.88" rx="4.00001" ry="4.00001"/>
</g>
<!-- sounds -->
<g id="node24" class="node"><title>sounds</title>
<ellipse style="fill:#00337f;stroke:#00337f;stroke-width:2;" cx="692" cy="-2139" rx="56.1067" ry="56.1067"/>
<text text-anchor="middle" x="692" y="-2134.9" style="font-family:Times New Roman;font-size:14.00;fill:#ffffff;">sounds[1](3)</text>
</g>
<!-- settings&#45;&gt;sounds -->
<g id="edge42" class="edge"><title>settings&#45;&gt;sounds</title>
<path style="fill:none;stroke:#00ffff;" d="M862,-2308C825,-2286 783,-2257 749,-2224 740,-2215 731,-2205 724,-2195"/>
<ellipse style="fill:#00ffff;stroke:#00ffff;" cx="721.325" cy="-2191.25" rx="4.00002" ry="4.00002"/>
</g>
<!-- updater_message&#45;&gt;updater -->
<g id="edge108" class="edge"><title>updater_message&#45;&gt;updater</title>
<path style="fill:none;stroke:#66007f;" d="M1407,-726C1422,-693 1438,-657 1453,-624"/>
<ellipse style="fill:#66007f;stroke:#66007f;" cx="1454.42" cy="-620.677" rx="4.00002" ry="4.00002"/>
</g>
<!-- sounds&#45;&gt;dialog -->
<g id="edge160" class="edge"><title>sounds&#45;&gt;dialog</title>
<path style="fill:none;stroke:#00337f;" d="M638,-2125C564,-2105 429,-2066 319,-2018 299,-2009 279,-1998 260,-1988"/>
<polygon style="fill:#00337f;stroke:#00337f;" points="261.441,-1984.8 251,-1983 258.042,-1990.92 261.441,-1984.8"/>
</g>
<!-- sounds&#45;&gt;notify -->
<g id="edge32" class="edge"><title>sounds&#45;&gt;notify</title>
<path style="fill:none;stroke:#00337f;" d="M719,-2090C728,-2077 739,-2064 752,-2054 814,-2005 902,-1974 960,-1959"/>
<polygon style="fill:#00337f;stroke:#00337f;" points="961.427,-1962.23 970,-1956 959.416,-1955.52 961.427,-1962.23"/>
</g>
<!-- sounds&#45;&gt;settings -->
<g id="edge124" class="edge"><title>sounds&#45;&gt;settings</title>
<path style="fill:none;stroke:#00337f;" d="M724,-2185C733,-2198 744,-2212 756,-2224 786,-2253 824,-2280 857,-2301"/>
<ellipse style="fill:#00337f;stroke:#00337f;" cx="860.527" cy="-2303.02" rx="4.00002" ry="4.00002"/>
</g>
<!-- view_helpers -->
<g id="node25" class="node"><title>view_helpers</title>
<ellipse style="fill:#7f004c;stroke:#7f004c;stroke-width:2;" cx="735" cy="-529" rx="75.8435" ry="75.8435"/>
<text text-anchor="middle" x="735" y="-525.8" style="font-family:Times New Roman;font-size:13.00;fill:#ffffff;">view_helpers[1](1)</text>
</g>
<!-- view_helpers&#45;&gt;view -->
<g id="edge172" class="edge"><title>view_helpers&#45;&gt;view</title>
<path style="fill:none;stroke:#7f004c;" d="M735,-453C735,-427 735,-397 735,-370"/>
<ellipse style="fill:#7f004c;stroke:#7f004c;" cx="735" cy="-366" rx="4" ry="4"/>
</g>
<!-- bus -->
<g id="node26" class="node"><title>bus</title>
<ellipse style="fill:#7f4c00;stroke:#7f4c00;stroke-width:2;" cx="1148" cy="-1736" rx="27.173" ry="27.173"/>
<ellipse style="fill:none;stroke:#7f4c00;stroke-width:2;" cx="1148" cy="-1736" rx="31.1095" ry="31.1095"/>
<text text-anchor="middle" x="1148" y="-1733.5" style="font-family:Times New Roman;font-size:10.00;fill:#ffffff;">bus(1)</text>
</g>
<!-- bus&#45;&gt;atarashii -->
<g id="edge8" class="edge"><title>bus&#45;&gt;atarashii</title>
<path style="fill:none;stroke:#7f4c00;" d="M1155,-1706C1161,-1681 1169,-1645 1176,-1609"/>
<polygon style="fill:#7f4c00;stroke:#7f4c00;" points="1179.47,-1609.49 1178,-1599 1172.61,-1608.12 1179.47,-1609.49"/>
</g>
<!-- constants -->
<g id="node27" class="node"><title>constants</title>
<ellipse style="fill:#ff9900;stroke:#ff9900;stroke-width:2;" cx="943" cy="-2575" rx="92.7945" ry="92.7945"/>
<ellipse style="fill:none;stroke:#ff9900;stroke-width:2;" cx="943" cy="-2575" rx="96.774" ry="96.774"/>
<text text-anchor="middle" x="943" y="-2568.3" style="font-family:Times New Roman;font-size:23.00;fill:#000000;">constants(19)</text>
</g>
<!-- constants&#45;&gt;gui -->
<g id="edge132" class="edge"><title>constants&#45;&gt;gui</title>
<path style="fill:none;stroke:#ff9900;" d="M848,-2555C743,-2531 584,-2489 545,-2442 404,-2270 416,-1991 435,-1841"/>
<ellipse style="fill:#ff9900;stroke:#ff9900;" cx="435.504" cy="-1836.97" rx="4.00001" ry="4.00001"/>
</g>
<!-- constants&#45;&gt;atarashii -->
<g id="edge10" class="edge"><title>constants&#45;&gt;atarashii</title>
<path style="fill:none;stroke:#ff9900;" d="M1033,-2539C1077,-2518 1126,-2485 1155,-2442 1230,-2328 1205,-2275 1205,-2139 1205,-2139 1205,-2139 1205,-1944 1205,-1831 1205,-1704 1205,-1610"/>
<ellipse style="fill:#ff9900;stroke:#ff9900;" cx="1205" cy="-1606" rx="4" ry="4"/>
</g>
<!-- constants&#45;&gt;updater -->
<g id="edge102" class="edge"><title>constants&#45;&gt;updater</title>
<path style="fill:none;stroke:#ff9900;" d="M1039,-2560C1177,-2537 1422,-2491 1497,-2442 1634,-2349 1714,-2304 1714,-2139 1714,-2139 1714,-2139 1714,-1067 1714,-901 1773,-843 1700,-696 1675,-647 1629,-607 1587,-579"/>
<ellipse style="fill:#ff9900;stroke:#ff9900;" cx="1583.25" cy="-576.325" rx="4.00002" ry="4.00002"/>
</g>
<!-- constants&#45;&gt;view -->
<g id="edge166" class="edge"><title>constants&#45;&gt;view</title>
<path style="fill:none;stroke:#ff9900;" d="M1015,-2509C1032,-2489 1049,-2466 1060,-2442 1099,-2352 1075,-2321 1083,-2224 1089,-2132 1089,-2109 1092,-2018 1093,-1952 1094,-1935 1092,-1870 1087,-1750 1078,-1721 1074,-1602 1070,-1488 1038,-1453 1074,-1346 1080,-1327 1094,-1328 1101,-1310 1156,-1157 1114,-1107 1119,-946 1121,-834 1168,-795 1119,-696 1107,-672 1085,-682 1071,-660 1008,-559 1097,-489 1022,-398 971,-337 884,-309 818,-297"/>
<ellipse style="fill:#ff9900;stroke:#ff9900;" cx="813.881" cy="-295.97" rx="4.00001" ry="4.00001"/>
</g>
<!-- constants&#45;&gt;dialog_settings -->
<g id="edge48" class="edge"><title>constants&#45;&gt;dialog_settings</title>
<path style="fill:none;stroke:#ff9900;" d="M846,-2570C667,-2557 294,-2523 197,-2442 88,-2349 88,-2282 88,-2139 88,-2139 88,-2139 88,-1249 88,-1129 78,-1096 109,-982 113,-968 118,-953 125,-939"/>
<ellipse style="fill:#ff9900;stroke:#ff9900;" cx="126.595" cy="-934.745" rx="4.00001" ry="4.00001"/>
</g>
<!-- constants&#45;&gt;message -->
<g id="edge34" class="edge"><title>constants&#45;&gt;message</title>
<path style="fill:none;stroke:#ff9900;" d="M846,-2567C627,-2549 106,-2499 53,-2442 -37,-2342 37,-2273 37,-2139 37,-2139 37,-2139 37,-529 37,-331 261,-191 390,-127"/>
<ellipse style="fill:#ff9900;stroke:#ff9900;" cx="393.527" cy="-124.985" rx="4.00002" ry="4.00002"/>
</g>
<!-- constants&#45;&gt;html -->
<g id="edge78" class="edge"><title>constants&#45;&gt;html</title>
<path style="fill:none;stroke:#ff9900;" d="M1040,-2566C1200,-2548 1511,-2507 1598,-2442 1717,-2352 1744,-2288 1744,-2139 1744,-2139 1744,-2139 1744,-529 1744,-240 1309,-131 1134,-99"/>
<ellipse style="fill:#ff9900;stroke:#ff9900;" cx="1129.97" cy="-98.4962" rx="4.00001" ry="4.00001"/>
</g>
<!-- constants&#45;&gt;atarashii_actions -->
<g id="edge114" class="edge"><title>constants&#45;&gt;atarashii_actions</title>
<path style="fill:none;stroke:#ff9900;" d="M1034,-2540C1083,-2517 1143,-2484 1186,-2442 1296,-2333 1359,-2294 1359,-2139 1359,-2139 1359,-2139 1359,-1736 1359,-1562 1368,-1518 1347,-1346 1341,-1300 1264,-990 1258,-946 1240,-835 1251,-806 1236,-696 1234,-686 1233,-676 1231,-666"/>
<ellipse style="fill:#ff9900;stroke:#ff9900;" cx="1230.5" cy="-661.969" rx="4.00001" ry="4.00001"/>
</g>
<!-- constants&#45;&gt;dialog -->
<g id="edge154" class="edge"><title>constants&#45;&gt;dialog</title>
<path style="fill:none;stroke:#ff9900;" d="M846,-2568C684,-2554 366,-2518 289,-2442 179,-2332 173,-2136 180,-2026"/>
<ellipse style="fill:#ff9900;stroke:#ff9900;" cx="180" cy="-2022" rx="4" ry="4"/>
</g>
<!-- constants&#45;&gt;utils -->
<g id="edge26" class="edge"><title>constants&#45;&gt;utils</title>
<path style="fill:none;stroke:#ff9900;" d="M1005,-2500C1018,-2482 1029,-2462 1037,-2442 1103,-2264 1071,-2207 1082,-2018 1085,-1952 1106,-1930 1082,-1870 1073,-1849 1056,-1853 1047,-1834 941,-1623 984,-1544 966,-1310 961,-1255 959,-1241 966,-1188 967,-1178 969,-1167 971,-1157"/>
<ellipse style="fill:#ff9900;stroke:#ff9900;" cx="971.504" cy="-1152.97" rx="4.00001" ry="4.00001"/>
</g>
<!-- constants&#45;&gt;gui_helpers -->
<g id="edge64" class="edge"><title>constants&#45;&gt;gui_helpers</title>
<path style="fill:none;stroke:#ff9900;" d="M847,-2558C723,-2534 516,-2489 456,-2442 337,-2346 294,-2291 294,-2139 294,-2139 294,-2139 294,-1736 295,-1398 291,-1306 384,-982 391,-958 401,-932 411,-908"/>
<ellipse style="fill:#ff9900;stroke:#ff9900;" cx="412.424" cy="-904.677" rx="4.00002" ry="4.00002"/>
</g>
<!-- constants&#45;&gt;text -->
<g id="edge90" class="edge"><title>constants&#45;&gt;text</title>
<path style="fill:none;stroke:#ff9900;" d="M866,-2516C790,-2453 679,-2346 633,-2224 538,-1972 678,-1117 719,-881"/>
<ellipse style="fill:#ff9900;stroke:#ff9900;" cx="719.504" cy="-876.969" rx="4.00001" ry="4.00001"/>
</g>
<!-- constants&#45;&gt;gui_events -->
<g id="edge96" class="edge"><title>constants&#45;&gt;gui_events</title>
<path style="fill:none;stroke:#ff9900;" d="M846,-2566C634,-2546 144,-2495 92,-2442 45,-2393 52,-2206 52,-2139 52,-2139 52,-2139 52,-1067 52,-1025 39,-731 60,-696 104,-621 195,-577 264,-554"/>
<ellipse style="fill:#ff9900;stroke:#ff9900;" cx="268.255" cy="-552.405" rx="4.00001" ry="4.00001"/>
</g>
<!-- constants&#45;&gt;tray -->
<g id="edge126" class="edge"><title>constants&#45;&gt;tray</title>
<path style="fill:none;stroke:#ff9900;" d="M849,-2552C754,-2527 620,-2485 590,-2442 501,-2311 588,-1162 611,-882"/>
<ellipse style="fill:#ff9900;stroke:#ff9900;" cx="611.504" cy="-877.969" rx="4.00001" ry="4.00001"/>
</g>
<!-- constants&#45;&gt;updater_tweet -->
<g id="edge2" class="edge"><title>constants&#45;&gt;updater_tweet</title>
<path style="fill:none;stroke:#ff9900;" d="M1039,-2559C1164,-2537 1375,-2493 1434,-2442 1543,-2345 1561,-2285 1561,-2139 1561,-2139 1561,-2139 1561,-1249 1561,-1136 1573,-1006 1584,-919"/>
<ellipse style="fill:#ff9900;stroke:#ff9900;" cx="1584.5" cy="-914.969" rx="4.00001" ry="4.00001"/>
</g>
<!-- constants&#45;&gt;send -->
<g id="edge70" class="edge"><title>constants&#45;&gt;send</title>
<path style="fill:none;stroke:#ff9900;" d="M1015,-2509C1032,-2489 1049,-2466 1060,-2442 1099,-2352 1075,-2321 1083,-2224 1089,-2132 1089,-2109 1092,-2018 1093,-1952 1095,-1935 1092,-1870 1078,-1637 976,-1563 1061,-1346 1068,-1325 1086,-1330 1094,-1310 1113,-1259 1095,-1242 1094,-1188 1091,-1096 1090,-1073 1082,-982 1078,-949 1075,-912 1071,-882"/>
<ellipse style="fill:#ff9900;stroke:#ff9900;" cx="1070.5" cy="-877.969" rx="4.00001" ry="4.00001"/>
</g>
<!-- constants&#45;&gt;view_html -->
<g id="edge86" class="edge"><title>constants&#45;&gt;view_html</title>
<path style="fill:none;stroke:#ff9900;" d="M848,-2556C781,-2538 696,-2504 647,-2442 585,-2364 614,-2322 603,-2224 537,-1659 569,-1514 560,-946 558,-834 554,-806 560,-696 562,-668 564,-638 567,-611"/>
<ellipse style="fill:#ff9900;stroke:#ff9900;" cx="567.504" cy="-606.969" rx="4.00001" ry="4.00001"/>
</g>
<!-- constants&#45;&gt;settings -->
<g id="edge122" class="edge"><title>constants&#45;&gt;settings</title>
<path style="fill:none;stroke:#ff9900;" d="M943,-2478C943,-2469 943,-2459 943,-2450"/>
<ellipse style="fill:#ff9900;stroke:#ff9900;" cx="943" cy="-2446" rx="4" ry="4"/>
</g>
<!-- constants&#45;&gt;updater_message -->
<g id="edge162" class="edge"><title>constants&#45;&gt;updater_message</title>
<path style="fill:none;stroke:#ff9900;" d="M1040,-2566C1133,-2553 1272,-2521 1364,-2442 1476,-2344 1510,-2288 1510,-2139 1510,-2139 1510,-2139 1510,-1474 1510,-1277 1447,-1054 1404,-927"/>
<ellipse style="fill:#ff9900;stroke:#ff9900;" cx="1402.4" cy="-922.745" rx="4.00001" ry="4.00001"/>
</g>
<!-- language -->
<g id="node28" class="node"><title>language</title>
<ellipse style="fill:#33ff00;stroke:#33ff00;stroke-width:2;" cx="840" cy="-2139" rx="80.9364" ry="80.9364"/>
<ellipse style="fill:none;stroke:#33ff00;stroke-width:2;" cx="840" cy="-2139" rx="84.9364" ry="84.9364"/>
<text text-anchor="middle" x="840" y="-2133" style="font-family:Times New Roman;font-size:20.00;fill:#000000;">language(15)</text>
</g>
<!-- language&#45;&gt;gui -->
<g id="edge142" class="edge"><title>language&#45;&gt;gui</title>
<path style="fill:none;stroke:#33ff00;" d="M782,-2077C772,-2068 762,-2060 751,-2054 704,-2026 673,-2055 635,-2018 585,-1969 621,-1929 585,-1870 571,-1847 553,-1825 534,-1806"/>
<ellipse style="fill:#33ff00;stroke:#33ff00;" cx="530.828" cy="-1802.83" rx="4.00002" ry="4.00002"/>
</g>
<!-- language&#45;&gt;atarashii -->
<g id="edge14" class="edge"><title>language&#45;&gt;atarashii</title>
<path style="fill:none;stroke:#33ff00;" d="M889,-2069C899,-2053 910,-2035 918,-2018 994,-1857 948,-1789 1041,-1638 1058,-1611 1079,-1585 1101,-1563"/>
<ellipse style="fill:#33ff00;stroke:#33ff00;" cx="1104.17" cy="-1559.83" rx="4.00002" ry="4.00002"/>
</g>
<!-- language&#45;&gt;updater -->
<g id="edge104" class="edge"><title>language&#45;&gt;updater</title>
<path style="fill:none;stroke:#33ff00;" d="M920,-2111C971,-2091 1035,-2060 1082,-2018 1245,-1871 1266,-1805 1349,-1602 1485,-1267 1499,-830 1498,-633"/>
<ellipse style="fill:#33ff00;stroke:#33ff00;" cx="1498" cy="-629" rx="4" ry="4"/>
</g>
<!-- language&#45;&gt;dialog_settings -->
<g id="edge52" class="edge"><title>language&#45;&gt;dialog_settings</title>
<path style="fill:none;stroke:#33ff00;" d="M784,-2075C774,-2067 763,-2059 751,-2054 674,-2019 439,-2072 375,-2018 295,-1949 225,-1251 199,-954"/>
<ellipse style="fill:#33ff00;stroke:#33ff00;" cx="198.496" cy="-949.969" rx="4.00001" ry="4.00001"/>
</g>
<!-- language&#45;&gt;message -->
<g id="edge36" class="edge"><title>language&#45;&gt;message</title>
<path style="fill:none;stroke:#33ff00;" d="M809,-2060C805,-2046 801,-2032 799,-2018 792,-1981 809,-723 785,-696 695,-596 575,-759 486,-660 425,-592 447,-328 465,-183"/>
<ellipse style="fill:#33ff00;stroke:#33ff00;" cx="465.504" cy="-178.969" rx="4.00001" ry="4.00001"/>
</g>
<!-- language&#45;&gt;html -->
<g id="edge80" class="edge"><title>language&#45;&gt;html</title>
<path style="fill:none;stroke:#33ff00;" d="M865,-2057C868,-2044 871,-2031 874,-2018 901,-1870 921,-1495 936,-1346 943,-1275 907,-1241 953,-1188 991,-1142 1041,-1196 1082,-1152 1116,-1114 1141,-741 1119,-696 1107,-672 1083,-683 1071,-660 1048,-616 1056,-305 1061,-160"/>
<ellipse style="fill:#33ff00;stroke:#33ff00;" cx="1061" cy="-156" rx="4" ry="4"/>
</g>
<!-- language&#45;&gt;atarashii_actions -->
<g id="edge116" class="edge"><title>language&#45;&gt;atarashii_actions</title>
<path style="fill:none;stroke:#33ff00;" d="M884,-2066C891,-2051 898,-2034 903,-2018 904,-2012 962,-1192 966,-1188 1013,-1132 1077,-1206 1127,-1152 1159,-1117 1183,-841 1195,-668"/>
<ellipse style="fill:#33ff00;stroke:#33ff00;" cx="1195.5" cy="-663.969" rx="4.00001" ry="4.00001"/>
</g>
<!-- language&#45;&gt;dialog -->
<g id="edge156" class="edge"><title>language&#45;&gt;dialog</title>
<path style="fill:none;stroke:#33ff00;" d="M784,-2075C774,-2067 763,-2059 751,-2054 575,-1974 504,-2074 319,-2018 298,-2011 276,-2001 257,-1990"/>
<ellipse style="fill:#33ff00;stroke:#33ff00;" cx="253.473" cy="-1987.98" rx="4.00002" ry="4.00002"/>
</g>
<!-- language&#45;&gt;view_menu -->
<g id="edge58" class="edge"><title>language&#45;&gt;view_menu</title>
<path style="fill:none;stroke:#33ff00;" d="M856,-2055C858,-2043 860,-2030 862,-2018 877,-1893 883,-1861 883,-1736 883,-1736 883,-1736 883,-1249 883,-1189 879,-1035 906,-982 916,-960 936,-967 946,-946 968,-895 950,-751 946,-696 944,-672 941,-647 937,-623"/>
<ellipse style="fill:#33ff00;stroke:#33ff00;" cx="936.496" cy="-618.969" rx="4.00001" ry="4.00001"/>
</g>
<!-- language&#45;&gt;gui_helpers -->
<g id="edge66" class="edge"><title>language&#45;&gt;gui_helpers</title>
<path style="fill:none;stroke:#33ff00;" d="M783,-2076C773,-2068 762,-2060 751,-2054 683,-2018 652,-2050 584,-2018 466,-1961 410,-1952 352,-1834 275,-1673 382,-1134 431,-915"/>
<ellipse style="fill:#33ff00;stroke:#33ff00;" cx="432.03" cy="-910.881" rx="4.00001" ry="4.00001"/>
</g>
<!-- language&#45;&gt;text -->
<g id="edge92" class="edge"><title>language&#45;&gt;text</title>
<path style="fill:none;stroke:#33ff00;" d="M823,-2055C821,-2043 819,-2030 818,-2018 762,-1585 738,-1059 731,-882"/>
<ellipse style="fill:#33ff00;stroke:#33ff00;" cx="731" cy="-878" rx="4" ry="4"/>
</g>
<!-- language&#45;&gt;tray -->
<g id="edge128" class="edge"><title>language&#45;&gt;tray</title>
<path style="fill:none;stroke:#33ff00;" d="M794,-2067C786,-2051 778,-2034 773,-2018 635,-1599 618,-1062 616,-882"/>
<ellipse style="fill:#33ff00;stroke:#33ff00;" cx="616" cy="-878" rx="4" ry="4"/>
</g>
<!-- language&#45;&gt;twp -->
<g id="edge74" class="edge"><title>language&#45;&gt;twp</title>
<path style="fill:none;stroke:#33ff00;" d="M849,-2054C857,-1973 868,-1846 868,-1736 868,-1736 868,-1736 868,-1249 868,-1130 869,-1100 878,-982 881,-946 885,-907 889,-876"/>
<ellipse style="fill:#33ff00;stroke:#33ff00;" cx="889.504" cy="-871.969" rx="4.00001" ry="4.00001"/>
</g>
<!-- language&#45;&gt;view_html -->
<g id="edge88" class="edge"><title>language&#45;&gt;view_html</title>
<path style="fill:none;stroke:#33ff00;" d="M834,-2054C829,-1972 823,-1846 823,-1736 823,-1736 823,-1736 823,-1067 823,-984 850,-759 798,-696 756,-645 708,-698 656,-660 637,-646 622,-625 610,-605"/>
<ellipse style="fill:#33ff00;stroke:#33ff00;" cx="607.985" cy="-601.473" rx="4.00002" ry="4.00002"/>
</g>
<!-- language&#45;&gt;view_helpers -->
<g id="edge152" class="edge"><title>language&#45;&gt;view_helpers</title>
<path style="fill:none;stroke:#33ff00;" d="M839,-2054C839,-1972 838,-1846 838,-1736 838,-1736 838,-1736 838,-1067 838,-984 849,-775 828,-696 822,-676 800,-636 779,-601"/>
<ellipse style="fill:#33ff00;stroke:#33ff00;" cx="776.985" cy="-597.473" rx="4.00002" ry="4.00002"/>
</g>
</g>
</svg>
