<?xml version="1.0" encoding="UTF-8" standalone="no"?>
<!DOCTYPE svg PUBLIC "-//W3C//DTD SVG 1.0//EN"
 "http://www.w3.org/TR/2001/REC-SVG-20010904/DTD/svg10.dtd" [
 <!ATTLIST svg xmlns:xlink CDATA #FIXED "http://www.w3.org/1999/xlink">
]>
<!-- Generated by Graphviz version 2.20.2 (Wed Sep 16 11:12:11 UTC 2009)
     For user: (ivo) Ivo Wetzel,,, -->
<!-- Title: dependencies Pages: 1 -->
<svg width="2345pt" height="3362pt"
 viewBox="0.00 0.00 2345.00 3362.00" xmlns="http://www.w3.org/2000/svg" xmlns:xlink="http://www.w3.org/1999/xlink">
<g id="graph0" class="graph" transform="scale(1 1) rotate(0) translate(4 3358)">
<title>dependencies</title>
<polygon style="fill:white;stroke:white;" points="-4,4 -4,-3358 2341,-3358 2341,4 -4,4"/>
<!-- gui -->
<g id="node1" class="node"><title>gui</title>
<ellipse style="fill:#e7ff00;stroke:#e7ff00;stroke-width:2;" cx="648" cy="-2125" rx="108.925" ry="108.925"/>
<text text-anchor="middle" x="648" y="-2137.5" style="font-family:Times New Roman;font-size:45.00;fill:#000000;">gui</text>
<text text-anchor="middle" x="648" y="-2084.5" style="font-family:Times New Roman;font-size:45.00;fill:#000000;">[10](1)</text>
</g>
<!-- atarashii -->
<g id="node2" class="node"><title>atarashii</title>
<ellipse style="fill:#ff0000;stroke:#ff0000;stroke-width:2;" cx="1590" cy="-1851" rx="128.841" ry="128.841"/>
<text text-anchor="middle" x="1590" y="-1863.2" style="font-family:Times New Roman;font-size:42.00;fill:#000000;">atarashii</text>
<text text-anchor="middle" x="1590" y="-1813.2" style="font-family:Times New Roman;font-size:42.00;fill:#000000;">[9](1)</text>
</g>
<!-- gui&#45;&gt;atarashii -->
<g id="edge12" class="edge"><title>gui&#45;&gt;atarashii</title>
<path style="fill:none;stroke:#e7ff00;" d="M753,-2094C925,-2044 1267,-1944 1456,-1890"/>
<polygon style="fill:#e7ff00;stroke:#e7ff00;" points="1457.43,-1893.23 1466,-1887 1455.42,-1886.52 1457.43,-1893.23"/>
</g>
<!-- __init__ -->
<g id="node18" class="node"><title>__init__</title>
<ellipse style="fill:#7f0000;stroke:#7f0000;stroke-width:2;" cx="1353" cy="-1614" rx="72.1249" ry="72.1249"/>
<text text-anchor="middle" x="1353" y="-1621.4" style="font-family:Times New Roman;font-size:24.00;fill:#ffffff;">__init__</text>
<text text-anchor="middle" x="1353" y="-1592.4" style="font-family:Times New Roman;font-size:24.00;fill:#ffffff;">[2](1)</text>
</g>
<!-- atarashii&#45;&gt;__init__ -->
<g id="edge46" class="edge"><title>atarashii&#45;&gt;__init__</title>
<path style="fill:none;stroke:#ff0000;" d="M1499,-1760C1469,-1730 1437,-1698 1410,-1671"/>
<ellipse style="fill:#ff0000;stroke:#ff0000;" cx="1406.83" cy="-1667.83" rx="4.00002" ry="4.00002"/>
</g>
<!-- updater -->
<g id="node3" class="node"><title>updater</title>
<ellipse style="fill:#5c00ff;stroke:#5c00ff;stroke-width:2;" cx="2145" cy="-636" rx="106.773" ry="106.773"/>
<text text-anchor="middle" x="2145" y="-646.4" style="font-family:Times New Roman;font-size:34.00;fill:#000000;">updater</text>
<text text-anchor="middle" x="2145" y="-605.4" style="font-family:Times New Roman;font-size:34.00;fill:#000000;">[6](1)</text>
</g>
<!-- updater&#45;&gt;atarashii -->
<g id="edge20" class="edge"><title>updater&#45;&gt;atarashii</title>
<path style="fill:none;stroke:#5c00ff;" d="M2078,-720C2050,-759 2021,-808 2006,-858 1981,-935 2014,-1144 1990,-1222 1925,-1424 1778,-1628 1682,-1746"/>
<polygon style="fill:#5c00ff;stroke:#5c00ff;" points="1678.95,-1744.17 1675,-1754 1684.22,-1748.78 1678.95,-1744.17"/>
</g>
<!-- view -->
<g id="node4" class="node"><title>view</title>
<ellipse style="fill:#e700ff;stroke:#e700ff;stroke-width:2;" cx="1032" cy="-329" rx="84.8528" ry="84.8528"/>
<text text-anchor="middle" x="1032" y="-339.6" style="font-family:Times New Roman;font-size:36.00;fill:#000000;">view</text>
<text text-anchor="middle" x="1032" y="-296.6" style="font-family:Times New Roman;font-size:36.00;fill:#000000;">[6](2)</text>
</g>
<!-- message -->
<g id="node7" class="node"><title>message</title>
<ellipse style="fill:#007f17;stroke:#007f17;stroke-width:2;" cx="397" cy="-104" rx="103.945" ry="103.945"/>
<text text-anchor="middle" x="397" y="-112.9" style="font-family:Times New Roman;font-size:29.00;fill:#ffffff;">message</text>
<text text-anchor="middle" x="397" y="-77.9" style="font-family:Times New Roman;font-size:29.00;fill:#ffffff;">[4](1)</text>
</g>
<!-- view&#45;&gt;message -->
<g id="edge42" class="edge"><title>view&#45;&gt;message</title>
<path style="fill:none;stroke:#e700ff;" d="M952,-301C839,-260 632,-187 505,-142"/>
<polygon style="fill:#e700ff;stroke:#e700ff;" points="505.584,-138.521 495,-139 503.573,-145.226 505.584,-138.521"/>
</g>
<!-- html -->
<g id="node8" class="node"><title>html</title>
<ellipse style="fill:#2e7f00;stroke:#2e7f00;stroke-width:2;" cx="1393" cy="-104" rx="70.0036" ry="70.0036"/>
<text text-anchor="middle" x="1393" y="-112.9" style="font-family:Times New Roman;font-size:29.00;fill:#ffffff;">html</text>
<text text-anchor="middle" x="1393" y="-77.9" style="font-family:Times New Roman;font-size:29.00;fill:#ffffff;">[4](1)</text>
</g>
<!-- view&#45;&gt;html -->
<g id="edge86" class="edge"><title>view&#45;&gt;html</title>
<path style="fill:none;stroke:#e700ff;" d="M1104,-284C1169,-244 1262,-186 1324,-146"/>
<polygon style="fill:#e700ff;stroke:#e700ff;" points="1325.96,-148.916 1333,-141 1322.56,-142.797 1325.96,-148.916"/>
</g>
<!-- dialog_settings -->
<g id="node5" class="node"><title>dialog_settings</title>
<ellipse style="fill:#737f00;stroke:#737f00;stroke-width:2;" cx="269" cy="-1040" rx="181.934" ry="181.934"/>
<text text-anchor="middle" x="269" y="-1049.2" style="font-family:Times New Roman;font-size:32.00;fill:#ffffff;">dialog_settings</text>
<text text-anchor="middle" x="269" y="-1011.2" style="font-family:Times New Roman;font-size:32.00;fill:#ffffff;">[5](1)</text>
</g>
<!-- gui_events -->
<g id="node14" class="node"><title>gui_events</title>
<ellipse style="fill:#e7ff00;stroke:#e7ff00;stroke-width:2;" cx="537" cy="-636" rx="114.051" ry="114.051"/>
<text text-anchor="middle" x="537" y="-643.7" style="font-family:Times New Roman;font-size:27.00;fill:#000000;">gui_events</text>
<text text-anchor="middle" x="537" y="-611.7" style="font-family:Times New Roman;font-size:27.00;fill:#000000;">[3](1)</text>
</g>
<!-- dialog_settings&#45;&gt;gui_events -->
<g id="edge102" class="edge"><title>dialog_settings&#45;&gt;gui_events</title>
<path style="fill:none;stroke:#737f00;" d="M370,-888C403,-839 439,-785 468,-739"/>
<polygon style="fill:#737f00;stroke:#737f00;" points="470.8,-741.1 474,-731 465.2,-736.9 470.8,-741.1"/>
</g>
<!-- utils -->
<g id="node6" class="node"><title>utils</title>
<ellipse style="fill:#73007f;stroke:#73007f;stroke-width:2;" cx="1197" cy="-1382" rx="123.951" ry="123.951"/>
<text text-anchor="middle" x="1197" y="-1394.6" style="font-family:Times New Roman;font-size:46.00;fill:#ffffff;">utils</text>
<text text-anchor="middle" x="1197" y="-1340.6" style="font-family:Times New Roman;font-size:46.00;fill:#ffffff;">[4](14)</text>
</g>
<!-- utils&#45;&gt;atarashii -->
<g id="edge22" class="edge"><title>utils&#45;&gt;atarashii</title>
<path style="fill:none;stroke:#73007f;" d="M1306,-1442C1347,-1468 1393,-1503 1428,-1542 1475,-1595 1513,-1664 1540,-1723"/>
<ellipse style="fill:#73007f;stroke:#73007f;" cx="1541.6" cy="-1727.25" rx="4.00001" ry="4.00001"/>
</g>
<!-- utils&#45;&gt;updater -->
<g id="edge114" class="edge"><title>utils&#45;&gt;updater</title>
<path style="fill:none;stroke:#73007f;" d="M1305,-1320C1346,-1293 1392,-1259 1428,-1222 1560,-1083 1505,-973 1658,-858 1702,-824 1726,-842 1779,-822 1872,-785 1972,-733 2045,-693"/>
<ellipse style="fill:#73007f;stroke:#73007f;" cx="2048.53" cy="-690.985" rx="4.00002" ry="4.00002"/>
</g>
<!-- utils&#45;&gt;view -->
<g id="edge172" class="edge"><title>utils&#45;&gt;view</title>
<path style="fill:none;stroke:#73007f;" d="M1237,-1264C1241,-1250 1244,-1236 1246,-1222 1257,-1142 1289,-926 1246,-858 1226,-826 1190,-853 1170,-822 1147,-787 1170,-487 1154,-450 1143,-426 1125,-404 1106,-385"/>
<ellipse style="fill:#73007f;stroke:#73007f;" cx="1103.07" cy="-382.561" rx="4.00002" ry="4.00002"/>
</g>
<!-- utils&#45;&gt;dialog_settings -->
<g id="edge58" class="edge"><title>utils&#45;&gt;dialog_settings</title>
<path style="fill:none;stroke:#73007f;" d="M1074,-1365C940,-1343 721,-1298 545,-1222 504,-1203 460,-1179 422,-1154"/>
<ellipse style="fill:#73007f;stroke:#73007f;" cx="418.255" cy="-1151.32" rx="4.00002" ry="4.00002"/>
</g>
<!-- utils&#45;&gt;message -->
<g id="edge40" class="edge"><title>utils&#45;&gt;message</title>
<path style="fill:none;stroke:#73007f;" d="M1219,-1260C1221,-1247 1223,-1234 1224,-1222 1227,-1181 1251,-887 1224,-858 1139,-767 757,-910 670,-822 642,-792 668,-488 654,-450 617,-346 538,-248 478,-183"/>
<ellipse style="fill:#73007f;stroke:#73007f;" cx="474.828" cy="-179.828" rx="4.00002" ry="4.00002"/>
</g>
<!-- utils&#45;&gt;html -->
<g id="edge84" class="edge"><title>utils&#45;&gt;html</title>
<path style="fill:none;stroke:#73007f;" d="M1246,-1268C1251,-1253 1256,-1237 1260,-1222 1279,-1143 1253,-925 1300,-858 1319,-829 1351,-851 1370,-822 1387,-794 1386,-276 1388,-244 1389,-224 1390,-202 1390,-182"/>
<ellipse style="fill:#73007f;stroke:#73007f;" cx="1390" cy="-178" rx="4" ry="4"/>
</g>
<!-- view_menu -->
<g id="node11" class="node"><title>view_menu</title>
<ellipse style="fill:#e700ff;stroke:#e700ff;stroke-width:2;" cx="1032" cy="-636" rx="118.794" ry="118.794"/>
<text text-anchor="middle" x="1032" y="-643.7" style="font-family:Times New Roman;font-size:27.00;fill:#000000;">view_menu</text>
<text text-anchor="middle" x="1032" y="-611.7" style="font-family:Times New Roman;font-size:27.00;fill:#000000;">[3](1)</text>
</g>
<!-- utils&#45;&gt;view_menu -->
<g id="edge64" class="edge"><title>utils&#45;&gt;view_menu</title>
<path style="fill:none;stroke:#73007f;" d="M1230,-1262C1233,-1249 1235,-1235 1237,-1222 1241,-1181 1258,-891 1237,-858 1215,-825 1186,-847 1157,-822 1132,-801 1111,-774 1093,-748"/>
<ellipse style="fill:#73007f;stroke:#73007f;" cx="1090.32" cy="-744.255" rx="4.00002" ry="4.00002"/>
</g>
<!-- gui_helpers -->
<g id="node12" class="node"><title>gui_helpers</title>
<ellipse style="fill:#e7ff00;stroke:#e7ff00;stroke-width:2;" cx="808" cy="-1040" rx="121.122" ry="121.122"/>
<text text-anchor="middle" x="808" y="-1047.7" style="font-family:Times New Roman;font-size:27.00;fill:#000000;">gui_helpers</text>
<text text-anchor="middle" x="808" y="-1015.7" style="font-family:Times New Roman;font-size:27.00;fill:#000000;">[3](1)</text>
</g>
<!-- utils&#45;&gt;gui_helpers -->
<g id="edge70" class="edge"><title>utils&#45;&gt;gui_helpers</title>
<path style="fill:none;stroke:#73007f;" d="M1088,-1323C1042,-1296 990,-1261 948,-1222 924,-1200 901,-1174 881,-1148"/>
<ellipse style="fill:#73007f;stroke:#73007f;" cx="878.325" cy="-1144.25" rx="4.00002" ry="4.00002"/>
</g>
<!-- text -->
<g id="node13" class="node"><title>text</title>
<ellipse style="fill:#00b9ff;stroke:#00b9ff;stroke-width:2;" cx="1155" cy="-1040" rx="65.7609" ry="65.7609"/>
<text text-anchor="middle" x="1155" y="-1047.7" style="font-family:Times New Roman;font-size:27.00;fill:#000000;">text</text>
<text text-anchor="middle" x="1155" y="-1015.7" style="font-family:Times New Roman;font-size:27.00;fill:#000000;">[3](1)</text>
</g>
<!-- utils&#45;&gt;text -->
<g id="edge96" class="edge"><title>utils&#45;&gt;text</title>
<path style="fill:none;stroke:#73007f;" d="M1182,-1259C1176,-1210 1170,-1156 1164,-1114"/>
<ellipse style="fill:#73007f;stroke:#73007f;" cx="1163.5" cy="-1109.97" rx="4.00001" ry="4.00001"/>
</g>
<!-- tray -->
<g id="node15" class="node"><title>tray</title>
<ellipse style="fill:#00177f;stroke:#00177f;stroke-width:2;" cx="614" cy="-1040" rx="65.7609" ry="65.7609"/>
<text text-anchor="middle" x="614" y="-1047.7" style="font-family:Times New Roman;font-size:27.00;fill:#ffffff;">tray</text>
<text text-anchor="middle" x="614" y="-1015.7" style="font-family:Times New Roman;font-size:27.00;fill:#ffffff;">[3](1)</text>
</g>
<!-- utils&#45;&gt;tray -->
<g id="edge132" class="edge"><title>utils&#45;&gt;tray</title>
<path style="fill:none;stroke:#73007f;" d="M1076,-1357C943,-1327 741,-1275 684,-1222 654,-1193 636,-1150 627,-1113"/>
<ellipse style="fill:#73007f;stroke:#73007f;" cx="625.97" cy="-1108.88" rx="4.00001" ry="4.00001"/>
</g>
<!-- updater_tweet -->
<g id="node16" class="node"><title>updater_tweet</title>
<ellipse style="fill:#5c00ff;stroke:#5c00ff;stroke-width:2;" cx="2145" cy="-1040" rx="135.765" ry="135.765"/>
<text text-anchor="middle" x="2145" y="-1047.4" style="font-family:Times New Roman;font-size:24.00;fill:#000000;">updater_tweet</text>
<text text-anchor="middle" x="2145" y="-1018.4" style="font-family:Times New Roman;font-size:24.00;fill:#000000;">[2](1)</text>
</g>
<!-- utils&#45;&gt;updater_tweet -->
<g id="edge4" class="edge"><title>utils&#45;&gt;updater_tweet</title>
<path style="fill:none;stroke:#73007f;" d="M1320,-1367C1514,-1342 1878,-1288 1990,-1222 2018,-1205 2042,-1183 2064,-1159"/>
<ellipse style="fill:#73007f;stroke:#73007f;" cx="2066.44" cy="-1156.07" rx="4.00002" ry="4.00002"/>
</g>
<!-- send -->
<g id="node19" class="node"><title>send</title>
<ellipse style="fill:#007f5c;stroke:#007f5c;stroke-width:2;" cx="1364" cy="-1040" rx="61.0181" ry="61.0181"/>
<text text-anchor="middle" x="1364" y="-1046.5" style="font-family:Times New Roman;font-size:25.00;fill:#ffffff;">send</text>
<text text-anchor="middle" x="1364" y="-1017.5" style="font-family:Times New Roman;font-size:25.00;fill:#ffffff;">[2](2)</text>
</g>
<!-- utils&#45;&gt;send -->
<g id="edge74" class="edge"><title>utils&#45;&gt;send</title>
<path style="fill:none;stroke:#73007f;" d="M1256,-1273C1265,-1256 1274,-1238 1282,-1222 1301,-1183 1321,-1138 1337,-1103"/>
<ellipse style="fill:#73007f;stroke:#73007f;" cx="1338.42" cy="-1099.68" rx="4.00002" ry="4.00002"/>
</g>
<!-- twp -->
<g id="node20" class="node"><title>twp</title>
<ellipse style="fill:#2e007f;stroke:#2e007f;stroke-width:2;" cx="1009" cy="-1040" rx="57.9828" ry="57.9828"/>
<text text-anchor="middle" x="1009" y="-1047.4" style="font-family:Times New Roman;font-size:24.00;fill:#ffffff;">twp</text>
<text text-anchor="middle" x="1009" y="-1018.4" style="font-family:Times New Roman;font-size:24.00;fill:#ffffff;">[2](1)</text>
</g>
<!-- utils&#45;&gt;twp -->
<g id="edge78" class="edge"><title>utils&#45;&gt;twp</title>
<path style="fill:none;stroke:#73007f;" d="M1123,-1282C1110,-1263 1097,-1242 1086,-1222 1065,-1184 1046,-1138 1032,-1103"/>
<ellipse style="fill:#73007f;stroke:#73007f;" cx="1030.4" cy="-1098.75" rx="4.00001" ry="4.00001"/>
</g>
<!-- updater_message -->
<g id="node23" class="node"><title>updater_message</title>
<ellipse style="fill:#5c00ff;stroke:#5c00ff;stroke-width:2;" cx="1824" cy="-1040" rx="162.842" ry="162.842"/>
<text text-anchor="middle" x="1824" y="-1047.4" style="font-family:Times New Roman;font-size:24.00;fill:#000000;">updater_message</text>
<text text-anchor="middle" x="1824" y="-1018.4" style="font-family:Times New Roman;font-size:24.00;fill:#000000;">[2](1)</text>
</g>
<!-- utils&#45;&gt;updater_message -->
<g id="edge166" class="edge"><title>utils&#45;&gt;updater_message</title>
<path style="fill:none;stroke:#73007f;" d="M1319,-1357C1415,-1332 1551,-1290 1655,-1222 1676,-1208 1697,-1191 1715,-1173"/>
<ellipse style="fill:#73007f;stroke:#73007f;" cx="1718.17" cy="-1169.83" rx="4.00002" ry="4.00002"/>
</g>
<!-- message&#45;&gt;gui -->
<g id="edge146" class="edge"><title>message&#45;&gt;gui</title>
<path style="fill:none;stroke:#007f17;" d="M378,-207C357,-350 335,-617 420,-822 429,-842 446,-837 454,-858 556,-1086 458,-1745 544,-1980 551,-1998 561,-2016 571,-2033"/>
<polygon style="fill:#007f17;stroke:#007f17;" points="568.541,-2035.62 577,-2042 574.365,-2031.74 568.541,-2035.62"/>
</g>
<!-- html&#45;&gt;gui -->
<g id="edge142" class="edge"><title>html&#45;&gt;gui</title>
<path style="fill:none;stroke:#2e7f00;" d="M1391,-174C1387,-343 1380,-762 1401,-822 1407,-840 1421,-839 1428,-858 1479,-1011 1504,-1079 1428,-1222 1414,-1247 1390,-1234 1374,-1258 1311,-1351 1396,-1419 1324,-1506 1296,-1539 1259,-1507 1233,-1542 1193,-1593 1248,-1629 1217,-1686 1210,-1697 849,-1971 838,-1980 807,-2004 773,-2029 743,-2053"/>
<polygon style="fill:#2e7f00;stroke:#2e7f00;" points="740.9,-2050.2 735,-2059 745.1,-2055.8 740.9,-2050.2"/>
</g>
<!-- atarashii_actions -->
<g id="node9" class="node"><title>atarashii_actions</title>
<ellipse style="fill:#ff0000;stroke:#ff0000;stroke-width:2;" cx="1590" cy="-636" rx="186.176" ry="186.176"/>
<text text-anchor="middle" x="1590" y="-644.9" style="font-family:Times New Roman;font-size:29.00;fill:#000000;">atarashii_actions</text>
<text text-anchor="middle" x="1590" y="-609.9" style="font-family:Times New Roman;font-size:29.00;fill:#000000;">[4](1)</text>
</g>
<!-- atarashii_actions&#45;&gt;atarashii -->
<g id="edge6" class="edge"><title>atarashii_actions&#45;&gt;atarashii</title>
<path style="fill:none;stroke:#ff0000;" d="M1590,-822C1590,-1068 1590,-1495 1590,-1714"/>
<ellipse style="fill:#ff0000;stroke:#ff0000;" cx="1590" cy="-1718" rx="4" ry="4"/>
</g>
<!-- dialog -->
<g id="node10" class="node"><title>dialog</title>
<ellipse style="fill:#737f00;stroke:#737f00;stroke-width:2;" cx="269" cy="-2350" rx="80.1095" ry="80.1095"/>
<text text-anchor="middle" x="269" y="-2359.2" style="font-family:Times New Roman;font-size:32.00;fill:#ffffff;">dialog</text>
<text text-anchor="middle" x="269" y="-2321.2" style="font-family:Times New Roman;font-size:32.00;fill:#ffffff;">[4](3)</text>
</g>
<!-- dialog&#45;&gt;gui -->
<g id="edge136" class="edge"><title>dialog&#45;&gt;gui</title>
<path style="fill:none;stroke:#737f00;" d="M340,-2313C382,-2291 436,-2262 482,-2234 504,-2221 527,-2206 549,-2191"/>
<polygon style="fill:#737f00;stroke:#737f00;" points="550.958,-2193.92 558,-2186 547.559,-2187.8 550.958,-2193.92"/>
</g>
<!-- dialog&#45;&gt;dialog_settings -->
<g id="edge52" class="edge"><title>dialog&#45;&gt;dialog_settings</title>
<path style="fill:none;stroke:#737f00;" d="M269,-2270C269,-2171 269,-1998 269,-1851 269,-1851 269,-1851 269,-1614 269,-1486 269,-1342 269,-1230"/>
<ellipse style="fill:#737f00;stroke:#737f00;" cx="269" cy="-1226" rx="4" ry="4"/>
</g>
<!-- dialog&#45;&gt;gui_events -->
<g id="edge100" class="edge"><title>dialog&#45;&gt;gui_events</title>
<path style="fill:none;stroke:#737f00;" d="M297,-2275C342,-2154 428,-1905 467,-1686 499,-1511 522,-999 533,-760"/>
<polygon style="fill:#737f00;stroke:#737f00;" points="536.5,-760 533,-750 529.5,-760 536.5,-760"/>
</g>
<!-- view_menu&#45;&gt;view -->
<g id="edge178" class="edge"><title>view_menu&#45;&gt;view</title>
<path style="fill:none;stroke:#e700ff;" d="M1032,-517C1032,-486 1032,-452 1032,-422"/>
<ellipse style="fill:#e700ff;stroke:#e700ff;" cx="1032" cy="-418" rx="4" ry="4"/>
</g>
<!-- gui_helpers&#45;&gt;gui -->
<g id="edge140" class="edge"><title>gui_helpers&#45;&gt;gui</title>
<path style="fill:none;stroke:#e7ff00;" d="M790,-1160C759,-1370 696,-1801 665,-2009"/>
<ellipse style="fill:#e7ff00;stroke:#e7ff00;" cx="664.496" cy="-2013.03" rx="4.00001" ry="4.00001"/>
</g>
<!-- text&#45;&gt;gui -->
<g id="edge150" class="edge"><title>text&#45;&gt;gui</title>
<path style="fill:none;stroke:#00b9ff;" d="M1130,-1101C1115,-1137 1093,-1183 1070,-1222 1059,-1239 1049,-1239 1042,-1258 998,-1360 1043,-1400 1007,-1506 939,-1705 804,-1912 720,-2029"/>
<polygon style="fill:#00b9ff;stroke:#00b9ff;" points="717.2,-2026.9 714,-2037 722.8,-2031.1 717.2,-2026.9"/>
</g>
<!-- gui_events&#45;&gt;gui -->
<g id="edge138" class="edge"><title>gui_events&#45;&gt;gui</title>
<path style="fill:none;stroke:#e7ff00;" d="M537,-750C537,-897 537,-1158 537,-1382 537,-1614 537,-1614 537,-1614 537,-1754 578,-1911 610,-2014"/>
<ellipse style="fill:#e7ff00;stroke:#e7ff00;" cx="611.03" cy="-2018.12" rx="4.00001" ry="4.00001"/>
</g>
<!-- tray&#45;&gt;gui -->
<g id="edge152" class="edge"><title>tray&#45;&gt;gui</title>
<path style="fill:none;stroke:#00177f;" d="M616,-1106C622,-1284 638,-1777 645,-2006"/>
<polygon style="fill:#00177f;stroke:#00177f;" points="641.5,-2006 645,-2016 648.5,-2006 641.5,-2006"/>
</g>
<!-- updater_tweet&#45;&gt;updater -->
<g id="edge112" class="edge"><title>updater_tweet&#45;&gt;updater</title>
<path style="fill:none;stroke:#5c00ff;" d="M2145,-904C2145,-855 2145,-799 2145,-751"/>
<ellipse style="fill:#5c00ff;stroke:#5c00ff;" cx="2145" cy="-747" rx="4" ry="4"/>
</g>
<!-- notify -->
<g id="node17" class="node"><title>notify</title>
<ellipse style="fill:#00ff2e;stroke:#00ff2e;stroke-width:2;" cx="1380" cy="-2350" rx="58.8978" ry="58.8978"/>
<text text-anchor="middle" x="1380" y="-2357.4" style="font-family:Times New Roman;font-size:24.00;fill:#000000;">notify</text>
<text text-anchor="middle" x="1380" y="-2328.4" style="font-family:Times New Roman;font-size:24.00;fill:#000000;">[2](1)</text>
</g>
<!-- notify&#45;&gt;atarashii -->
<g id="edge16" class="edge"><title>notify&#45;&gt;atarashii</title>
<path style="fill:none;stroke:#00ff2e;" d="M1419,-2305C1431,-2292 1445,-2279 1460,-2270 1495,-2246 1523,-2268 1548,-2234 1576,-2194 1560,-2064 1566,-2016 1567,-2007 1568,-1998 1569,-1989"/>
<polygon style="fill:#00ff2e;stroke:#00ff2e;" points="1572.49,-1989.3 1570,-1979 1565.52,-1988.6 1572.49,-1989.3"/>
</g>
<!-- __init__&#45;&gt;utils -->
<g id="edge24" class="edge"><title>__init__&#45;&gt;utils</title>
<path style="fill:none;stroke:#7f0000;" d="M1313,-1554C1300,-1535 1285,-1513 1271,-1492"/>
<ellipse style="fill:#7f0000;stroke:#7f0000;" cx="1268.32" cy="-1488.25" rx="4.00002" ry="4.00002"/>
</g>
<!-- send&#45;&gt;atarashii_actions -->
<g id="edge120" class="edge"><title>send&#45;&gt;atarashii_actions</title>
<path style="fill:none;stroke:#007f5c;" d="M1387,-983C1402,-947 1423,-898 1446,-858 1456,-839 1468,-818 1481,-799"/>
<polygon style="fill:#007f5c;stroke:#007f5c;" points="1484.2,-800.441 1486,-790 1478.08,-797.042 1484.2,-800.441"/>
</g>
<!-- send&#45;&gt;view_menu -->
<g id="edge62" class="edge"><title>send&#45;&gt;view_menu</title>
<path style="fill:none;stroke:#007f5c;" d="M1340,-983C1321,-944 1291,-892 1252,-858 1221,-831 1201,-846 1170,-822 1144,-801 1120,-774 1100,-746"/>
<polygon style="fill:#007f5c;stroke:#007f5c;" points="1102.8,-743.9 1094,-738 1097.2,-748.1 1102.8,-743.9"/>
</g>
<!-- twp&#45;&gt;view -->
<g id="edge170" class="edge"><title>twp&#45;&gt;view</title>
<path style="fill:none;stroke:#2e007f;" d="M996,-983C986,-946 969,-896 945,-858 933,-839 918,-842 910,-822 895,-783 895,-488 910,-450 920,-426 937,-404 956,-386"/>
<polygon style="fill:#2e007f;stroke:#2e007f;" points="958.404,-388.546 963,-379 953.454,-383.596 958.404,-388.546"/>
</g>
<!-- view_html -->
<g id="node21" class="node"><title>view_html</title>
<ellipse style="fill:#e700ff;stroke:#e700ff;stroke-width:2;" cx="1270" cy="-636" rx="97.0803" ry="97.0803"/>
<text text-anchor="middle" x="1270" y="-643.4" style="font-family:Times New Roman;font-size:24.00;fill:#000000;">view_html</text>
<text text-anchor="middle" x="1270" y="-614.4" style="font-family:Times New Roman;font-size:24.00;fill:#000000;">[2](1)</text>
</g>
<!-- view_html&#45;&gt;view -->
<g id="edge176" class="edge"><title>view_html&#45;&gt;view</title>
<path style="fill:none;stroke:#e700ff;" d="M1229,-548C1212,-516 1190,-480 1167,-450 1149,-427 1126,-405 1105,-386"/>
<ellipse style="fill:#e700ff;stroke:#e700ff;" cx="1102.07" cy="-383.561" rx="4.00002" ry="4.00002"/>
</g>
<!-- settings -->
<g id="node22" class="node"><title>settings</title>
<ellipse style="fill:#00ffb9;stroke:#00ffb9;stroke-width:2;" cx="1299" cy="-2886" rx="111.93" ry="111.93"/>
<text text-anchor="middle" x="1299" y="-2896.6" style="font-family:Times New Roman;font-size:36.00;fill:#000000;">settings</text>
<text text-anchor="middle" x="1299" y="-2853.6" style="font-family:Times New Roman;font-size:36.00;fill:#000000;">[2](10)</text>
</g>
<!-- settings&#45;&gt;gui -->
<g id="edge148" class="edge"><title>settings&#45;&gt;gui</title>
<path style="fill:none;stroke:#00ffb9;" d="M1188,-2873C1035,-2853 774,-2808 712,-2738 681,-2702 662,-2410 653,-2242"/>
<ellipse style="fill:#00ffb9;stroke:#00ffb9;" cx="653" cy="-2238" rx="4" ry="4"/>
</g>
<!-- settings&#45;&gt;atarashii -->
<g id="edge18" class="edge"><title>settings&#45;&gt;atarashii</title>
<path style="fill:none;stroke:#00ffb9;" d="M1350,-2786C1411,-2661 1512,-2437 1560,-2234 1578,-2155 1585,-2064 1589,-1990"/>
<polygon style="fill:#00ffb9;stroke:#00ffb9;" points="1592.5,-1990 1589,-1980 1585.5,-1990 1592.5,-1990"/>
</g>
<!-- settings&#45;&gt;updater -->
<g id="edge108" class="edge"><title>settings&#45;&gt;updater</title>
<path style="fill:none;stroke:#00ffb9;" d="M1411,-2878C1674,-2853 2307,-2752 2307,-2350 2307,-2350 2307,-2350 2307,-1382 2307,-1265 2331,-968 2296,-858 2280,-809 2250,-761 2221,-723"/>
<ellipse style="fill:#00ffb9;stroke:#00ffb9;" cx="2218.32" cy="-719.255" rx="4.00002" ry="4.00002"/>
</g>
<!-- settings&#45;&gt;dialog_settings -->
<g id="edge56" class="edge"><title>settings&#45;&gt;dialog_settings</title>
<path style="fill:none;stroke:#00ffb9;" d="M1187,-2880C970,-2866 502,-2827 370,-2738 132,-2576 163,-2412 163,-2125 163,-2125 163,-2125 163,-1614 163,-1481 191,-1335 217,-1223"/>
<ellipse style="fill:#00ffb9;stroke:#00ffb9;" cx="218.03" cy="-1218.88" rx="4.00001" ry="4.00001"/>
</g>
<!-- settings&#45;&gt;utils -->
<g id="edge28" class="edge"><title>settings&#45;&gt;utils</title>
<path style="fill:none;stroke:#00ffb9;" d="M1295,-2774C1285,-2543 1259,-1997 1217,-1542 1216,-1533 1215,-1523 1214,-1513"/>
<ellipse style="fill:#00ffb9;stroke:#00ffb9;" cx="1213.5" cy="-1508.97" rx="4.00001" ry="4.00001"/>
</g>
<!-- settings&#45;&gt;atarashii_actions -->
<g id="edge122" class="edge"><title>settings&#45;&gt;atarashii_actions</title>
<path style="fill:none;stroke:#00ffb9;" d="M1375,-2803C1394,-2782 1415,-2759 1434,-2738 1555,-2602 1627,-2595 1705,-2430 1762,-2306 1745,-2261 1745,-2125 1745,-2125 1745,-2125 1745,-1851 1745,-1792 1736,-1778 1722,-1722 1697,-1624 1673,-1604 1651,-1506 1623,-1381 1625,-1348 1615,-1222 1604,-1091 1597,-944 1594,-830"/>
<ellipse style="fill:#00ffb9;stroke:#00ffb9;" cx="1594" cy="-826" rx="4" ry="4"/>
</g>
<!-- settings&#45;&gt;dialog -->
<g id="edge160" class="edge"><title>settings&#45;&gt;dialog</title>
<path style="fill:none;stroke:#00ffb9;" d="M1187,-2875C1061,-2860 851,-2823 692,-2738 540,-2656 399,-2506 324,-2419"/>
<ellipse style="fill:#00ffb9;stroke:#00ffb9;" cx="321.561" cy="-2416.07" rx="4.00002" ry="4.00002"/>
</g>
<!-- settings&#45;&gt;notify -->
<g id="edge32" class="edge"><title>settings&#45;&gt;notify</title>
<path style="fill:none;stroke:#00ffb9;" d="M1316,-2775C1333,-2667 1357,-2506 1370,-2416"/>
<ellipse style="fill:#00ffb9;stroke:#00ffb9;" cx="1370.5" cy="-2411.97" rx="4.00001" ry="4.00001"/>
</g>
<!-- settings&#45;&gt;__init__ -->
<g id="edge48" class="edge"><title>settings&#45;&gt;__init__</title>
<path style="fill:none;stroke:#00ffb9;" d="M1303,-2774C1306,-2666 1310,-2496 1310,-2350 1310,-2350 1310,-2350 1310,-2125 1310,-1972 1329,-1794 1342,-1693"/>
<ellipse style="fill:#00ffb9;stroke:#00ffb9;" cx="1342.5" cy="-1688.97" rx="4.00001" ry="4.00001"/>
</g>
<!-- sounds -->
<g id="node24" class="node"><title>sounds</title>
<ellipse style="fill:#005c7f;stroke:#005c7f;stroke-width:2;" cx="787" cy="-2602" rx="72.1249" ry="72.1249"/>
<text text-anchor="middle" x="787" y="-2609.4" style="font-family:Times New Roman;font-size:24.00;fill:#ffffff;">sounds</text>
<text text-anchor="middle" x="787" y="-2580.4" style="font-family:Times New Roman;font-size:24.00;fill:#ffffff;">[1](3)</text>
</g>
<!-- settings&#45;&gt;sounds -->
<g id="edge44" class="edge"><title>settings&#45;&gt;sounds</title>
<path style="fill:none;stroke:#00ffb9;" d="M1188,-2871C1092,-2854 954,-2816 860,-2738 841,-2722 825,-2699 814,-2677"/>
<ellipse style="fill:#00ffb9;stroke:#00ffb9;" cx="811.985" cy="-2673.47" rx="4.00002" ry="4.00002"/>
</g>
<!-- updater_message&#45;&gt;updater -->
<g id="edge110" class="edge"><title>updater_message&#45;&gt;updater</title>
<path style="fill:none;stroke:#5c00ff;" d="M1926,-912C1974,-851 2030,-781 2073,-726"/>
<ellipse style="fill:#5c00ff;stroke:#5c00ff;" cx="2075.44" cy="-723.073" rx="4.00002" ry="4.00002"/>
</g>
<!-- sounds&#45;&gt;dialog -->
<g id="edge162" class="edge"><title>sounds&#45;&gt;dialog</title>
<path style="fill:none;stroke:#005c7f;" d="M749,-2541C729,-2514 703,-2484 672,-2466 606,-2426 577,-2450 502,-2430 453,-2416 397,-2397 353,-2381"/>
<polygon style="fill:#005c7f;stroke:#005c7f;" points="354.594,-2377.84 344,-2378 352.38,-2384.48 354.594,-2377.84"/>
</g>
<!-- sounds&#45;&gt;notify -->
<g id="edge34" class="edge"><title>sounds&#45;&gt;notify</title>
<path style="fill:none;stroke:#005c7f;" d="M811,-2534C823,-2509 840,-2483 863,-2466 933,-2413 1188,-2374 1311,-2358"/>
<polygon style="fill:#005c7f;stroke:#005c7f;" points="1311.4,-2361.48 1321,-2357 1310.7,-2354.51 1311.4,-2361.48"/>
</g>
<!-- sounds&#45;&gt;settings -->
<g id="edge126" class="edge"><title>sounds&#45;&gt;settings</title>
<path style="fill:none;stroke:#005c7f;" d="M816,-2668C828,-2693 845,-2719 867,-2738 956,-2812 1086,-2850 1180,-2868"/>
<ellipse style="fill:#005c7f;stroke:#005c7f;" cx="1184.12" cy="-2869.03" rx="4.00001" ry="4.00001"/>
</g>
<!-- view_helpers -->
<g id="node25" class="node"><title>view_helpers</title>
<ellipse style="fill:#e700ff;stroke:#e700ff;stroke-width:2;" cx="782" cy="-636" rx="108.894" ry="108.894"/>
<text text-anchor="middle" x="782" y="-642.1" style="font-family:Times New Roman;font-size:21.00;fill:#000000;">view_helpers</text>
<text text-anchor="middle" x="782" y="-617.1" style="font-family:Times New Roman;font-size:21.00;fill:#000000;">[1](1)</text>
</g>
<!-- view_helpers&#45;&gt;view -->
<g id="edge174" class="edge"><title>view_helpers&#45;&gt;view</title>
<path style="fill:none;stroke:#e700ff;" d="M834,-540C852,-510 874,-477 897,-450 915,-428 938,-406 959,-387"/>
<ellipse style="fill:#e700ff;stroke:#e700ff;" cx="961.927" cy="-384.561" rx="4.00002" ry="4.00002"/>
</g>
<!-- tweepy -->
<g id="node26" class="node"><title>tweepy</title>
<ellipse style="fill:#002eff;stroke:#002eff;stroke-width:2;" cx="1151" cy="-1614" rx="58.9293" ry="58.9293"/>
<ellipse style="fill:none;stroke:#002eff;stroke-width:2;" cx="1151" cy="-1614" rx="62.8978" ry="62.8978"/>
<text text-anchor="middle" x="1151" y="-1619.9" style="font-family:Times New Roman;font-size:19.00;fill:#000000;">tweepy</text>
<text text-anchor="middle" x="1151" y="-1596.9" style="font-family:Times New Roman;font-size:19.00;fill:#000000;">(1)</text>
</g>
<!-- tweepy&#45;&gt;utils -->
<g id="edge30" class="edge"><title>tweepy&#45;&gt;utils</title>
<path style="fill:none;stroke:#002eff;" d="M1163,-1552C1165,-1540 1168,-1527 1171,-1514"/>
<polygon style="fill:#002eff;stroke:#002eff;" points="1174.47,-1514.49 1173,-1504 1167.61,-1513.12 1174.47,-1514.49"/>
</g>
<!-- bus -->
<g id="node27" class="node"><title>bus</title>
<ellipse style="fill:#7f4500;stroke:#7f4500;stroke-width:2;" cx="1503" cy="-2125" rx="38.1838" ry="38.1838"/>
<ellipse style="fill:none;stroke:#7f4500;stroke-width:2;" cx="1503" cy="-2125" rx="42.1838" ry="42.1838"/>
<text text-anchor="middle" x="1503" y="-2130.9" style="font-family:Times New Roman;font-size:19.00;fill:#ffffff;">bus</text>
<text text-anchor="middle" x="1503" y="-2107.9" style="font-family:Times New Roman;font-size:19.00;fill:#ffffff;">(1)</text>
</g>
<!-- bus&#45;&gt;atarashii -->
<g id="edge8" class="edge"><title>bus&#45;&gt;atarashii</title>
<path style="fill:none;stroke:#7f4500;" d="M1516,-2085C1524,-2058 1536,-2021 1548,-1984"/>
<polygon style="fill:#7f4500;stroke:#7f4500;" points="1551.48,-1984.58 1551,-1974 1544.77,-1982.57 1551.48,-1984.58"/>
</g>
<!-- constants -->
<g id="node28" class="node"><title>constants</title>
<ellipse style="fill:#ff8b00;stroke:#ff8b00;stroke-width:2;" cx="1176" cy="-3194" rx="155.784" ry="155.784"/>
<ellipse style="fill:none;stroke:#ff8b00;stroke-width:2;" cx="1176" cy="-3194" rx="159.771" ry="159.771"/>
<text text-anchor="middle" x="1176" y="-3206.2" style="font-family:Times New Roman;font-size:42.00;fill:#000000;">constants</text>
<text text-anchor="middle" x="1176" y="-3156.2" style="font-family:Times New Roman;font-size:42.00;fill:#000000;">(19)</text>
</g>
<!-- constants&#45;&gt;gui -->
<g id="edge134" class="edge"><title>constants&#45;&gt;gui</title>
<path style="fill:none;stroke:#ff8b00;" d="M1037,-3114C916,-3035 748,-2903 669,-2738 594,-2578 607,-2368 626,-2240"/>
<ellipse style="fill:#ff8b00;stroke:#ff8b00;" cx="626.504" cy="-2235.97" rx="4.00001" ry="4.00001"/>
</g>
<!-- constants&#45;&gt;atarashii -->
<g id="edge10" class="edge"><title>constants&#45;&gt;atarashii</title>
<path style="fill:none;stroke:#ff8b00;" d="M1317,-3118C1477,-3022 1715,-2838 1715,-2602 1715,-2602 1715,-2602 1715,-2350 1715,-2220 1675,-2078 1641,-1979"/>
<ellipse style="fill:#ff8b00;stroke:#ff8b00;" cx="1639.4" cy="-1974.75" rx="4.00001" ry="4.00001"/>
</g>
<!-- constants&#45;&gt;updater -->
<g id="edge104" class="edge"><title>constants&#45;&gt;updater</title>
<path style="fill:none;stroke:#ff8b00;" d="M1336,-3184C1651,-3155 2322,-3040 2322,-2602 2322,-2602 2322,-2602 2322,-1382 2322,-1265 2347,-968 2310,-858 2292,-807 2259,-757 2225,-718"/>
<ellipse style="fill:#ff8b00;stroke:#ff8b00;" cx="2222.56" cy="-715.073" rx="4.00002" ry="4.00002"/>
</g>
<!-- constants&#45;&gt;view -->
<g id="edge168" class="edge"><title>constants&#45;&gt;view</title>
<path style="fill:none;stroke:#ff8b00;" d="M1017,-3172C832,-3142 541,-3083 474,-2998 366,-2859 462,-2778 462,-2602 462,-2602 462,-2602 462,-1382 462,-1149 542,-1073 454,-858 446,-837 429,-842 420,-822 359,-668 316,-577 420,-450 485,-370 784,-343 939,-333"/>
<ellipse style="fill:#ff8b00;stroke:#ff8b00;" cx="943" cy="-333" rx="4" ry="4"/>
</g>
<!-- constants&#45;&gt;dialog_settings -->
<g id="edge50" class="edge"><title>constants&#45;&gt;dialog_settings</title>
<path style="fill:none;stroke:#ff8b00;" d="M1017,-3174C802,-3145 431,-3083 327,-2998 178,-2875 148,-2795 148,-2602 148,-2602 148,-2602 148,-1614 148,-1455 131,-1411 169,-1258 173,-1243 178,-1226 184,-1211"/>
<ellipse style="fill:#ff8b00;stroke:#ff8b00;" cx="185.595" cy="-1206.75" rx="4.00001" ry="4.00001"/>
</g>
<!-- constants&#45;&gt;utils -->
<g id="edge26" class="edge"><title>constants&#45;&gt;utils</title>
<path style="fill:none;stroke:#ff8b00;" d="M1176,-3034C1176,-2915 1176,-2748 1176,-2602 1176,-2602 1176,-2602 1176,-2125 1176,-1945 1247,-1873 1151,-1722 1133,-1693 1102,-1714 1085,-1686 1068,-1658 1075,-1572 1085,-1542 1091,-1522 1101,-1502 1112,-1484"/>
<ellipse style="fill:#ff8b00;stroke:#ff8b00;" cx="1114.68" cy="-1480.25" rx="4.00002" ry="4.00002"/>
</g>
<!-- constants&#45;&gt;message -->
<g id="edge36" class="edge"><title>constants&#45;&gt;message</title>
<path style="fill:none;stroke:#ff8b00;" d="M1016,-3189C741,-3177 195,-3135 71,-2998 -46,-2866 46,-2778 46,-2602 46,-2602 46,-2602 46,-636 46,-458 10,-378 126,-244 169,-194 234,-159 290,-137"/>
<ellipse style="fill:#ff8b00;stroke:#ff8b00;" cx="294.255" cy="-135.405" rx="4.00001" ry="4.00001"/>
</g>
<!-- constants&#45;&gt;html -->
<g id="edge80" class="edge"><title>constants&#45;&gt;html</title>
<path style="fill:none;stroke:#ff8b00;" d="M1335,-3178C1580,-3152 2032,-3091 2164,-2998 2320,-2886 2337,-2794 2337,-2602 2337,-2602 2337,-2602 2337,-636 2337,-239 1697,-136 1471,-111"/>
<ellipse style="fill:#ff8b00;stroke:#ff8b00;" cx="1466.97" cy="-110.496" rx="4.00001" ry="4.00001"/>
</g>
<!-- constants&#45;&gt;atarashii_actions -->
<g id="edge116" class="edge"><title>constants&#45;&gt;atarashii_actions</title>
<path style="fill:none;stroke:#ff8b00;" d="M1329,-3148C1413,-3117 1514,-3068 1585,-2998 1720,-2861 1760,-2794 1760,-2602 1760,-2602 1760,-2602 1760,-1851 1760,-1567 1699,-1502 1658,-1222 1638,-1091 1621,-944 1609,-829"/>
<ellipse style="fill:#ff8b00;stroke:#ff8b00;" cx="1608.5" cy="-824.969" rx="4.00001" ry="4.00001"/>
</g>
<!-- constants&#45;&gt;dialog -->
<g id="edge156" class="edge"><title>constants&#45;&gt;dialog</title>
<path style="fill:none;stroke:#ff8b00;" d="M1018,-3169C831,-3137 537,-3076 457,-2998 304,-2846 274,-2577 269,-2438"/>
<ellipse style="fill:#ff8b00;stroke:#ff8b00;" cx="269" cy="-2434" rx="4" ry="4"/>
</g>
<!-- constants&#45;&gt;gui_helpers -->
<g id="edge66" class="edge"><title>constants&#45;&gt;gui_helpers</title>
<path style="fill:none;stroke:#ff8b00;" d="M1019,-3163C915,-3135 782,-3085 693,-2998 556,-2863 522,-2793 522,-2602 522,-2602 522,-2602 522,-1851 522,-1588 657,-1303 742,-1151"/>
<ellipse style="fill:#ff8b00;stroke:#ff8b00;" cx="744.015" cy="-1147.47" rx="4.00002" ry="4.00002"/>
</g>
<!-- constants&#45;&gt;text -->
<g id="edge92" class="edge"><title>constants&#45;&gt;text</title>
<path style="fill:none;stroke:#ff8b00;" d="M1170,-3034C1164,-2886 1154,-2661 1141,-2466 1117,-2118 1089,-2033 1072,-1686 1068,-1606 1070,-1586 1070,-1506 1069,-1395 1049,-1366 1070,-1258 1075,-1228 1102,-1160 1125,-1108"/>
<ellipse style="fill:#ff8b00;stroke:#ff8b00;" cx="1126.42" cy="-1104.68" rx="4.00002" ry="4.00002"/>
</g>
<!-- constants&#45;&gt;gui_events -->
<g id="edge98" class="edge"><title>constants&#45;&gt;gui_events</title>
<path style="fill:none;stroke:#ff8b00;" d="M1016,-3184C763,-3164 286,-3113 166,-2998 37,-2872 76,-2782 76,-2602 76,-2602 76,-2602 76,-1382 76,-1265 22,-956 84,-858 157,-743 309,-685 417,-658"/>
<ellipse style="fill:#ff8b00;stroke:#ff8b00;" cx="421.119" cy="-656.97" rx="4.00001" ry="4.00001"/>
</g>
<!-- constants&#45;&gt;tray -->
<g id="edge128" class="edge"><title>constants&#45;&gt;tray</title>
<path style="fill:none;stroke:#ff8b00;" d="M1018,-3165C851,-3132 603,-3071 541,-2998 428,-2862 492,-2779 492,-2602 492,-2602 492,-2602 492,-2350 492,-1990 490,-1898 537,-1542 557,-1389 586,-1211 602,-1113"/>
<ellipse style="fill:#ff8b00;stroke:#ff8b00;" cx="602.504" cy="-1108.97" rx="4.00001" ry="4.00001"/>
</g>
<!-- constants&#45;&gt;updater_tweet -->
<g id="edge2" class="edge"><title>constants&#45;&gt;updater_tweet</title>
<path style="fill:none;stroke:#ff8b00;" d="M1335,-3176C1471,-3154 1665,-3105 1799,-2998 1957,-2870 2027,-2805 2027,-2602 2027,-2602 2027,-2602 2027,-1614 2027,-1462 2067,-1293 2101,-1177"/>
<ellipse style="fill:#ff8b00;stroke:#ff8b00;" cx="2102.03" cy="-1172.88" rx="4.00001" ry="4.00001"/>
</g>
<!-- constants&#45;&gt;send -->
<g id="edge72" class="edge"><title>constants&#45;&gt;send</title>
<path style="fill:none;stroke:#ff8b00;" d="M1322,-3128C1374,-3096 1426,-3053 1455,-2998 1460,-2988 1451,-1852 1428,-1542 1416,-1385 1390,-1204 1375,-1108"/>
<ellipse style="fill:#ff8b00;stroke:#ff8b00;" cx="1374.5" cy="-1103.97" rx="4.00001" ry="4.00001"/>
</g>
<!-- constants&#45;&gt;view_html -->
<g id="edge88" class="edge"><title>constants&#45;&gt;view_html</title>
<path style="fill:none;stroke:#ff8b00;" d="M1313,-3111C1352,-3080 1390,-3042 1414,-2998 1455,-2919 1450,-2690 1450,-2602 1450,-2602 1450,-2602 1450,-2125 1450,-1984 1473,-991 1428,-858 1421,-839 1412,-838 1401,-822 1378,-789 1352,-754 1330,-723"/>
<ellipse style="fill:#ff8b00;stroke:#ff8b00;" cx="1327.32" cy="-719.255" rx="4.00002" ry="4.00002"/>
</g>
<!-- constants&#45;&gt;settings -->
<g id="edge124" class="edge"><title>constants&#45;&gt;settings</title>
<path style="fill:none;stroke:#ff8b00;" d="M1236,-3045C1242,-3029 1249,-3013 1255,-2998"/>
<ellipse style="fill:#ff8b00;stroke:#ff8b00;" cx="1256.6" cy="-2993.75" rx="4.00001" ry="4.00001"/>
</g>
<!-- constants&#45;&gt;updater_message -->
<g id="edge164" class="edge"><title>constants&#45;&gt;updater_message</title>
<path style="fill:none;stroke:#ff8b00;" d="M1333,-3162C1488,-3127 1710,-3067 1765,-2998 1874,-2859 1799,-2778 1799,-2602 1799,-2602 1799,-2602 1799,-1614 1799,-1478 1806,-1324 1813,-1211"/>
<ellipse style="fill:#ff8b00;stroke:#ff8b00;" cx="1813" cy="-1207" rx="4" ry="4"/>
</g>
<!-- language -->
<g id="node29" class="node"><title>language</title>
<ellipse style="fill:#5cff00;stroke:#5cff00;stroke-width:2;" cx="1002" cy="-2602" rx="132.229" ry="132.229"/>
<ellipse style="fill:none;stroke:#5cff00;stroke-width:2;" cx="1002" cy="-2602" rx="136.229" ry="136.229"/>
<text text-anchor="middle" x="1002" y="-2612.7" style="font-family:Times New Roman;font-size:37.00;fill:#000000;">language</text>
<text text-anchor="middle" x="1002" y="-2568.7" style="font-family:Times New Roman;font-size:37.00;fill:#000000;">(15)</text>
</g>
<!-- language&#45;&gt;gui -->
<g id="edge144" class="edge"><title>language&#45;&gt;gui</title>
<path style="fill:none;stroke:#5cff00;" d="M910,-2502C894,-2489 878,-2476 862,-2466 823,-2441 797,-2462 763,-2430 762,-2429 722,-2321 689,-2235"/>
<ellipse style="fill:#5cff00;stroke:#5cff00;" cx="687.405" cy="-2230.75" rx="4.00001" ry="4.00001"/>
</g>
<!-- language&#45;&gt;atarashii -->
<g id="edge14" class="edge"><title>language&#45;&gt;atarashii</title>
<path style="fill:none;stroke:#5cff00;" d="M1126,-2546C1177,-2518 1233,-2479 1270,-2430 1314,-2370 1289,-2338 1318,-2270 1367,-2151 1386,-2123 1458,-2016 1472,-1996 1487,-1975 1501,-1955"/>
<ellipse style="fill:#5cff00;stroke:#5cff00;" cx="1503.44" cy="-1952.07" rx="4.00002" ry="4.00002"/>
</g>
<!-- language&#45;&gt;updater -->
<g id="edge106" class="edge"><title>language&#45;&gt;updater</title>
<path style="fill:none;stroke:#5cff00;" d="M1137,-2583C1316,-2555 1619,-2500 1705,-2430 2167,-2054 2152,-1802 2284,-1222 2301,-1143 2306,-935 2284,-858 2270,-811 2243,-764 2217,-726"/>
<ellipse style="fill:#5cff00;stroke:#5cff00;" cx="2214.32" cy="-722.255" rx="4.00002" ry="4.00002"/>
</g>
<!-- language&#45;&gt;dialog_settings -->
<g id="edge54" class="edge"><title>language&#45;&gt;dialog_settings</title>
<path style="fill:none;stroke:#5cff00;" d="M911,-2500C896,-2487 879,-2475 862,-2466 800,-2431 767,-2466 705,-2430 607,-2370 588,-2336 536,-2234 371,-1905 306,-1474 283,-1230"/>
<ellipse style="fill:#5cff00;stroke:#5cff00;" cx="282.496" cy="-1225.97" rx="4.00001" ry="4.00001"/>
</g>
<!-- language&#45;&gt;message -->
<g id="edge38" class="edge"><title>language&#45;&gt;message</title>
<path style="fill:none;stroke:#5cff00;" d="M914,-2499C898,-2485 880,-2474 862,-2466 794,-2435 241,-2482 186,-2430 75,-2322 61,-1195 61,-1040 61,-1040 61,-1040 61,-636 61,-448 212,-273 312,-178"/>
<ellipse style="fill:#5cff00;stroke:#5cff00;" cx="315.172" cy="-174.828" rx="4.00002" ry="4.00002"/>
</g>
<!-- language&#45;&gt;html -->
<g id="edge82" class="edge"><title>language&#45;&gt;html</title>
<path style="fill:none;stroke:#5cff00;" d="M1135,-2574C1229,-2548 1353,-2504 1442,-2430 1623,-2279 1657,-2206 1722,-1980 1753,-1869 1729,-1836 1722,-1722 1709,-1529 1542,-1012 1658,-858 1691,-813 1745,-866 1779,-822 1877,-689 1846,-600 1779,-450 1714,-304 1554,-195 1462,-141"/>
<ellipse style="fill:#5cff00;stroke:#5cff00;" cx="1458.47" cy="-138.985" rx="4.00002" ry="4.00002"/>
</g>
<!-- language&#45;&gt;atarashii_actions -->
<g id="edge118" class="edge"><title>language&#45;&gt;atarashii_actions</title>
<path style="fill:none;stroke:#5cff00;" d="M1051,-2475C1057,-2460 1062,-2445 1067,-2430 1095,-2344 1099,-2321 1122,-2234 1150,-2121 1154,-2092 1180,-1980 1190,-1931 1245,-1579 1278,-1542 1306,-1508 1341,-1539 1371,-1506 1537,-1319 1581,-1024 1591,-830"/>
<ellipse style="fill:#5cff00;stroke:#5cff00;" cx="1591" cy="-826" rx="4" ry="4"/>
</g>
<!-- language&#45;&gt;dialog -->
<g id="edge158" class="edge"><title>language&#45;&gt;dialog</title>
<path style="fill:none;stroke:#5cff00;" d="M913,-2499C897,-2486 880,-2474 862,-2466 717,-2398 660,-2464 502,-2430 451,-2419 395,-2399 351,-2383"/>
<ellipse style="fill:#5cff00;stroke:#5cff00;" cx="346.745" cy="-2381.4" rx="4.00001" ry="4.00001"/>
</g>
<!-- language&#45;&gt;view_menu -->
<g id="edge60" class="edge"><title>language&#45;&gt;view_menu</title>
<path style="fill:none;stroke:#5cff00;" d="M1015,-2467C1023,-2371 1032,-2240 1032,-2125 1032,-2125 1032,-2125 1032,-1614 1032,-1455 984,-1406 1040,-1258 1047,-1238 1062,-1241 1070,-1222 1097,-1145 1076,-938 1070,-858 1067,-827 1062,-793 1057,-761"/>
<ellipse style="fill:#5cff00;stroke:#5cff00;" cx="1056.5" cy="-756.969" rx="4.00001" ry="4.00001"/>
</g>
<!-- language&#45;&gt;gui_helpers -->
<g id="edge68" class="edge"><title>language&#45;&gt;gui_helpers</title>
<path style="fill:none;stroke:#5cff00;" d="M938,-2482C893,-2388 842,-2251 841,-2125 841,-2125 841,-2125 841,-1614 842,-1461 830,-1285 820,-1169"/>
<ellipse style="fill:#5cff00;stroke:#5cff00;" cx="819.496" cy="-1164.97" rx="4.00001" ry="4.00001"/>
</g>
<!-- language&#45;&gt;text -->
<g id="edge94" class="edge"><title>language&#45;&gt;text</title>
<path style="fill:none;stroke:#5cff00;" d="M1031,-2469C1033,-2456 1035,-2443 1037,-2430 1052,-2295 1047,-2260 1047,-2125 1047,-2125 1047,-2125 1047,-1614 1047,-1534 1031,-1332 1057,-1258 1063,-1239 1073,-1239 1083,-1222 1102,-1187 1118,-1145 1131,-1111"/>
<ellipse style="fill:#5cff00;stroke:#5cff00;" cx="1132.6" cy="-1106.75" rx="4.00001" ry="4.00001"/>
</g>
<!-- language&#45;&gt;tray -->
<g id="edge130" class="edge"><title>language&#45;&gt;tray</title>
<path style="fill:none;stroke:#5cff00;" d="M908,-2503C891,-2481 874,-2456 862,-2430 807,-2308 665,-1384 625,-1114"/>
<ellipse style="fill:#5cff00;stroke:#5cff00;" cx="624.496" cy="-1109.97" rx="4.00001" ry="4.00001"/>
</g>
<!-- language&#45;&gt;twp -->
<g id="edge76" class="edge"><title>language&#45;&gt;twp</title>
<path style="fill:none;stroke:#5cff00;" d="M1002,-2466C1002,-2370 1002,-2240 1002,-2125 1002,-2125 1002,-2125 1002,-1614 1002,-1430 1006,-1213 1008,-1106"/>
<ellipse style="fill:#5cff00;stroke:#5cff00;" cx="1008" cy="-1102" rx="4" ry="4"/>
</g>
<!-- language&#45;&gt;view_html -->
<g id="edge90" class="edge"><title>language&#45;&gt;view_html</title>
<path style="fill:none;stroke:#5cff00;" d="M1036,-2470C1039,-2456 1043,-2443 1046,-2430 1052,-2405 1249,-1562 1265,-1542 1283,-1517 1308,-1532 1324,-1506 1377,-1409 1355,-1363 1324,-1258 1318,-1239 1306,-1240 1300,-1222 1272,-1136 1268,-886 1269,-741"/>
<ellipse style="fill:#5cff00;stroke:#5cff00;" cx="1269" cy="-737" rx="4" ry="4"/>
</g>
<!-- language&#45;&gt;view_helpers -->
<g id="edge154" class="edge"><title>language&#45;&gt;view_helpers</title>
<path style="fill:none;stroke:#5cff00;" d="M975,-2468C959,-2373 940,-2241 940,-2125 940,-2125 940,-2125 940,-1382 940,-1323 953,-912 932,-858 923,-837 913,-839 899,-822 879,-795 859,-765 841,-737"/>
<ellipse style="fill:#5cff00;stroke:#5cff00;" cx="838.985" cy="-733.473" rx="4.00002" ry="4.00002"/>
</g>
</g>
</svg>
