<?xml version="1.0" encoding="UTF-8" standalone="no"?>
<!DOCTYPE svg PUBLIC "-//W3C//DTD SVG 1.0//EN"
 "http://www.w3.org/TR/2001/REC-SVG-20010904/DTD/svg10.dtd" [
 <!ATTLIST svg xmlns:xlink CDATA #FIXED "http://www.w3.org/1999/xlink">
]>
<!-- Generated by Graphviz version 2.20.2 (Wed Sep 16 11:12:11 UTC 2009)
     For user: (ivo) Ivo Wetzel,,, -->
<!-- Title: dependencies Pages: 1 -->
<svg width="2454pt" height="3554pt"
 viewBox="0.00 0.00 2454.00 3554.00" xmlns="http://www.w3.org/2000/svg" xmlns:xlink="http://www.w3.org/1999/xlink">
<g id="graph0" class="graph" transform="scale(1 1) rotate(0) translate(4 3550)">
<title>dependencies</title>
<polygon style="fill:white;stroke:white;" points="-4,4 -4,-3550 2450,-3550 2450,4 -4,4"/>
<!-- gui -->
<g id="node1" class="node"><title>gui</title>
<ellipse style="fill:#e7ff00;stroke:#e7ff00;stroke-width:2;" cx="729" cy="-2244" rx="131.993" ry="131.993"/>
<text text-anchor="middle" x="729" y="-2256.5" style="font-family:Times New Roman;font-size:45.00;fill:#000000;">gui</text>
<text text-anchor="middle" x="729" y="-2203.5" style="font-family:Times New Roman;font-size:45.00;fill:#000000;">~[10](1)</text>
</g>
<!-- atarashii -->
<g id="node2" class="node"><title>atarashii</title>
<ellipse style="fill:#ff0000;stroke:#ff0000;stroke-width:2;" cx="1699" cy="-1947" rx="128.841" ry="128.841"/>
<text text-anchor="middle" x="1699" y="-1959.2" style="font-family:Times New Roman;font-size:42.00;fill:#000000;">atarashii</text>
<text text-anchor="middle" x="1699" y="-1909.2" style="font-family:Times New Roman;font-size:42.00;fill:#000000;">~[9](1)</text>
</g>
<!-- gui&#45;&gt;atarashii -->
<g id="edge12" class="edge"><title>gui&#45;&gt;atarashii</title>
<path style="fill:none;stroke:#e7ff00;" d="M855,-2205C1039,-2149 1378,-2046 1565,-1988"/>
<polygon style="fill:#e7ff00;stroke:#e7ff00;" points="1566.43,-1991.23 1575,-1985 1564.42,-1984.52 1566.43,-1991.23"/>
</g>
<!-- __init__ -->
<g id="node18" class="node"><title>__init__</title>
<ellipse style="fill:#7f0000;stroke:#7f0000;stroke-width:2;" cx="1455" cy="-1710" rx="72.1249" ry="72.1249"/>
<text text-anchor="middle" x="1455" y="-1717.4" style="font-family:Times New Roman;font-size:24.00;fill:#ffffff;">__init__</text>
<text text-anchor="middle" x="1455" y="-1688.4" style="font-family:Times New Roman;font-size:24.00;fill:#ffffff;">~[2](1)</text>
</g>
<!-- atarashii&#45;&gt;__init__ -->
<g id="edge46" class="edge"><title>atarashii&#45;&gt;__init__</title>
<path style="fill:none;stroke:#ff0000;" d="M1606,-1857C1574,-1826 1541,-1793 1513,-1766"/>
<ellipse style="fill:#ff0000;stroke:#ff0000;" cx="1509.83" cy="-1762.83" rx="4.00002" ry="4.00002"/>
</g>
<!-- updater -->
<g id="node3" class="node"><title>updater</title>
<ellipse style="fill:#5c00ff;stroke:#5c00ff;stroke-width:2;" cx="2254" cy="-678" rx="106.773" ry="106.773"/>
<text text-anchor="middle" x="2254" y="-688.4" style="font-family:Times New Roman;font-size:34.00;fill:#000000;">updater</text>
<text text-anchor="middle" x="2254" y="-647.4" style="font-family:Times New Roman;font-size:34.00;fill:#000000;">~[6](1)</text>
</g>
<!-- updater&#45;&gt;atarashii -->
<g id="edge20" class="edge"><title>updater&#45;&gt;atarashii</title>
<path style="fill:none;stroke:#5c00ff;" d="M2187,-762C2159,-801 2130,-850 2115,-900 2090,-977 2121,-1186 2099,-1264 2033,-1484 1883,-1709 1785,-1838"/>
<polygon style="fill:#5c00ff;stroke:#5c00ff;" points="1782.2,-1835.9 1779,-1846 1787.8,-1840.1 1782.2,-1835.9"/>
</g>
<!-- view -->
<g id="node4" class="node"><title>view</title>
<ellipse style="fill:#e700ff;stroke:#e700ff;stroke-width:2;" cx="1141" cy="-350" rx="106.066" ry="106.066"/>
<text text-anchor="middle" x="1141" y="-360.6" style="font-family:Times New Roman;font-size:36.00;fill:#000000;">view</text>
<text text-anchor="middle" x="1141" y="-317.6" style="font-family:Times New Roman;font-size:36.00;fill:#000000;">~[6](2)</text>
</g>
<!-- message -->
<g id="node7" class="node"><title>message</title>
<ellipse style="fill:#007f17;stroke:#007f17;stroke-width:2;" cx="403" cy="-104" rx="103.945" ry="103.945"/>
<text text-anchor="middle" x="403" y="-112.9" style="font-family:Times New Roman;font-size:29.00;fill:#ffffff;">message</text>
<text text-anchor="middle" x="403" y="-77.9" style="font-family:Times New Roman;font-size:29.00;fill:#ffffff;">~[4](1)</text>
</g>
<!-- view&#45;&gt;message -->
<g id="edge42" class="edge"><title>view&#45;&gt;message</title>
<path style="fill:none;stroke:#e700ff;" d="M1040,-316C901,-270 653,-188 512,-140"/>
<polygon style="fill:#e700ff;stroke:#e700ff;" points="512.584,-136.521 502,-137 510.573,-143.226 512.584,-136.521"/>
</g>
<!-- html -->
<g id="node8" class="node"><title>html</title>
<ellipse style="fill:#2e7f00;stroke:#2e7f00;stroke-width:2;" cx="1502" cy="-104" rx="86.9741" ry="86.9741"/>
<text text-anchor="middle" x="1502" y="-112.9" style="font-family:Times New Roman;font-size:29.00;fill:#ffffff;">html</text>
<text text-anchor="middle" x="1502" y="-77.9" style="font-family:Times New Roman;font-size:29.00;fill:#ffffff;">~[4](1)</text>
</g>
<!-- view&#45;&gt;html -->
<g id="edge86" class="edge"><title>view&#45;&gt;html</title>
<path style="fill:none;stroke:#e700ff;" d="M1229,-290C1288,-250 1364,-197 1422,-159"/>
<polygon style="fill:#e700ff;stroke:#e700ff;" points="1424.1,-161.8 1430,-153 1419.9,-156.2 1424.1,-161.8"/>
</g>
<!-- dialog_settings -->
<g id="node5" class="node"><title>dialog_settings</title>
<ellipse style="fill:#737f00;stroke:#737f00;stroke-width:2;" cx="275" cy="-1082" rx="181.934" ry="181.934"/>
<text text-anchor="middle" x="275" y="-1091.2" style="font-family:Times New Roman;font-size:32.00;fill:#ffffff;">dialog_settings</text>
<text text-anchor="middle" x="275" y="-1053.2" style="font-family:Times New Roman;font-size:32.00;fill:#ffffff;">~[5](1)</text>
</g>
<!-- gui_events -->
<g id="node14" class="node"><title>gui_events</title>
<ellipse style="fill:#e7ff00;stroke:#e7ff00;stroke-width:2;" cx="543" cy="-678" rx="114.051" ry="114.051"/>
<text text-anchor="middle" x="543" y="-685.7" style="font-family:Times New Roman;font-size:27.00;fill:#000000;">gui_events</text>
<text text-anchor="middle" x="543" y="-653.7" style="font-family:Times New Roman;font-size:27.00;fill:#000000;">~[3](1)</text>
</g>
<!-- dialog_settings&#45;&gt;gui_events -->
<g id="edge102" class="edge"><title>dialog_settings&#45;&gt;gui_events</title>
<path style="fill:none;stroke:#737f00;" d="M376,-930C409,-881 445,-827 474,-781"/>
<polygon style="fill:#737f00;stroke:#737f00;" points="476.8,-783.1 480,-773 471.2,-778.9 476.8,-783.1"/>
</g>
<!-- utils -->
<g id="node6" class="node"><title>utils</title>
<ellipse style="fill:#73007f;stroke:#73007f;stroke-width:2;" cx="1326" cy="-1451" rx="150.821" ry="150.821"/>
<text text-anchor="middle" x="1326" y="-1463.6" style="font-family:Times New Roman;font-size:46.00;fill:#ffffff;">utils</text>
<text text-anchor="middle" x="1326" y="-1409.6" style="font-family:Times New Roman;font-size:46.00;fill:#ffffff;">~[4](14)</text>
</g>
<!-- utils&#45;&gt;atarashii -->
<g id="edge22" class="edge"><title>utils&#45;&gt;atarashii</title>
<path style="fill:none;stroke:#73007f;" d="M1443,-1546C1474,-1574 1505,-1606 1530,-1638 1574,-1694 1613,-1763 1642,-1822"/>
<ellipse style="fill:#73007f;stroke:#73007f;" cx="1644.02" cy="-1825.53" rx="4.00002" ry="4.00002"/>
</g>
<!-- utils&#45;&gt;updater -->
<g id="edge114" class="edge"><title>utils&#45;&gt;updater</title>
<path style="fill:none;stroke:#73007f;" d="M1448,-1362C1484,-1333 1522,-1299 1552,-1264 1673,-1121 1618,-1015 1767,-900 1811,-865 1835,-884 1888,-864 1981,-827 2081,-775 2154,-735"/>
<ellipse style="fill:#73007f;stroke:#73007f;" cx="2157.53" cy="-732.985" rx="4.00002" ry="4.00002"/>
</g>
<!-- utils&#45;&gt;view -->
<g id="edge172" class="edge"><title>utils&#45;&gt;view</title>
<path style="fill:none;stroke:#73007f;" d="M1340,-1300C1341,-1288 1341,-1276 1342,-1264 1345,-1183 1382,-969 1342,-900 1325,-872 1295,-891 1279,-864 1257,-828 1278,-530 1263,-492 1254,-469 1240,-448 1224,-428"/>
<ellipse style="fill:#73007f;stroke:#73007f;" cx="1221.56" cy="-425.073" rx="4.00002" ry="4.00002"/>
</g>
<!-- utils&#45;&gt;dialog_settings -->
<g id="edge58" class="edge"><title>utils&#45;&gt;dialog_settings</title>
<path style="fill:none;stroke:#73007f;" d="M1176,-1431C1016,-1405 758,-1354 551,-1264 510,-1245 466,-1221 428,-1196"/>
<ellipse style="fill:#73007f;stroke:#73007f;" cx="424.255" cy="-1193.32" rx="4.00002" ry="4.00002"/>
</g>
<!-- utils&#45;&gt;message -->
<g id="edge40" class="edge"><title>utils&#45;&gt;message</title>
<path style="fill:none;stroke:#73007f;" d="M1329,-1300C1331,-1142 1332,-914 1318,-900 1235,-812 874,-937 779,-864 643,-757 736,-648 660,-492 608,-383 529,-269 472,-193"/>
<ellipse style="fill:#73007f;stroke:#73007f;" cx="469.325" cy="-189.255" rx="4.00002" ry="4.00002"/>
</g>
<!-- utils&#45;&gt;html -->
<g id="edge84" class="edge"><title>utils&#45;&gt;html</title>
<path style="fill:none;stroke:#73007f;" d="M1349,-1302C1351,-1289 1352,-1276 1354,-1264 1364,-1183 1345,-965 1394,-900 1418,-867 1455,-897 1479,-864 1498,-835 1495,-278 1497,-244 1498,-230 1498,-214 1499,-199"/>
<ellipse style="fill:#73007f;stroke:#73007f;" cx="1499" cy="-195" rx="4" ry="4"/>
</g>
<!-- view_menu -->
<g id="node11" class="node"><title>view_menu</title>
<ellipse style="fill:#e700ff;stroke:#e700ff;stroke-width:2;" cx="1141" cy="-678" rx="118.794" ry="118.794"/>
<text text-anchor="middle" x="1141" y="-685.7" style="font-family:Times New Roman;font-size:27.00;fill:#000000;">view_menu</text>
<text text-anchor="middle" x="1141" y="-653.7" style="font-family:Times New Roman;font-size:27.00;fill:#000000;">~[3](1)</text>
</g>
<!-- utils&#45;&gt;view_menu -->
<g id="edge64" class="edge"><title>utils&#45;&gt;view_menu</title>
<path style="fill:none;stroke:#73007f;" d="M1335,-1300C1343,-1149 1351,-933 1331,-900 1314,-871 1290,-886 1266,-864 1242,-842 1221,-816 1204,-789"/>
<ellipse style="fill:#73007f;stroke:#73007f;" cx="1201.32" cy="-785.255" rx="4.00002" ry="4.00002"/>
</g>
<!-- gui_helpers -->
<g id="node12" class="node"><title>gui_helpers</title>
<ellipse style="fill:#e7ff00;stroke:#e7ff00;stroke-width:2;" cx="844" cy="-1082" rx="121.122" ry="121.122"/>
<text text-anchor="middle" x="844" y="-1089.7" style="font-family:Times New Roman;font-size:27.00;fill:#000000;">gui_helpers</text>
<text text-anchor="middle" x="844" y="-1057.7" style="font-family:Times New Roman;font-size:27.00;fill:#000000;">~[3](1)</text>
</g>
<!-- utils&#45;&gt;gui_helpers -->
<g id="edge70" class="edge"><title>utils&#45;&gt;gui_helpers</title>
<path style="fill:none;stroke:#73007f;" d="M1187,-1391C1121,-1359 1044,-1316 984,-1264 959,-1243 936,-1216 916,-1191"/>
<ellipse style="fill:#73007f;stroke:#73007f;" cx="913.325" cy="-1187.25" rx="4.00002" ry="4.00002"/>
</g>
<!-- text -->
<g id="node13" class="node"><title>text</title>
<ellipse style="fill:#00b9ff;stroke:#00b9ff;stroke-width:2;" cx="1234" cy="-1082" rx="80.8184" ry="80.8184"/>
<text text-anchor="middle" x="1234" y="-1089.7" style="font-family:Times New Roman;font-size:27.00;fill:#000000;">text</text>
<text text-anchor="middle" x="1234" y="-1057.7" style="font-family:Times New Roman;font-size:27.00;fill:#000000;">~[3](1)</text>
</g>
<!-- utils&#45;&gt;text -->
<g id="edge96" class="edge"><title>utils&#45;&gt;text</title>
<path style="fill:none;stroke:#73007f;" d="M1289,-1304C1278,-1258 1266,-1209 1256,-1169"/>
<ellipse style="fill:#73007f;stroke:#73007f;" cx="1254.97" cy="-1164.88" rx="4.00001" ry="4.00001"/>
</g>
<!-- tray -->
<g id="node15" class="node"><title>tray</title>
<ellipse style="fill:#00177f;stroke:#00177f;stroke-width:2;" cx="635" cy="-1082" rx="80.8184" ry="80.8184"/>
<text text-anchor="middle" x="635" y="-1089.7" style="font-family:Times New Roman;font-size:27.00;fill:#ffffff;">tray</text>
<text text-anchor="middle" x="635" y="-1057.7" style="font-family:Times New Roman;font-size:27.00;fill:#ffffff;">~[3](1)</text>
</g>
<!-- utils&#45;&gt;tray -->
<g id="edge132" class="edge"><title>utils&#45;&gt;tray</title>
<path style="fill:none;stroke:#73007f;" d="M1175,-1439C1042,-1420 848,-1375 720,-1264 691,-1239 672,-1202 659,-1168"/>
<ellipse style="fill:#73007f;stroke:#73007f;" cx="657.405" cy="-1163.75" rx="4.00001" ry="4.00001"/>
</g>
<!-- updater_tweet -->
<g id="node16" class="node"><title>updater_tweet</title>
<ellipse style="fill:#5c00ff;stroke:#5c00ff;stroke-width:2;" cx="2254" cy="-1082" rx="135.765" ry="135.765"/>
<text text-anchor="middle" x="2254" y="-1089.4" style="font-family:Times New Roman;font-size:24.00;fill:#000000;">updater_tweet</text>
<text text-anchor="middle" x="2254" y="-1060.4" style="font-family:Times New Roman;font-size:24.00;fill:#000000;">~[2](1)</text>
</g>
<!-- utils&#45;&gt;updater_tweet -->
<g id="edge4" class="edge"><title>utils&#45;&gt;updater_tweet</title>
<path style="fill:none;stroke:#73007f;" d="M1477,-1442C1641,-1426 1905,-1383 2099,-1264 2126,-1247 2150,-1225 2172,-1201"/>
<ellipse style="fill:#73007f;stroke:#73007f;" cx="2174.44" cy="-1198.07" rx="4.00002" ry="4.00002"/>
</g>
<!-- send -->
<g id="node19" class="node"><title>send</title>
<ellipse style="fill:#007f5c;stroke:#007f5c;stroke-width:2;" cx="1473" cy="-1082" rx="75.8684" ry="75.8684"/>
<text text-anchor="middle" x="1473" y="-1088.5" style="font-family:Times New Roman;font-size:25.00;fill:#ffffff;">send</text>
<text text-anchor="middle" x="1473" y="-1059.5" style="font-family:Times New Roman;font-size:25.00;fill:#ffffff;">~[2](2)</text>
</g>
<!-- utils&#45;&gt;send -->
<g id="edge74" class="edge"><title>utils&#45;&gt;send</title>
<path style="fill:none;stroke:#73007f;" d="M1382,-1311C1402,-1260 1424,-1204 1442,-1161"/>
<ellipse style="fill:#73007f;stroke:#73007f;" cx="1443.6" cy="-1156.75" rx="4.00001" ry="4.00001"/>
</g>
<!-- twp -->
<g id="node20" class="node"><title>twp</title>
<ellipse style="fill:#2e007f;stroke:#2e007f;stroke-width:2;" cx="1059" cy="-1082" rx="72.1249" ry="72.1249"/>
<text text-anchor="middle" x="1059" y="-1089.4" style="font-family:Times New Roman;font-size:24.00;fill:#ffffff;">twp</text>
<text text-anchor="middle" x="1059" y="-1060.4" style="font-family:Times New Roman;font-size:24.00;fill:#ffffff;">~[2](1)</text>
</g>
<!-- utils&#45;&gt;twp -->
<g id="edge78" class="edge"><title>utils&#45;&gt;twp</title>
<path style="fill:none;stroke:#73007f;" d="M1217,-1346C1194,-1320 1170,-1292 1150,-1264 1127,-1231 1106,-1190 1090,-1157"/>
<ellipse style="fill:#73007f;stroke:#73007f;" cx="1088.4" cy="-1152.75" rx="4.00001" ry="4.00001"/>
</g>
<!-- updater_message -->
<g id="node23" class="node"><title>updater_message</title>
<ellipse style="fill:#5c00ff;stroke:#5c00ff;stroke-width:2;" cx="1933" cy="-1082" rx="162.842" ry="162.842"/>
<text text-anchor="middle" x="1933" y="-1089.4" style="font-family:Times New Roman;font-size:24.00;fill:#000000;">updater_message</text>
<text text-anchor="middle" x="1933" y="-1060.4" style="font-family:Times New Roman;font-size:24.00;fill:#000000;">~[2](1)</text>
</g>
<!-- utils&#45;&gt;updater_message -->
<g id="edge166" class="edge"><title>utils&#45;&gt;updater_message</title>
<path style="fill:none;stroke:#73007f;" d="M1470,-1406C1560,-1375 1674,-1327 1764,-1264 1785,-1250 1805,-1232 1823,-1214"/>
<ellipse style="fill:#73007f;stroke:#73007f;" cx="1826.17" cy="-1210.83" rx="4.00002" ry="4.00002"/>
</g>
<!-- message&#45;&gt;gui -->
<g id="edge146" class="edge"><title>message&#45;&gt;gui</title>
<path style="fill:none;stroke:#007f17;" d="M384,-206C361,-357 335,-644 426,-864 435,-884 452,-879 460,-900 567,-1139 443,-1838 555,-2076 569,-2106 591,-2134 615,-2158"/>
<polygon style="fill:#007f17;stroke:#007f17;" points="613.169,-2161.05 623,-2165 617.779,-2155.78 613.169,-2161.05"/>
</g>
<!-- html&#45;&gt;gui -->
<g id="edge142" class="edge"><title>html&#45;&gt;gui</title>
<path style="fill:none;stroke:#2e7f00;" d="M1501,-191C1499,-384 1496,-833 1510,-864 1520,-886 1541,-877 1552,-900 1619,-1046 1613,-1114 1552,-1264 1543,-1284 1525,-1279 1516,-1300 1456,-1421 1569,-1500 1480,-1602 1437,-1650 1382,-1589 1339,-1638 1295,-1686 1351,-1725 1319,-1782 1304,-1808 1010,-2031 843,-2158"/>
<polygon style="fill:#2e7f00;stroke:#2e7f00;" points="840.9,-2155.2 835,-2164 845.1,-2160.8 840.9,-2155.2"/>
</g>
<!-- atarashii_actions -->
<g id="node9" class="node"><title>atarashii_actions</title>
<ellipse style="fill:#ff0000;stroke:#ff0000;stroke-width:2;" cx="1699" cy="-678" rx="186.176" ry="186.176"/>
<text text-anchor="middle" x="1699" y="-686.9" style="font-family:Times New Roman;font-size:29.00;fill:#000000;">atarashii_actions</text>
<text text-anchor="middle" x="1699" y="-651.9" style="font-family:Times New Roman;font-size:29.00;fill:#000000;">~[4](1)</text>
</g>
<!-- atarashii_actions&#45;&gt;atarashii -->
<g id="edge6" class="edge"><title>atarashii_actions&#45;&gt;atarashii</title>
<path style="fill:none;stroke:#ff0000;" d="M1699,-864C1699,-1122 1699,-1581 1699,-1810"/>
<ellipse style="fill:#ff0000;stroke:#ff0000;" cx="1699" cy="-1814" rx="4" ry="4"/>
</g>
<!-- dialog -->
<g id="node10" class="node"><title>dialog</title>
<ellipse style="fill:#737f00;stroke:#737f00;stroke-width:2;" cx="275" cy="-2507" rx="94.9596" ry="94.9596"/>
<text text-anchor="middle" x="275" y="-2516.2" style="font-family:Times New Roman;font-size:32.00;fill:#ffffff;">dialog</text>
<text text-anchor="middle" x="275" y="-2478.2" style="font-family:Times New Roman;font-size:32.00;fill:#ffffff;">~[4](3)</text>
</g>
<!-- dialog&#45;&gt;gui -->
<g id="edge136" class="edge"><title>dialog&#45;&gt;gui</title>
<path style="fill:none;stroke:#737f00;" d="M357,-2459C426,-2420 526,-2361 605,-2315"/>
<polygon style="fill:#737f00;stroke:#737f00;" points="606.958,-2317.92 614,-2310 603.559,-2311.8 606.958,-2317.92"/>
</g>
<!-- dialog&#45;&gt;dialog_settings -->
<g id="edge52" class="edge"><title>dialog&#45;&gt;dialog_settings</title>
<path style="fill:none;stroke:#737f00;" d="M275,-2412C275,-2300 275,-2110 275,-1947 275,-1947 275,-1947 275,-1710 275,-1562 275,-1396 275,-1272"/>
<ellipse style="fill:#737f00;stroke:#737f00;" cx="275" cy="-1268" rx="4" ry="4"/>
</g>
<!-- dialog&#45;&gt;gui_events -->
<g id="edge100" class="edge"><title>dialog&#45;&gt;gui_events</title>
<path style="fill:none;stroke:#737f00;" d="M306,-2417C352,-2281 435,-2015 473,-1782 505,-1597 528,-1049 539,-802"/>
<polygon style="fill:#737f00;stroke:#737f00;" points="542.5,-802 539,-792 535.5,-802 542.5,-802"/>
</g>
<!-- view_menu&#45;&gt;view -->
<g id="edge178" class="edge"><title>view_menu&#45;&gt;view</title>
<path style="fill:none;stroke:#e700ff;" d="M1141,-559C1141,-528 1141,-495 1141,-464"/>
<ellipse style="fill:#e700ff;stroke:#e700ff;" cx="1141" cy="-460" rx="4" ry="4"/>
</g>
<!-- gui_helpers&#45;&gt;gui -->
<g id="edge140" class="edge"><title>gui_helpers&#45;&gt;gui</title>
<path style="fill:none;stroke:#e7ff00;" d="M832,-1203C810,-1419 765,-1874 743,-2104"/>
<ellipse style="fill:#e7ff00;stroke:#e7ff00;" cx="742.496" cy="-2108.03" rx="4.00001" ry="4.00001"/>
</g>
<!-- text&#45;&gt;gui -->
<g id="edge150" class="edge"><title>text&#45;&gt;gui</title>
<path style="fill:none;stroke:#00b9ff;" d="M1200,-1156C1182,-1198 1160,-1251 1144,-1300 1100,-1431 1118,-1472 1069,-1602 997,-1792 880,-1998 804,-2123"/>
<polygon style="fill:#00b9ff;stroke:#00b9ff;" points="800.797,-2121.56 799,-2132 806.916,-2124.96 800.797,-2121.56"/>
</g>
<!-- gui_events&#45;&gt;gui -->
<g id="edge138" class="edge"><title>gui_events&#45;&gt;gui</title>
<path style="fill:none;stroke:#e7ff00;" d="M543,-792C543,-943 543,-1217 543,-1451 543,-1710 543,-1710 543,-1710 543,-1858 607,-2016 660,-2122"/>
<ellipse style="fill:#e7ff00;stroke:#e7ff00;" cx="662.015" cy="-2125.53" rx="4.00002" ry="4.00002"/>
</g>
<!-- tray&#45;&gt;gui -->
<g id="edge152" class="edge"><title>tray&#45;&gt;gui</title>
<path style="fill:none;stroke:#00177f;" d="M642,-1163C658,-1358 698,-1856 717,-2102"/>
<polygon style="fill:#00177f;stroke:#00177f;" points="713.522,-2102.4 718,-2112 720.488,-2101.7 713.522,-2102.4"/>
</g>
<!-- updater_tweet&#45;&gt;updater -->
<g id="edge112" class="edge"><title>updater_tweet&#45;&gt;updater</title>
<path style="fill:none;stroke:#5c00ff;" d="M2254,-946C2254,-897 2254,-841 2254,-793"/>
<ellipse style="fill:#5c00ff;stroke:#5c00ff;" cx="2254" cy="-789" rx="4" ry="4"/>
</g>
<!-- notify -->
<g id="node17" class="node"><title>notify</title>
<ellipse style="fill:#00ff2e;stroke:#00ff2e;stroke-width:2;" cx="1476" cy="-2507" rx="72.1249" ry="72.1249"/>
<text text-anchor="middle" x="1476" y="-2514.4" style="font-family:Times New Roman;font-size:24.00;fill:#000000;">notify</text>
<text text-anchor="middle" x="1476" y="-2485.4" style="font-family:Times New Roman;font-size:24.00;fill:#000000;">~[2](1)</text>
</g>
<!-- notify&#45;&gt;atarashii -->
<g id="edge16" class="edge"><title>notify&#45;&gt;atarashii</title>
<path style="fill:none;stroke:#00ff2e;" d="M1522,-2451C1536,-2437 1552,-2423 1569,-2412 1604,-2388 1632,-2410 1657,-2376 1674,-2352 1671,-2141 1675,-2112 1676,-2103 1677,-2094 1678,-2085"/>
<polygon style="fill:#00ff2e;stroke:#00ff2e;" points="1681.49,-2085.3 1679,-2075 1674.52,-2084.6 1681.49,-2085.3"/>
</g>
<!-- __init__&#45;&gt;utils -->
<g id="edge24" class="edge"><title>__init__&#45;&gt;utils</title>
<path style="fill:none;stroke:#7f0000;" d="M1423,-1645C1415,-1629 1406,-1612 1398,-1593"/>
<ellipse style="fill:#7f0000;stroke:#7f0000;" cx="1395.98" cy="-1589.47" rx="4.00002" ry="4.00002"/>
</g>
<!-- send&#45;&gt;atarashii_actions -->
<g id="edge120" class="edge"><title>send&#45;&gt;atarashii_actions</title>
<path style="fill:none;stroke:#007f5c;" d="M1508,-1014C1526,-980 1549,-938 1570,-900 1579,-883 1590,-865 1600,-847"/>
<polygon style="fill:#007f5c;stroke:#007f5c;" points="1603.2,-848.441 1605,-838 1597.08,-845.042 1603.2,-848.441"/>
</g>
<!-- send&#45;&gt;view_menu -->
<g id="edge62" class="edge"><title>send&#45;&gt;view_menu</title>
<path style="fill:none;stroke:#007f5c;" d="M1437,-1015C1414,-978 1382,-932 1346,-900 1320,-877 1304,-886 1279,-864 1254,-842 1230,-815 1210,-787"/>
<polygon style="fill:#007f5c;stroke:#007f5c;" points="1212.8,-784.9 1204,-779 1207.2,-789.1 1212.8,-784.9"/>
</g>
<!-- twp&#45;&gt;view -->
<g id="edge170" class="edge"><title>twp&#45;&gt;view</title>
<path style="fill:none;stroke:#2e007f;" d="M1042,-1012C1033,-969 1023,-914 1019,-864 1012,-781 991,-569 1019,-492 1027,-469 1040,-448 1056,-429"/>
<polygon style="fill:#2e007f;stroke:#2e007f;" points="1058.8,-431.1 1062,-421 1053.2,-426.9 1058.8,-431.1"/>
</g>
<!-- view_html -->
<g id="node21" class="node"><title>view_html</title>
<ellipse style="fill:#e700ff;stroke:#e700ff;stroke-width:2;" cx="1379" cy="-678" rx="97.0803" ry="97.0803"/>
<text text-anchor="middle" x="1379" y="-685.4" style="font-family:Times New Roman;font-size:24.00;fill:#000000;">view_html</text>
<text text-anchor="middle" x="1379" y="-656.4" style="font-family:Times New Roman;font-size:24.00;fill:#000000;">~[2](1)</text>
</g>
<!-- view_html&#45;&gt;view -->
<g id="edge176" class="edge"><title>view_html&#45;&gt;view</title>
<path style="fill:none;stroke:#e700ff;" d="M1336,-591C1319,-559 1298,-523 1276,-492 1261,-470 1242,-449 1224,-430"/>
<ellipse style="fill:#e700ff;stroke:#e700ff;" cx="1220.83" cy="-426.828" rx="4.00002" ry="4.00002"/>
</g>
<!-- settings -->
<g id="node22" class="node"><title>settings</title>
<ellipse style="fill:#00ffb9;stroke:#00ffb9;stroke-width:2;" cx="1377" cy="-3068" rx="121.83" ry="121.83"/>
<text text-anchor="middle" x="1377" y="-3078.6" style="font-family:Times New Roman;font-size:36.00;fill:#000000;">settings</text>
<text text-anchor="middle" x="1377" y="-3035.6" style="font-family:Times New Roman;font-size:36.00;fill:#000000;">~[2](10)</text>
</g>
<!-- settings&#45;&gt;gui -->
<g id="edge148" class="edge"><title>settings&#45;&gt;gui</title>
<path style="fill:none;stroke:#00ffb9;" d="M1256,-3053C1099,-3030 837,-2983 776,-2910 772,-2904 751,-2577 739,-2384"/>
<ellipse style="fill:#00ffb9;stroke:#00ffb9;" cx="738.496" cy="-2379.97" rx="4.00001" ry="4.00001"/>
</g>
<!-- settings&#45;&gt;atarashii -->
<g id="edge18" class="edge"><title>settings&#45;&gt;atarashii</title>
<path style="fill:none;stroke:#00ffb9;" d="M1435,-2961C1504,-2828 1617,-2592 1669,-2376 1691,-2281 1698,-2171 1701,-2086"/>
<polygon style="fill:#00ffb9;stroke:#00ffb9;" points="1704.5,-2086 1701,-2076 1697.5,-2086 1704.5,-2086"/>
</g>
<!-- settings&#45;&gt;updater -->
<g id="edge108" class="edge"><title>settings&#45;&gt;updater</title>
<path style="fill:none;stroke:#00ffb9;" d="M1499,-3059C1773,-3030 2416,-2919 2416,-2507 2416,-2507 2416,-2507 2416,-1451 2416,-1328 2441,-1016 2404,-900 2388,-851 2358,-803 2330,-765"/>
<ellipse style="fill:#00ffb9;stroke:#00ffb9;" cx="2327.32" cy="-761.255" rx="4.00002" ry="4.00002"/>
</g>
<!-- settings&#45;&gt;dialog_settings -->
<g id="edge56" class="edge"><title>settings&#45;&gt;dialog_settings</title>
<path style="fill:none;stroke:#00ffb9;" d="M1255,-3060C1027,-3042 545,-2996 404,-2910 135,-2745 154,-2560 154,-2244 154,-2244 154,-2244 154,-1710 154,-1557 189,-1389 221,-1265"/>
<ellipse style="fill:#00ffb9;stroke:#00ffb9;" cx="222.03" cy="-1260.88" rx="4.00001" ry="4.00001"/>
</g>
<!-- settings&#45;&gt;utils -->
<g id="edge28" class="edge"><title>settings&#45;&gt;utils</title>
<path style="fill:none;stroke:#00ffb9;" d="M1373,-2946C1364,-2657 1341,-1932 1331,-1610"/>
<ellipse style="fill:#00ffb9;stroke:#00ffb9;" cx="1331" cy="-1606" rx="4" ry="4"/>
</g>
<!-- settings&#45;&gt;atarashii_actions -->
<g id="edge122" class="edge"><title>settings&#45;&gt;atarashii_actions</title>
<path style="fill:none;stroke:#00ffb9;" d="M1475,-2995C1578,-2912 1736,-2766 1814,-2602 1882,-2457 1854,-2404 1854,-2244 1854,-2244 1854,-2244 1854,-1947 1854,-1888 1846,-1874 1831,-1818 1803,-1718 1770,-1702 1748,-1602 1715,-1454 1732,-1414 1724,-1264 1716,-1133 1710,-986 1706,-872"/>
<ellipse style="fill:#00ffb9;stroke:#00ffb9;" cx="1706" cy="-868" rx="4" ry="4"/>
</g>
<!-- settings&#45;&gt;dialog -->
<g id="edge160" class="edge"><title>settings&#45;&gt;dialog</title>
<path style="fill:none;stroke:#00ffb9;" d="M1256,-3053C1128,-3033 922,-2991 762,-2910 596,-2825 434,-2674 346,-2583"/>
<ellipse style="fill:#00ffb9;stroke:#00ffb9;" cx="342.828" cy="-2579.83" rx="4.00002" ry="4.00002"/>
</g>
<!-- settings&#45;&gt;notify -->
<g id="edge32" class="edge"><title>settings&#45;&gt;notify</title>
<path style="fill:none;stroke:#00ffb9;" d="M1398,-2948C1417,-2838 1445,-2680 1462,-2586"/>
<ellipse style="fill:#00ffb9;stroke:#00ffb9;" cx="1462.5" cy="-2581.97" rx="4.00001" ry="4.00001"/>
</g>
<!-- settings&#45;&gt;__init__ -->
<g id="edge48" class="edge"><title>settings&#45;&gt;__init__</title>
<path style="fill:none;stroke:#00ffb9;" d="M1382,-2946C1382,-2934 1383,-2922 1383,-2910 1391,-2688 1388,-2633 1401,-2412 1414,-2186 1436,-1920 1447,-1790"/>
<ellipse style="fill:#00ffb9;stroke:#00ffb9;" cx="1447.5" cy="-1785.97" rx="4.00001" ry="4.00001"/>
</g>
<!-- sounds -->
<g id="node24" class="node"><title>sounds</title>
<ellipse style="fill:#005c7f;stroke:#005c7f;stroke-width:2;" cx="851" cy="-2774" rx="72.1249" ry="72.1249"/>
<text text-anchor="middle" x="851" y="-2781.4" style="font-family:Times New Roman;font-size:24.00;fill:#ffffff;">sounds</text>
<text text-anchor="middle" x="851" y="-2752.4" style="font-family:Times New Roman;font-size:24.00;fill:#ffffff;">~[1](3)</text>
</g>
<!-- settings&#45;&gt;sounds -->
<g id="edge44" class="edge"><title>settings&#45;&gt;sounds</title>
<path style="fill:none;stroke:#00ffb9;" d="M1256,-3050C1157,-3030 1019,-2990 924,-2910 905,-2894 890,-2871 879,-2849"/>
<ellipse style="fill:#00ffb9;stroke:#00ffb9;" cx="876.985" cy="-2845.47" rx="4.00002" ry="4.00002"/>
</g>
<!-- updater_message&#45;&gt;updater -->
<g id="edge110" class="edge"><title>updater_message&#45;&gt;updater</title>
<path style="fill:none;stroke:#5c00ff;" d="M2035,-954C2083,-893 2139,-823 2182,-768"/>
<ellipse style="fill:#5c00ff;stroke:#5c00ff;" cx="2184.44" cy="-765.073" rx="4.00002" ry="4.00002"/>
</g>
<!-- sounds&#45;&gt;dialog -->
<g id="edge162" class="edge"><title>sounds&#45;&gt;dialog</title>
<path style="fill:none;stroke:#005c7f;" d="M820,-2708C805,-2682 783,-2654 756,-2638 662,-2579 616,-2631 508,-2602 462,-2589 412,-2570 370,-2552"/>
<polygon style="fill:#005c7f;stroke:#005c7f;" points="371.56,-2548.86 361,-2548 368.717,-2555.26 371.56,-2548.86"/>
</g>
<!-- sounds&#45;&gt;notify -->
<g id="edge34" class="edge"><title>sounds&#45;&gt;notify</title>
<path style="fill:none;stroke:#005c7f;" d="M875,-2706C887,-2681 904,-2655 927,-2638 1000,-2582 1260,-2538 1395,-2518"/>
<polygon style="fill:#005c7f;stroke:#005c7f;" points="1395.4,-2521.48 1405,-2517 1394.7,-2514.51 1395.4,-2521.48"/>
</g>
<!-- sounds&#45;&gt;settings -->
<g id="edge126" class="edge"><title>sounds&#45;&gt;settings</title>
<path style="fill:none;stroke:#005c7f;" d="M880,-2840C893,-2865 909,-2891 931,-2910 1021,-2986 1152,-3027 1248,-3047"/>
<ellipse style="fill:#005c7f;stroke:#005c7f;" cx="1252.12" cy="-3048.03" rx="4.00001" ry="4.00001"/>
</g>
<!-- view_helpers -->
<g id="node25" class="node"><title>view_helpers</title>
<ellipse style="fill:#e700ff;stroke:#e700ff;stroke-width:2;" cx="891" cy="-678" rx="108.894" ry="108.894"/>
<text text-anchor="middle" x="891" y="-684.1" style="font-family:Times New Roman;font-size:21.00;fill:#000000;">view_helpers</text>
<text text-anchor="middle" x="891" y="-659.1" style="font-family:Times New Roman;font-size:21.00;fill:#000000;">~[1](1)</text>
</g>
<!-- view_helpers&#45;&gt;view -->
<g id="edge174" class="edge"><title>view_helpers&#45;&gt;view</title>
<path style="fill:none;stroke:#e700ff;" d="M945,-583C963,-553 984,-520 1006,-492 1022,-471 1041,-449 1059,-430"/>
<ellipse style="fill:#e700ff;stroke:#e700ff;" cx="1062.17" cy="-426.828" rx="4.00002" ry="4.00002"/>
</g>
<!-- tweepy -->
<g id="node26" class="node"><title>tweepy</title>
<ellipse style="fill:#002eff;stroke:#002eff;stroke-width:2;" cx="1253" cy="-1710" rx="58.9293" ry="58.9293"/>
<ellipse style="fill:none;stroke:#002eff;stroke-width:2;" cx="1253" cy="-1710" rx="62.8978" ry="62.8978"/>
<text text-anchor="middle" x="1253" y="-1715.9" style="font-family:Times New Roman;font-size:19.00;fill:#000000;">tweepy</text>
<text text-anchor="middle" x="1253" y="-1692.9" style="font-family:Times New Roman;font-size:19.00;fill:#000000;">(1)</text>
</g>
<!-- tweepy&#45;&gt;utils -->
<g id="edge30" class="edge"><title>tweepy&#45;&gt;utils</title>
<path style="fill:none;stroke:#002eff;" d="M1270,-1649C1274,-1636 1278,-1621 1282,-1607"/>
<polygon style="fill:#002eff;stroke:#002eff;" points="1285.48,-1607.58 1285,-1597 1278.77,-1605.57 1285.48,-1607.58"/>
</g>
<!-- bus -->
<g id="node27" class="node"><title>bus</title>
<ellipse style="fill:#7f4500;stroke:#7f4500;stroke-width:2;" cx="1612" cy="-2244" rx="38.1838" ry="38.1838"/>
<ellipse style="fill:none;stroke:#7f4500;stroke-width:2;" cx="1612" cy="-2244" rx="42.1838" ry="42.1838"/>
<text text-anchor="middle" x="1612" y="-2249.9" style="font-family:Times New Roman;font-size:19.00;fill:#ffffff;">bus</text>
<text text-anchor="middle" x="1612" y="-2226.9" style="font-family:Times New Roman;font-size:19.00;fill:#ffffff;">(1)</text>
</g>
<!-- bus&#45;&gt;atarashii -->
<g id="edge8" class="edge"><title>bus&#45;&gt;atarashii</title>
<path style="fill:none;stroke:#7f4500;" d="M1624,-2204C1633,-2171 1647,-2125 1660,-2081"/>
<polygon style="fill:#7f4500;stroke:#7f4500;" points="1663.48,-2081.58 1663,-2071 1656.77,-2079.57 1663.48,-2081.58"/>
</g>
<!-- constants -->
<g id="node28" class="node"><title>constants</title>
<ellipse style="fill:#ff8b00;stroke:#ff8b00;stroke-width:2;" cx="1243" cy="-3386" rx="155.784" ry="155.784"/>
<ellipse style="fill:none;stroke:#ff8b00;stroke-width:2;" cx="1243" cy="-3386" rx="159.771" ry="159.771"/>
<text text-anchor="middle" x="1243" y="-3398.2" style="font-family:Times New Roman;font-size:42.00;fill:#000000;">constants</text>
<text text-anchor="middle" x="1243" y="-3348.2" style="font-family:Times New Roman;font-size:42.00;fill:#000000;">(19)</text>
</g>
<!-- constants&#45;&gt;gui -->
<g id="edge134" class="edge"><title>constants&#45;&gt;gui</title>
<path style="fill:none;stroke:#ff8b00;" d="M1108,-3299C992,-3215 831,-3076 756,-2910 681,-2740 689,-2522 706,-2382"/>
<ellipse style="fill:#ff8b00;stroke:#ff8b00;" cx="706.504" cy="-2377.97" rx="4.00001" ry="4.00001"/>
</g>
<!-- constants&#45;&gt;atarashii -->
<g id="edge10" class="edge"><title>constants&#45;&gt;atarashii</title>
<path style="fill:none;stroke:#ff8b00;" d="M1391,-3325C1459,-3293 1536,-3247 1594,-3190 1743,-3040 1824,-2985 1824,-2774 1824,-2774 1824,-2774 1824,-2507 1824,-2356 1781,-2189 1745,-2077"/>
<ellipse style="fill:#ff8b00;stroke:#ff8b00;" cx="1743.4" cy="-2072.75" rx="4.00001" ry="4.00001"/>
</g>
<!-- constants&#45;&gt;updater -->
<g id="edge104" class="edge"><title>constants&#45;&gt;updater</title>
<path style="fill:none;stroke:#ff8b00;" d="M1403,-3376C1727,-3347 2431,-3230 2431,-2774 2431,-2774 2431,-2774 2431,-1451 2431,-1328 2457,-1015 2418,-900 2400,-849 2367,-799 2334,-760"/>
<ellipse style="fill:#ff8b00;stroke:#ff8b00;" cx="2331.56" cy="-757.073" rx="4.00002" ry="4.00002"/>
</g>
<!-- constants&#45;&gt;view -->
<g id="edge168" class="edge"><title>constants&#45;&gt;view</title>
<path style="fill:none;stroke:#ff8b00;" d="M1084,-3367C884,-3340 558,-3282 483,-3190 368,-3045 468,-2959 468,-2774 468,-2774 468,-2774 468,-1451 468,-1206 553,-1126 460,-900 452,-879 435,-884 426,-864 365,-710 322,-619 426,-492 501,-400 845,-367 1027,-355"/>
<ellipse style="fill:#ff8b00;stroke:#ff8b00;" cx="1031" cy="-355" rx="4" ry="4"/>
</g>
<!-- constants&#45;&gt;dialog_settings -->
<g id="edge50" class="edge"><title>constants&#45;&gt;dialog_settings</title>
<path style="fill:none;stroke:#ff8b00;" d="M1084,-3369C854,-3342 443,-3282 328,-3190 170,-3062 139,-2977 139,-2774 139,-2774 139,-2774 139,-1710 139,-1527 113,-1475 161,-1300 166,-1283 172,-1264 180,-1247"/>
<ellipse style="fill:#ff8b00;stroke:#ff8b00;" cx="181.595" cy="-1242.75" rx="4.00001" ry="4.00001"/>
</g>
<!-- constants&#45;&gt;utils -->
<g id="edge26" class="edge"><title>constants&#45;&gt;utils</title>
<path style="fill:none;stroke:#ff8b00;" d="M1243,-3226C1243,-3102 1243,-2927 1243,-2774 1243,-2774 1243,-2774 1243,-2244 1243,-2054 1289,-1993 1218,-1818 1210,-1798 1194,-1801 1187,-1782 1164,-1722 1166,-1698 1187,-1638 1194,-1615 1206,-1591 1220,-1570"/>
<ellipse style="fill:#ff8b00;stroke:#ff8b00;" cx="1222.68" cy="-1566.25" rx="4.00002" ry="4.00002"/>
</g>
<!-- constants&#45;&gt;message -->
<g id="edge36" class="edge"><title>constants&#45;&gt;message</title>
<path style="fill:none;stroke:#ff8b00;" d="M1084,-3370C779,-3339 137,-3264 70,-3190 -52,-3051 52,-2959 52,-2774 52,-2774 52,-2774 52,-678 52,-482 1,-396 123,-244 166,-189 236,-155 294,-134"/>
<ellipse style="fill:#ff8b00;stroke:#ff8b00;" cx="298.255" cy="-132.405" rx="4.00001" ry="4.00001"/>
</g>
<!-- constants&#45;&gt;html -->
<g id="edge80" class="edge"><title>constants&#45;&gt;html</title>
<path style="fill:none;stroke:#ff8b00;" d="M1402,-3372C1655,-3347 2131,-3288 2267,-3190 2430,-3072 2446,-2975 2446,-2774 2446,-2774 2446,-2774 2446,-678 2446,-282 1836,-152 1597,-116"/>
<ellipse style="fill:#ff8b00;stroke:#ff8b00;" cx="1592.97" cy="-115.496" rx="4.00001" ry="4.00001"/>
</g>
<!-- constants&#45;&gt;atarashii_actions -->
<g id="edge116" class="edge"><title>constants&#45;&gt;atarashii_actions</title>
<path style="fill:none;stroke:#ff8b00;" d="M1399,-3350C1496,-3321 1616,-3271 1698,-3190 1839,-3048 1869,-2973 1869,-2774 1869,-2774 1869,-2774 1869,-1947 1869,-1724 1776,-1331 1767,-1264 1748,-1133 1731,-986 1719,-871"/>
<ellipse style="fill:#ff8b00;stroke:#ff8b00;" cx="1718.5" cy="-866.969" rx="4.00001" ry="4.00001"/>
</g>
<!-- constants&#45;&gt;dialog -->
<g id="edge156" class="edge"><title>constants&#45;&gt;dialog</title>
<path style="fill:none;stroke:#ff8b00;" d="M1084,-3365C882,-3335 550,-3275 463,-3190 305,-3035 276,-2759 273,-2610"/>
<ellipse style="fill:#ff8b00;stroke:#ff8b00;" cx="273" cy="-2606" rx="4" ry="4"/>
</g>
<!-- constants&#45;&gt;gui_helpers -->
<g id="edge66" class="edge"><title>constants&#45;&gt;gui_helpers</title>
<path style="fill:none;stroke:#ff8b00;" d="M1088,-3347C991,-3316 868,-3266 779,-3190 616,-3048 528,-2989 528,-2774 528,-2774 528,-2774 528,-1947 528,-1660 682,-1351 776,-1192"/>
<ellipse style="fill:#ff8b00;stroke:#ff8b00;" cx="778.015" cy="-1188.47" rx="4.00002" ry="4.00002"/>
</g>
<!-- constants&#45;&gt;text -->
<g id="edge92" class="edge"><title>constants&#45;&gt;text</title>
<path style="fill:none;stroke:#ff8b00;" d="M1231,-3226C1223,-3103 1213,-2928 1213,-2774 1213,-2774 1213,-2774 1213,-2244 1213,-2037 1181,-1987 1172,-1782 1162,-1567 1142,-1512 1172,-1300 1178,-1255 1191,-1206 1204,-1166"/>
<ellipse style="fill:#ff8b00;stroke:#ff8b00;" cx="1205.03" cy="-1161.88" rx="4.00001" ry="4.00001"/>
</g>
<!-- constants&#45;&gt;gui_events -->
<g id="edge98" class="edge"><title>constants&#45;&gt;gui_events</title>
<path style="fill:none;stroke:#ff8b00;" d="M1083,-3379C813,-3363 284,-3317 156,-3190 24,-3057 82,-2961 82,-2774 82,-2774 82,-2774 82,-1451 82,-1328 25,-1003 90,-900 163,-785 315,-727 423,-700"/>
<ellipse style="fill:#ff8b00;stroke:#ff8b00;" cx="427.119" cy="-698.97" rx="4.00001" ry="4.00001"/>
</g>
<!-- constants&#45;&gt;tray -->
<g id="edge128" class="edge"><title>constants&#45;&gt;tray</title>
<path style="fill:none;stroke:#ff8b00;" d="M1085,-3361C905,-3329 627,-3269 558,-3190 436,-3049 498,-2960 498,-2774 498,-2774 498,-2774 498,-2507 498,-2120 491,-2020 546,-1638 570,-1472 601,-1280 620,-1170"/>
<ellipse style="fill:#ff8b00;stroke:#ff8b00;" cx="620.504" cy="-1165.97" rx="4.00001" ry="4.00001"/>
</g>
<!-- constants&#45;&gt;updater_tweet -->
<g id="edge2" class="edge"><title>constants&#45;&gt;updater_tweet</title>
<path style="fill:none;stroke:#ff8b00;" d="M1400,-3355C1572,-3318 1832,-3255 1909,-3190 2065,-3057 2109,-2979 2109,-2774 2109,-2774 2109,-2774 2109,-1710 2109,-1537 2162,-1343 2204,-1218"/>
<ellipse style="fill:#ff8b00;stroke:#ff8b00;" cx="2205.6" cy="-1213.75" rx="4.00001" ry="4.00001"/>
</g>
<!-- constants&#45;&gt;send -->
<g id="edge72" class="edge"><title>constants&#45;&gt;send</title>
<path style="fill:none;stroke:#ff8b00;" d="M1394,-3333C1458,-3302 1527,-3255 1564,-3190 1606,-3114 1535,-1724 1530,-1638 1519,-1470 1497,-1275 1484,-1166"/>
<ellipse style="fill:#ff8b00;stroke:#ff8b00;" cx="1483.5" cy="-1161.97" rx="4.00001" ry="4.00001"/>
</g>
<!-- constants&#45;&gt;view_html -->
<g id="edge88" class="edge"><title>constants&#45;&gt;view_html</title>
<path style="fill:none;stroke:#ff8b00;" d="M1384,-3309C1429,-3278 1474,-3238 1502,-3190 1596,-3028 1559,-2960 1559,-2774 1559,-2774 1559,-2774 1559,-2244 1559,-2169 1583,-967 1552,-900 1541,-877 1526,-882 1510,-864 1483,-834 1457,-799 1435,-767"/>
<ellipse style="fill:#ff8b00;stroke:#ff8b00;" cx="1432.32" cy="-763.255" rx="4.00002" ry="4.00002"/>
</g>
<!-- constants&#45;&gt;settings -->
<g id="edge124" class="edge"><title>constants&#45;&gt;settings</title>
<path style="fill:none;stroke:#ff8b00;" d="M1305,-3238C1312,-3222 1319,-3205 1326,-3189"/>
<ellipse style="fill:#ff8b00;stroke:#ff8b00;" cx="1327.6" cy="-3184.75" rx="4.00001" ry="4.00001"/>
</g>
<!-- constants&#45;&gt;updater_message -->
<g id="edge164" class="edge"><title>constants&#45;&gt;updater_message</title>
<path style="fill:none;stroke:#ff8b00;" d="M1401,-3358C1567,-3324 1814,-3264 1874,-3190 1990,-3045 1909,-2959 1909,-2774 1909,-2774 1909,-2774 1909,-1710 1909,-1555 1917,-1380 1923,-1253"/>
<ellipse style="fill:#ff8b00;stroke:#ff8b00;" cx="1923" cy="-1249" rx="4" ry="4"/>
</g>
<!-- language -->
<g id="node29" class="node"><title>language</title>
<ellipse style="fill:#5cff00;stroke:#5cff00;stroke-width:2;" cx="1066" cy="-2774" rx="132.229" ry="132.229"/>
<ellipse style="fill:none;stroke:#5cff00;stroke-width:2;" cx="1066" cy="-2774" rx="136.229" ry="136.229"/>
<text text-anchor="middle" x="1066" y="-2784.7" style="font-family:Times New Roman;font-size:37.00;fill:#000000;">language</text>
<text text-anchor="middle" x="1066" y="-2740.7" style="font-family:Times New Roman;font-size:37.00;fill:#000000;">(15)</text>
</g>
<!-- language&#45;&gt;gui -->
<g id="edge144" class="edge"><title>language&#45;&gt;gui</title>
<path style="fill:none;stroke:#5cff00;" d="M971,-2676C957,-2663 941,-2650 926,-2638 902,-2619 887,-2625 867,-2602 838,-2566 799,-2464 771,-2378"/>
<ellipse style="fill:#5cff00;stroke:#5cff00;" cx="769.405" cy="-2373.75" rx="4.00001" ry="4.00001"/>
</g>
<!-- language&#45;&gt;atarashii -->
<g id="edge14" class="edge"><title>language&#45;&gt;atarashii</title>
<path style="fill:none;stroke:#5cff00;" d="M1193,-2725C1250,-2696 1313,-2656 1353,-2602 1404,-2532 1368,-2492 1401,-2412 1457,-2270 1482,-2238 1567,-2112 1581,-2092 1596,-2071 1610,-2051"/>
<ellipse style="fill:#5cff00;stroke:#5cff00;" cx="1612.44" cy="-2048.07" rx="4.00002" ry="4.00002"/>
</g>
<!-- language&#45;&gt;updater -->
<g id="edge106" class="edge"><title>language&#45;&gt;updater</title>
<path style="fill:none;stroke:#5cff00;" d="M1201,-2758C1390,-2732 1721,-2678 1814,-2602 2311,-2187 2261,-1898 2393,-1264 2409,-1184 2415,-977 2393,-900 2379,-853 2352,-806 2326,-768"/>
<ellipse style="fill:#5cff00;stroke:#5cff00;" cx="2323.32" cy="-764.255" rx="4.00002" ry="4.00002"/>
</g>
<!-- language&#45;&gt;dialog_settings -->
<g id="edge54" class="edge"><title>language&#45;&gt;dialog_settings</title>
<path style="fill:none;stroke:#5cff00;" d="M975,-2673C960,-2659 943,-2647 926,-2638 870,-2606 840,-2636 785,-2602 674,-2532 659,-2490 594,-2376 393,-2018 318,-1535 290,-1272"/>
<ellipse style="fill:#5cff00;stroke:#5cff00;" cx="289.496" cy="-1267.97" rx="4.00001" ry="4.00001"/>
</g>
<!-- language&#45;&gt;message -->
<g id="edge38" class="edge"><title>language&#45;&gt;message</title>
<path style="fill:none;stroke:#5cff00;" d="M978,-2670C962,-2657 944,-2646 926,-2638 850,-2604 237,-2660 177,-2602 56,-2483 67,-1251 67,-1082 67,-1082 67,-1082 67,-678 67,-477 222,-284 321,-181"/>
<ellipse style="fill:#5cff00;stroke:#5cff00;" cx="324.172" cy="-177.828" rx="4.00002" ry="4.00002"/>
</g>
<!-- language&#45;&gt;html -->
<g id="edge82" class="edge"><title>language&#45;&gt;html</title>
<path style="fill:none;stroke:#5cff00;" d="M1201,-2754C1306,-2732 1451,-2688 1551,-2602 1751,-2429 1766,-2332 1831,-2076 1877,-1890 1768,-1290 1767,-1264 1757,-1102 1670,-1029 1767,-900 1800,-855 1854,-908 1888,-864 1986,-731 1951,-644 1888,-492 1826,-343 1676,-220 1583,-156"/>
<ellipse style="fill:#5cff00;stroke:#5cff00;" cx="1579.25" cy="-153.325" rx="4.00002" ry="4.00002"/>
</g>
<!-- language&#45;&gt;atarashii_actions -->
<g id="edge118" class="edge"><title>language&#45;&gt;atarashii_actions</title>
<path style="fill:none;stroke:#5cff00;" d="M1143,-2662C1155,-2642 1165,-2622 1174,-2602 1214,-2506 1207,-2476 1230,-2376 1239,-2335 1351,-1668 1380,-1638 1421,-1593 1471,-1646 1513,-1602 1610,-1498 1661,-1111 1683,-872"/>
<ellipse style="fill:#5cff00;stroke:#5cff00;" cx="1683.5" cy="-867.969" rx="4.00001" ry="4.00001"/>
</g>
<!-- language&#45;&gt;dialog -->
<g id="edge158" class="edge"><title>language&#45;&gt;dialog</title>
<path style="fill:none;stroke:#5cff00;" d="M977,-2671C961,-2658 944,-2646 926,-2638 757,-2560 690,-2645 508,-2602 461,-2590 410,-2570 368,-2552"/>
<ellipse style="fill:#5cff00;stroke:#5cff00;" cx="364.677" cy="-2550.58" rx="4.00002" ry="4.00002"/>
</g>
<!-- language&#45;&gt;view_menu -->
<g id="edge60" class="edge"><title>language&#45;&gt;view_menu</title>
<path style="fill:none;stroke:#5cff00;" d="M1093,-2640C1112,-2534 1134,-2380 1134,-2244 1134,-2244 1134,-2244 1134,-1710 1134,-1384 1138,-1000 1140,-805"/>
<ellipse style="fill:#5cff00;stroke:#5cff00;" cx="1140" cy="-801" rx="4" ry="4"/>
</g>
<!-- language&#45;&gt;gui_helpers -->
<g id="edge68" class="edge"><title>language&#45;&gt;gui_helpers</title>
<path style="fill:none;stroke:#5cff00;" d="M995,-2658C986,-2640 977,-2621 971,-2602 920,-2449 921,-2404 920,-2244 920,-2244 920,-2244 920,-1710 921,-1535 891,-1336 868,-1209"/>
<ellipse style="fill:#5cff00;stroke:#5cff00;" cx="867.496" cy="-1204.97" rx="4.00001" ry="4.00001"/>
</g>
<!-- language&#45;&gt;text -->
<g id="edge94" class="edge"><title>language&#45;&gt;text</title>
<path style="fill:none;stroke:#5cff00;" d="M1125,-2651C1130,-2635 1135,-2618 1139,-2602 1172,-2446 1149,-2403 1149,-2244 1149,-2244 1149,-2244 1149,-1710 1149,-1527 1126,-1479 1159,-1300 1167,-1254 1184,-1205 1199,-1165"/>
<ellipse style="fill:#5cff00;stroke:#5cff00;" cx="1200.6" cy="-1160.75" rx="4.00001" ry="4.00001"/>
</g>
<!-- language&#45;&gt;tray -->
<g id="edge130" class="edge"><title>language&#45;&gt;tray</title>
<path style="fill:none;stroke:#5cff00;" d="M971,-2676C954,-2653 937,-2628 926,-2602 840,-2400 902,-2328 864,-2112 803,-1758 702,-1345 657,-1169"/>
<ellipse style="fill:#5cff00;stroke:#5cff00;" cx="655.97" cy="-1164.88" rx="4.00001" ry="4.00001"/>
</g>
<!-- language&#45;&gt;twp -->
<g id="edge76" class="edge"><title>language&#45;&gt;twp</title>
<path style="fill:none;stroke:#5cff00;" d="M1065,-2638C1065,-2531 1064,-2378 1064,-2244 1064,-2244 1064,-2244 1064,-1710 1064,-1513 1061,-1282 1060,-1162"/>
<ellipse style="fill:#5cff00;stroke:#5cff00;" cx="1060" cy="-1158" rx="4" ry="4"/>
</g>
<!-- language&#45;&gt;view_html -->
<g id="edge90" class="edge"><title>language&#45;&gt;view_html</title>
<path style="fill:none;stroke:#5cff00;" d="M1130,-2654C1138,-2637 1146,-2619 1152,-2602 1170,-2550 1329,-1678 1367,-1638 1402,-1599 1448,-1644 1480,-1602 1519,-1547 1517,-1355 1480,-1300 1457,-1265 1417,-1298 1394,-1264 1342,-1188 1355,-930 1368,-783"/>
<ellipse style="fill:#5cff00;stroke:#5cff00;" cx="1368.5" cy="-778.969" rx="4.00001" ry="4.00001"/>
</g>
<!-- language&#45;&gt;view_helpers -->
<g id="edge154" class="edge"><title>language&#45;&gt;view_helpers</title>
<path style="fill:none;stroke:#5cff00;" d="M1031,-2642C1006,-2536 977,-2381 976,-2244 976,-2244 976,-2244 976,-1451 977,-1328 990,-1020 968,-900 961,-862 949,-822 937,-787"/>
<ellipse style="fill:#5cff00;stroke:#5cff00;" cx="935.405" cy="-782.745" rx="4.00001" ry="4.00001"/>
</g>
</g>
</svg>
