<?xml version="1.0" encoding="UTF-8" standalone="no"?>
<!DOCTYPE svg PUBLIC "-//W3C//DTD SVG 1.0//EN"
 "http://www.w3.org/TR/2001/REC-SVG-20010904/DTD/svg10.dtd" [
 <!ATTLIST svg xmlns:xlink CDATA #FIXED "http://www.w3.org/1999/xlink">
]>
<!-- Generated by Graphviz version 2.20.2 (Wed Sep 16 11:12:11 UTC 2009)
     For user: (ivo) Ivo Wetzel,,, -->
<!-- Title: dependencies Pages: 1 -->
<svg width="691pt" height="1630pt"
 viewBox="0.00 0.00 691.00 1630.00" xmlns="http://www.w3.org/2000/svg" xmlns:xlink="http://www.w3.org/1999/xlink">
<g id="graph0" class="graph" transform="scale(1 1) rotate(0) translate(4 1626)">
<title>dependencies</title>
<polygon style="fill:white;stroke:white;" points="-4,4 -4,-1626 687,-1626 687,4 -4,4"/>
<!-- __init__ -->
<g id="node1" class="node"><title>__init__</title>
<polygon style="fill:#7f0000;stroke:#7f0000;stroke-width:2;" points="570.905,-75.6731 570.905,-176.327 495.394,-247.5 388.606,-247.5 313.095,-176.327 313.095,-75.6731 388.606,-4.5 495.394,-4.5 570.905,-75.6731"/>
<polygon style="fill:none;stroke:#7f0000;stroke-width:2;" points="574.89,-73.9421 574.89,-178.058 496.972,-251.5 387.028,-251.5 309.11,-178.058 309.11,-73.9421 387.028,-0.5 496.972,-0.5 574.89,-73.9421"/>
<text text-anchor="middle" x="442" y="-141.5" style="font-family:Times New Roman;font-size:55.00;fill:#ffffff;">__init__</text>
<text text-anchor="middle" x="442" y="-76.5" style="font-family:Times New Roman;font-size:55.00;fill:#ffffff;">~[7]</text>
</g>
<!-- streaming -->
<g id="node2" class="node"><title>streaming</title>
<ellipse style="fill:#24007f;stroke:#24007f;stroke-width:2;" cx="289" cy="-430" rx="141.786" ry="141.786"/>
<text text-anchor="middle" x="289" y="-440.8" style="font-family:Times New Roman;font-size:38.00;fill:#ffffff;">streaming</text>
<text text-anchor="middle" x="289" y="-395.8" style="font-family:Times New Roman;font-size:38.00;fill:#ffffff;">~[5](1)</text>
</g>
<!-- streaming&#45;&gt;__init__ -->
<g id="edge50" class="edge"><title>streaming&#45;&gt;__init__</title>
<path style="fill:none;stroke:#24007f;" d="M353,-303C361,-287 369,-270 377,-254"/>
<ellipse style="fill:#24007f;stroke:#24007f;" cx="379.015" cy="-250.473" rx="4.00002" ry="4.00002"/>
</g>
<!-- auth -->
<g id="node3" class="node"><title>auth</title>
<ellipse style="fill:#7f6d00;stroke:#7f6d00;stroke-width:2;" cx="395" cy="-703" rx="94.9596" ry="94.9596"/>
<text text-anchor="middle" x="395" y="-712.2" style="font-family:Times New Roman;font-size:32.00;fill:#ffffff;">auth</text>
<text text-anchor="middle" x="395" y="-674.2" style="font-family:Times New Roman;font-size:32.00;fill:#ffffff;">~[3](2)</text>
</g>
<!-- auth&#45;&gt;__init__ -->
<g id="edge40" class="edge"><title>auth&#45;&gt;__init__</title>
<path style="fill:none;stroke:#7f6d00;" d="M425,-613C429,-599 432,-585 434,-572 450,-468 451,-348 449,-260"/>
<ellipse style="fill:#7f6d00;stroke:#7f6d00;" cx="449" cy="-256" rx="4" ry="4"/>
</g>
<!-- auth&#45;&gt;streaming -->
<g id="edge16" class="edge"><title>auth&#45;&gt;streaming</title>
<path style="fill:none;stroke:#7f6d00;" d="M361,-614C356,-599 350,-585 344,-570"/>
<ellipse style="fill:#7f6d00;stroke:#7f6d00;" cx="342.405" cy="-565.745" rx="4.00001" ry="4.00001"/>
</g>
<!-- api -->
<g id="node4" class="node"><title>api</title>
<ellipse style="fill:#ff0000;stroke:#ff0000;stroke-width:2;" cx="226" cy="-934" rx="99.9096" ry="99.9096"/>
<text text-anchor="middle" x="226" y="-944.4" style="font-family:Times New Roman;font-size:34.00;fill:#000000;">api</text>
<text text-anchor="middle" x="226" y="-903.4" style="font-family:Times New Roman;font-size:34.00;fill:#000000;">~[3](3)</text>
</g>
<!-- api&#45;&gt;__init__ -->
<g id="edge38" class="edge"><title>api&#45;&gt;__init__</title>
<path style="fill:none;stroke:#ff0000;" d="M182,-844C124,-712 40,-463 144,-288 179,-230 242,-191 301,-166"/>
<ellipse style="fill:#ff0000;stroke:#ff0000;" cx="305.255" cy="-164.405" rx="4.00001" ry="4.00001"/>
</g>
<!-- api&#45;&gt;streaming -->
<g id="edge14" class="edge"><title>api&#45;&gt;streaming</title>
<path style="fill:none;stroke:#ff0000;" d="M238,-835C248,-762 260,-662 270,-579"/>
<ellipse style="fill:#ff0000;stroke:#ff0000;" cx="270.504" cy="-574.969" rx="4.00001" ry="4.00001"/>
</g>
<!-- api&#45;&gt;auth -->
<g id="edge6" class="edge"><title>api&#45;&gt;auth</title>
<path style="fill:none;stroke:#ff0000;" d="M285,-853C301,-831 318,-809 334,-787"/>
<ellipse style="fill:#ff0000;stroke:#ff0000;" cx="336.675" cy="-783.255" rx="4.00002" ry="4.00002"/>
</g>
<!-- models -->
<g id="node5" class="node"><title>models</title>
<ellipse style="fill:#00ff91;stroke:#00ff91;stroke-width:2;" cx="115" cy="-1361" rx="91.2168" ry="91.2168"/>
<text text-anchor="middle" x="115" y="-1370.1" style="font-family:Times New Roman;font-size:31.00;fill:#000000;">models</text>
<text text-anchor="middle" x="115" y="-1333.1" style="font-family:Times New Roman;font-size:31.00;fill:#000000;">~[2](3)</text>
</g>
<!-- models&#45;&gt;__init__ -->
<g id="edge48" class="edge"><title>models&#45;&gt;__init__</title>
<path style="fill:none;stroke:#00ff91;" d="M87,-1274C61,-1189 28,-1053 28,-934 28,-934 28,-934 28,-703 28,-516 -17,-437 95,-288 145,-221 229,-182 301,-158"/>
<ellipse style="fill:#00ff91;stroke:#00ff91;" cx="305.255" cy="-156.405" rx="4.00001" ry="4.00001"/>
</g>
<!-- models&#45;&gt;streaming -->
<g id="edge20" class="edge"><title>models&#45;&gt;streaming</title>
<path style="fill:none;stroke:#00ff91;" d="M106,-1270C98,-1164 92,-984 123,-834 142,-740 183,-640 220,-563"/>
<ellipse style="fill:#00ff91;stroke:#00ff91;" cx="221.424" cy="-559.677" rx="4.00002" ry="4.00002"/>
</g>
<!-- parsers -->
<g id="node7" class="node"><title>parsers</title>
<ellipse style="fill:#0091ff;stroke:#0091ff;stroke-width:2;" cx="216" cy="-1152" rx="82.2301" ry="82.2301"/>
<text text-anchor="middle" x="216" y="-1159.7" style="font-family:Times New Roman;font-size:27.00;fill:#000000;">parsers</text>
<text text-anchor="middle" x="216" y="-1127.7" style="font-family:Times New Roman;font-size:27.00;fill:#000000;">~[2](1)</text>
</g>
<!-- models&#45;&gt;parsers -->
<g id="edge34" class="edge"><title>models&#45;&gt;parsers</title>
<path style="fill:none;stroke:#00ff91;" d="M155,-1279C162,-1264 169,-1248 177,-1233"/>
<ellipse style="fill:#00ff91;stroke:#00ff91;" cx="178.424" cy="-1229.68" rx="4.00002" ry="4.00002"/>
</g>
<!-- binder -->
<g id="node6" class="node"><title>binder</title>
<ellipse style="fill:#ffda00;stroke:#ffda00;stroke-width:2;" cx="309" cy="-1361" rx="80.8184" ry="80.8184"/>
<text text-anchor="middle" x="309" y="-1368.7" style="font-family:Times New Roman;font-size:27.00;fill:#000000;">binder</text>
<text text-anchor="middle" x="309" y="-1336.7" style="font-family:Times New Roman;font-size:27.00;fill:#000000;">~[2](1)</text>
</g>
<!-- binder&#45;&gt;api -->
<g id="edge28" class="edge"><title>binder&#45;&gt;api</title>
<path style="fill:none;stroke:#ffda00;" d="M317,-1280C320,-1221 320,-1139 301,-1070 297,-1055 291,-1040 284,-1026"/>
<ellipse style="fill:#ffda00;stroke:#ffda00;" cx="282.405" cy="-1021.75" rx="4.00001" ry="4.00001"/>
</g>
<!-- parsers&#45;&gt;api -->
<g id="edge32" class="edge"><title>parsers&#45;&gt;api</title>
<path style="fill:none;stroke:#0091ff;" d="M220,-1070C221,-1061 221,-1051 221,-1042"/>
<ellipse style="fill:#0091ff;stroke:#0091ff;" cx="221.504" cy="-1037.97" rx="4.00001" ry="4.00001"/>
</g>
<!-- cursor -->
<g id="node8" class="node"><title>cursor</title>
<ellipse style="fill:#48ff00;stroke:#48ff00;stroke-width:2;" cx="597" cy="-1152" rx="72.1249" ry="72.1249"/>
<text text-anchor="middle" x="597" y="-1159.3" style="font-family:Times New Roman;font-size:23.00;fill:#000000;">cursor</text>
<text text-anchor="middle" x="597" y="-1131.3" style="font-family:Times New Roman;font-size:23.00;fill:#000000;">~[1](1)</text>
</g>
<!-- cursor&#45;&gt;__init__ -->
<g id="edge44" class="edge"><title>cursor&#45;&gt;__init__</title>
<path style="fill:none;stroke:#48ff00;" d="M615,-1082C650,-931 716,-563 603,-288 591,-260 572,-235 552,-212"/>
<ellipse style="fill:#48ff00;stroke:#48ff00;" cx="548.828" cy="-208.828" rx="4.00002" ry="4.00002"/>
</g>
<!-- utils -->
<g id="node9" class="node"><title>utils</title>
<ellipse style="fill:#4800ff;stroke:#4800ff;stroke-width:2;" cx="166" cy="-1555" rx="48.0833" ry="48.0833"/>
<ellipse style="fill:none;stroke:#4800ff;stroke-width:2;" cx="166" cy="-1555" rx="52.0833" ry="52.0833"/>
<text text-anchor="middle" x="166" y="-1561.5" style="font-family:Times New Roman;font-size:25.00;fill:#000000;">utils</text>
<text text-anchor="middle" x="166" y="-1532.5" style="font-family:Times New Roman;font-size:25.00;fill:#000000;">(4)</text>
</g>
<!-- utils&#45;&gt;streaming -->
<g id="edge22" class="edge"><title>utils&#45;&gt;streaming</title>
<path style="fill:none;stroke:#4800ff;" d="M118,-1535C84,-1518 42,-1491 21,-1452 -16,-1380 15,-1350 21,-1270 46,-972 5,-877 133,-608 146,-582 163,-558 181,-534"/>
<ellipse style="fill:#4800ff;stroke:#4800ff;" cx="183.439" cy="-531.073" rx="4.00002" ry="4.00002"/>
</g>
<!-- utils&#45;&gt;models -->
<g id="edge4" class="edge"><title>utils&#45;&gt;models</title>
<path style="fill:none;stroke:#4800ff;" d="M153,-1505C150,-1490 145,-1474 140,-1457"/>
<ellipse style="fill:#4800ff;stroke:#4800ff;" cx="138.97" cy="-1452.88" rx="4.00001" ry="4.00001"/>
</g>
<!-- utils&#45;&gt;binder -->
<g id="edge26" class="edge"><title>utils&#45;&gt;binder</title>
<path style="fill:none;stroke:#4800ff;" d="M197,-1513C215,-1490 236,-1460 256,-1433"/>
<ellipse style="fill:#4800ff;stroke:#4800ff;" cx="258.675" cy="-1429.25" rx="4.00002" ry="4.00002"/>
</g>
<!-- utils&#45;&gt;parsers -->
<g id="edge36" class="edge"><title>utils&#45;&gt;parsers</title>
<path style="fill:none;stroke:#4800ff;" d="M190,-1509C197,-1491 205,-1471 209,-1452 224,-1382 225,-1303 222,-1242"/>
<ellipse style="fill:#4800ff;stroke:#4800ff;" cx="222" cy="-1238" rx="4" ry="4"/>
</g>
<!-- cache -->
<g id="node10" class="node"><title>cache</title>
<ellipse style="fill:#247f00;stroke:#247f00;stroke-width:2;" cx="545" cy="-430" rx="50.9117" ry="50.9117"/>
<ellipse style="fill:none;stroke:#247f00;stroke-width:2;" cx="545" cy="-430" rx="54.9117" ry="54.9117"/>
<text text-anchor="middle" x="545" y="-435.9" style="font-family:Times New Roman;font-size:19.00;fill:#ffffff;">cache</text>
<text text-anchor="middle" x="545" y="-412.9" style="font-family:Times New Roman;font-size:19.00;fill:#ffffff;">(1)</text>
</g>
<!-- cache&#45;&gt;__init__ -->
<g id="edge42" class="edge"><title>cache&#45;&gt;__init__</title>
<path style="fill:none;stroke:#247f00;" d="M527,-378C516,-345 501,-301 487,-260"/>
<ellipse style="fill:#247f00;stroke:#247f00;" cx="485.97" cy="-255.881" rx="4.00001" ry="4.00001"/>
</g>
<!-- error -->
<g id="node11" class="node"><title>error</title>
<ellipse style="fill:#007f48;stroke:#007f48;stroke-width:2;" cx="416" cy="-1555" rx="63.1682" ry="63.1682"/>
<ellipse style="fill:none;stroke:#007f48;stroke-width:2;" cx="416" cy="-1555" rx="67.1386" ry="67.1386"/>
<text text-anchor="middle" x="416" y="-1564.1" style="font-family:Times New Roman;font-size:31.00;fill:#ffffff;">error</text>
<text text-anchor="middle" x="416" y="-1527.1" style="font-family:Times New Roman;font-size:31.00;fill:#ffffff;">(7)</text>
</g>
<!-- error&#45;&gt;__init__ -->
<g id="edge46" class="edge"><title>error&#45;&gt;__init__</title>
<path style="fill:none;stroke:#007f48;" d="M444,-1494C449,-1480 454,-1466 458,-1452 493,-1321 501,-1286 501,-1152 501,-1152 501,-1152 501,-934 501,-789 506,-752 493,-608 491,-591 489,-588 487,-572 472,-467 461,-348 453,-260"/>
<ellipse style="fill:#007f48;stroke:#007f48;" cx="452.496" cy="-255.969" rx="4.00001" ry="4.00001"/>
</g>
<!-- error&#45;&gt;streaming -->
<g id="edge18" class="edge"><title>error&#45;&gt;streaming</title>
<path style="fill:none;stroke:#007f48;" d="M418,-1488C419,-1430 419,-1344 408,-1270 396,-1179 383,-1158 357,-1070 353,-1053 349,-1050 345,-1034 328,-946 364,-916 329,-834 321,-814 305,-817 297,-798 270,-729 266,-648 270,-579"/>
<ellipse style="fill:#007f48;stroke:#007f48;" cx="270" cy="-575" rx="4" ry="4"/>
</g>
<!-- error&#45;&gt;auth -->
<g id="edge8" class="edge"><title>error&#45;&gt;auth</title>
<path style="fill:none;stroke:#007f48;" d="M432,-1489C459,-1361 510,-1071 457,-834 454,-821 449,-807 444,-794"/>
<ellipse style="fill:#007f48;stroke:#007f48;" cx="442.576" cy="-790.677" rx="4.00002" ry="4.00002"/>
</g>
<!-- error&#45;&gt;api -->
<g id="edge30" class="edge"><title>error&#45;&gt;api</title>
<path style="fill:none;stroke:#007f48;" d="M413,-1488C409,-1417 403,-1309 393,-1270 372,-1177 360,-1154 316,-1070 308,-1054 299,-1038 288,-1022"/>
<ellipse style="fill:#007f48;stroke:#007f48;" cx="285.985" cy="-1018.47" rx="4.00002" ry="4.00002"/>
</g>
<!-- error&#45;&gt;models -->
<g id="edge2" class="edge"><title>error&#45;&gt;models</title>
<path style="fill:none;stroke:#007f48;" d="M355,-1526C317,-1506 267,-1480 225,-1452 213,-1444 201,-1435 190,-1426"/>
<ellipse style="fill:#007f48;stroke:#007f48;" cx="187.073" cy="-1423.56" rx="4.00002" ry="4.00002"/>
</g>
<!-- error&#45;&gt;binder -->
<g id="edge24" class="edge"><title>error&#45;&gt;binder</title>
<path style="fill:none;stroke:#007f48;" d="M384,-1496C374,-1478 363,-1458 352,-1439"/>
<ellipse style="fill:#007f48;stroke:#007f48;" cx="349.985" cy="-1435.47" rx="4.00002" ry="4.00002"/>
</g>
<!-- error&#45;&gt;cursor -->
<g id="edge12" class="edge"><title>error&#45;&gt;cursor</title>
<path style="fill:none;stroke:#007f48;" d="M464,-1508C479,-1492 495,-1472 506,-1452 544,-1382 569,-1294 582,-1231"/>
<ellipse style="fill:#007f48;stroke:#007f48;" cx="583.03" cy="-1226.88" rx="4.00001" ry="4.00001"/>
</g>
<!-- oauth -->
<g id="node12" class="node"><title>oauth</title>
<ellipse style="fill:#00487f;stroke:#00487f;stroke-width:2;" cx="401" cy="-934" rx="49.0349" ry="49.0349"/>
<ellipse style="fill:none;stroke:#00487f;stroke-width:2;" cx="401" cy="-934" rx="52.9975" ry="52.9975"/>
<text text-anchor="middle" x="401" y="-939.9" style="font-family:Times New Roman;font-size:19.00;fill:#ffffff;">oauth</text>
<text text-anchor="middle" x="401" y="-916.9" style="font-family:Times New Roman;font-size:19.00;fill:#ffffff;">(1)</text>
</g>
<!-- oauth&#45;&gt;auth -->
<g id="edge10" class="edge"><title>oauth&#45;&gt;auth</title>
<path style="fill:none;stroke:#00487f;" d="M400,-881C399,-858 398,-832 398,-806"/>
<ellipse style="fill:#00487f;stroke:#00487f;" cx="398" cy="-802" rx="4" ry="4"/>
</g>
</g>
</svg>
