<?xml version="1.0" encoding="UTF-8" standalone="no"?>
<!DOCTYPE svg PUBLIC "-//W3C//DTD SVG 1.0//EN"
 "http://www.w3.org/TR/2001/REC-SVG-20010904/DTD/svg10.dtd" [
 <!ATTLIST svg xmlns:xlink CDATA #FIXED "http://www.w3.org/1999/xlink">
]>
<!-- Generated by Graphviz version 2.20.2 (Wed Sep 16 11:12:11 UTC 2009)
     For user: (ivo) Ivo Wetzel,,, -->
<!-- Title: dependencies Pages: 1 -->
<svg width="542pt" height="1288pt"
 viewBox="0.00 0.00 542.00 1288.00" xmlns="http://www.w3.org/2000/svg" xmlns:xlink="http://www.w3.org/1999/xlink">
<g id="graph0" class="graph" transform="scale(1 1) rotate(0) translate(4 1284)">
<title>dependencies</title>
<polygon style="fill:white;stroke:white;" points="-4,4 -4,-1284 538,-1284 538,4 -4,4"/>
<!-- __init__ -->
<g id="node1" class="node"><title>__init__</title>
<polygon style="fill:#7f0000;stroke:#7f0000;stroke-width:2;" points="472.209,-56.7208 472.209,-131.279 414.679,-184 333.321,-184 275.791,-131.279 275.791,-56.7208 333.321,-4 414.679,-4 472.209,-56.7208"/>
<polygon style="fill:none;stroke:#7f0000;stroke-width:2;" points="476.209,-54.9608 476.209,-133.039 416.235,-188 331.765,-188 271.791,-133.039 271.791,-54.9608 331.765,-2.84217e-14 416.235,-1.42109e-14 476.209,-54.9608"/>
<text text-anchor="middle" x="374" y="-83.9" style="font-family:Times New Roman;font-size:34.00;fill:#ffffff;">__init__[7]</text>
</g>
<!-- streaming -->
<g id="node2" class="node"><title>streaming</title>
<ellipse style="fill:#24007f;stroke:#24007f;stroke-width:2;" cx="241" cy="-346" rx="121.978" ry="121.978"/>
<text text-anchor="middle" x="241" y="-337.3" style="font-family:Times New Roman;font-size:28.00;fill:#ffffff;">streaming[5](1)</text>
</g>
<!-- streaming&#45;&gt;__init__ -->
<g id="edge50" class="edge"><title>streaming&#45;&gt;__init__</title>
<path style="fill:none;stroke:#24007f;" d="M298,-238C307,-223 314,-206 323,-191"/>
<ellipse style="fill:#24007f;stroke:#24007f;" cx="325.015" cy="-187.473" rx="4.00002" ry="4.00002"/>
</g>
<!-- auth -->
<g id="node3" class="node"><title>auth</title>
<ellipse style="fill:#7f6d00;stroke:#7f6d00;stroke-width:2;" cx="316" cy="-570" rx="65.7821" ry="65.7821"/>
<text text-anchor="middle" x="316" y="-563.2" style="font-family:Times New Roman;font-size:22.00;fill:#ffffff;">auth[3](2)</text>
</g>
<!-- auth&#45;&gt;__init__ -->
<g id="edge40" class="edge"><title>auth&#45;&gt;__init__</title>
<path style="fill:none;stroke:#7f6d00;" d="M350,-513C356,-499 363,-483 366,-468 387,-378 388,-273 384,-196"/>
<ellipse style="fill:#7f6d00;stroke:#7f6d00;" cx="383.496" cy="-191.969" rx="4.00001" ry="4.00001"/>
</g>
<!-- auth&#45;&gt;streaming -->
<g id="edge16" class="edge"><title>auth&#45;&gt;streaming</title>
<path style="fill:none;stroke:#7f6d00;" d="M295,-507C291,-495 287,-482 283,-470"/>
<ellipse style="fill:#7f6d00;stroke:#7f6d00;" cx="281.405" cy="-465.745" rx="4.00001" ry="4.00001"/>
</g>
<!-- api -->
<g id="node4" class="node"><title>api</title>
<ellipse style="fill:#ff0000;stroke:#ff0000;stroke-width:2;" cx="195" cy="-734" rx="62.1223" ry="62.1223"/>
<text text-anchor="middle" x="195" y="-727.3" style="font-family:Times New Roman;font-size:23.00;fill:#000000;">api[3](3)</text>
</g>
<!-- api&#45;&gt;__init__ -->
<g id="edge38" class="edge"><title>api&#45;&gt;__init__</title>
<path style="fill:none;stroke:#ff0000;" d="M165,-680C114,-581 27,-369 116,-224 148,-171 210,-139 264,-120"/>
<ellipse style="fill:#ff0000;stroke:#ff0000;" cx="268.255" cy="-118.405" rx="4.00001" ry="4.00001"/>
</g>
<!-- api&#45;&gt;streaming -->
<g id="edge14" class="edge"><title>api&#45;&gt;streaming</title>
<path style="fill:none;stroke:#ff0000;" d="M202,-672C209,-619 217,-541 225,-475"/>
<ellipse style="fill:#ff0000;stroke:#ff0000;" cx="225.504" cy="-470.969" rx="4.00001" ry="4.00001"/>
</g>
<!-- api&#45;&gt;auth -->
<g id="edge6" class="edge"><title>api&#45;&gt;auth</title>
<path style="fill:none;stroke:#ff0000;" d="M232,-684C244,-667 259,-648 272,-630"/>
<ellipse style="fill:#ff0000;stroke:#ff0000;" cx="274.675" cy="-626.255" rx="4.00002" ry="4.00002"/>
</g>
<!-- models -->
<g id="node5" class="node"><title>models</title>
<ellipse style="fill:#00ff91;stroke:#00ff91;stroke-width:2;" cx="94" cy="-1079" rx="72.9957" ry="72.9957"/>
<text text-anchor="middle" x="94" y="-1073.4" style="font-family:Times New Roman;font-size:19.00;fill:#000000;">models[2](3)</text>
</g>
<!-- models&#45;&gt;__init__ -->
<g id="edge48" class="edge"><title>models&#45;&gt;__init__</title>
<path style="fill:none;stroke:#00ff91;" d="M72,-1009C52,-940 25,-831 25,-734 25,-734 25,-734 25,-570 25,-414 -16,-347 78,-224 123,-165 200,-133 264,-115"/>
<ellipse style="fill:#00ff91;stroke:#00ff91;" cx="268.119" cy="-113.97" rx="4.00001" ry="4.00001"/>
</g>
<!-- models&#45;&gt;streaming -->
<g id="edge20" class="edge"><title>models&#45;&gt;streaming</title>
<path style="fill:none;stroke:#00ff91;" d="M93,-1006C94,-956 95,-890 101,-832 109,-760 112,-741 130,-672 148,-603 173,-528 195,-468"/>
<ellipse style="fill:#00ff91;stroke:#00ff91;" cx="196.595" cy="-463.745" rx="4.00001" ry="4.00001"/>
</g>
<!-- parsers -->
<g id="node7" class="node"><title>parsers</title>
<ellipse style="fill:#0091ff;stroke:#0091ff;stroke-width:2;" cx="173" cy="-901" rx="68.8386" ry="68.8386"/>
<text text-anchor="middle" x="173" y="-896.2" style="font-family:Times New Roman;font-size:17.00;fill:#000000;">parsers[2](1)</text>
</g>
<!-- models&#45;&gt;parsers -->
<g id="edge34" class="edge"><title>models&#45;&gt;parsers</title>
<path style="fill:none;stroke:#00ff91;" d="M124,-1012C130,-999 136,-985 142,-972"/>
<ellipse style="fill:#00ff91;stroke:#00ff91;" cx="143.595" cy="-967.745" rx="4.00001" ry="4.00001"/>
</g>
<!-- binder -->
<g id="node6" class="node"><title>binder</title>
<ellipse style="fill:#ffda00;stroke:#ffda00;stroke-width:2;" cx="253" cy="-1079" rx="64.069" ry="64.069"/>
<text text-anchor="middle" x="253" y="-1074.2" style="font-family:Times New Roman;font-size:17.00;fill:#000000;">binder[2](1)</text>
</g>
<!-- binder&#45;&gt;api -->
<g id="edge28" class="edge"><title>binder&#45;&gt;api</title>
<path style="fill:none;stroke:#ffda00;" d="M259,-1015C261,-965 261,-893 245,-832 242,-820 237,-806 232,-794"/>
<ellipse style="fill:#ffda00;stroke:#ffda00;" cx="229.985" cy="-790.473" rx="4.00002" ry="4.00002"/>
</g>
<!-- parsers&#45;&gt;api -->
<g id="edge32" class="edge"><title>parsers&#45;&gt;api</title>
<path style="fill:none;stroke:#0091ff;" d="M182,-832C184,-823 184,-813 186,-804"/>
<ellipse style="fill:#0091ff;stroke:#0091ff;" cx="186.504" cy="-799.969" rx="4.00001" ry="4.00001"/>
</g>
<!-- cursor -->
<g id="node8" class="node"><title>cursor</title>
<ellipse style="fill:#48ff00;stroke:#48ff00;stroke-width:2;" cx="473" cy="-901" rx="52.8842" ry="52.8842"/>
<text text-anchor="middle" x="473" y="-896.9" style="font-family:Times New Roman;font-size:14.00;fill:#000000;">cursor[1](1)</text>
</g>
<!-- cursor&#45;&gt;__init__ -->
<g id="edge44" class="edge"><title>cursor&#45;&gt;__init__</title>
<path style="fill:none;stroke:#48ff00;" d="M485,-849C510,-733 558,-445 480,-224 473,-205 462,-186 449,-169"/>
<ellipse style="fill:#48ff00;stroke:#48ff00;" cx="446.561" cy="-166.073" rx="4.00002" ry="4.00002"/>
</g>
<!-- utils -->
<g id="node9" class="node"><title>utils</title>
<ellipse style="fill:#4800ff;stroke:#4800ff;stroke-width:2;" cx="136" cy="-1234" rx="34.1012" ry="34.1012"/>
<ellipse style="fill:none;stroke:#4800ff;stroke-width:2;" cx="136" cy="-1234" rx="38.1012" ry="38.1012"/>
<text text-anchor="middle" x="136" y="-1230.8" style="font-family:Times New Roman;font-size:13.00;fill:#000000;">utils(4)</text>
</g>
<!-- utils&#45;&gt;streaming -->
<g id="edge22" class="edge"><title>utils&#45;&gt;streaming</title>
<path style="fill:none;stroke:#4800ff;" d="M101,-1220C73,-1207 35,-1185 18,-1152 -12,-1094 11,-1070 18,-1006 46,-777 52,-715 141,-504 148,-487 157,-470 167,-453"/>
<ellipse style="fill:#4800ff;stroke:#4800ff;" cx="169.015" cy="-449.473" rx="4.00002" ry="4.00002"/>
</g>
<!-- utils&#45;&gt;models -->
<g id="edge4" class="edge"><title>utils&#45;&gt;models</title>
<path style="fill:none;stroke:#4800ff;" d="M126,-1197C123,-1185 119,-1171 115,-1158"/>
<ellipse style="fill:#4800ff;stroke:#4800ff;" cx="113.97" cy="-1153.88" rx="4.00001" ry="4.00001"/>
</g>
<!-- utils&#45;&gt;binder -->
<g id="edge26" class="edge"><title>utils&#45;&gt;binder</title>
<path style="fill:none;stroke:#4800ff;" d="M159,-1203C174,-1184 192,-1159 209,-1137"/>
<ellipse style="fill:#4800ff;stroke:#4800ff;" cx="211.675" cy="-1133.25" rx="4.00002" ry="4.00002"/>
</g>
<!-- utils&#45;&gt;parsers -->
<g id="edge36" class="edge"><title>utils&#45;&gt;parsers</title>
<path style="fill:none;stroke:#4800ff;" d="M154,-1200C160,-1185 167,-1168 170,-1152 182,-1094 182,-1028 179,-978"/>
<ellipse style="fill:#4800ff;stroke:#4800ff;" cx="179" cy="-974" rx="4" ry="4"/>
</g>
<!-- cache -->
<g id="node10" class="node"><title>cache</title>
<ellipse style="fill:#247f00;stroke:#247f00;stroke-width:2;" cx="440" cy="-346" rx="33.0398" ry="33.0398"/>
<ellipse style="fill:none;stroke:#247f00;stroke-width:2;" cx="440" cy="-346" rx="36.9865" ry="36.9865"/>
<text text-anchor="middle" x="440" y="-343.5" style="font-family:Times New Roman;font-size:10.00;fill:#ffffff;">cache(1)</text>
</g>
<!-- cache&#45;&gt;__init__ -->
<g id="edge42" class="edge"><title>cache&#45;&gt;__init__</title>
<path style="fill:none;stroke:#247f00;" d="M431,-310C423,-281 411,-237 401,-196"/>
<ellipse style="fill:#247f00;stroke:#247f00;" cx="399.97" cy="-191.881" rx="4.00001" ry="4.00001"/>
</g>
<!-- error -->
<g id="node11" class="node"><title>error</title>
<ellipse style="fill:#007f48;stroke:#007f48;stroke-width:2;" cx="343" cy="-1234" rx="41.8661" ry="41.8661"/>
<ellipse style="fill:none;stroke:#007f48;stroke-width:2;" cx="343" cy="-1234" rx="45.8661" ry="45.8661"/>
<text text-anchor="middle" x="343" y="-1229.6" style="font-family:Times New Roman;font-size:16.00;fill:#ffffff;">error(7)</text>
</g>
<!-- error&#45;&gt;__init__ -->
<g id="edge46" class="edge"><title>error&#45;&gt;__init__</title>
<path style="fill:none;stroke:#007f48;" d="M358,-1190C362,-1178 366,-1165 368,-1152 390,-1042 393,-1013 393,-901 393,-901 393,-901 393,-734 393,-544 384,-323 379,-196"/>
<ellipse style="fill:#007f48;stroke:#007f48;" cx="379" cy="-192" rx="4" ry="4"/>
</g>
<!-- error&#45;&gt;streaming -->
<g id="edge18" class="edge"><title>error&#45;&gt;streaming</title>
<path style="fill:none;stroke:#007f48;" d="M344,-1188C344,-1141 343,-1068 334,-1006 324,-927 318,-907 292,-832 287,-815 281,-812 276,-796 262,-742 274,-726 260,-672 256,-655 251,-652 247,-636 238,-584 235,-526 235,-476"/>
<ellipse style="fill:#007f48;stroke:#007f48;" cx="235" cy="-472" rx="4" ry="4"/>
</g>
<!-- error&#45;&gt;auth -->
<g id="edge8" class="edge"><title>error&#45;&gt;auth</title>
<path style="fill:none;stroke:#007f48;" d="M350,-1188C365,-1092 391,-861 356,-672 354,-661 350,-649 347,-638"/>
<ellipse style="fill:#007f48;stroke:#007f48;" cx="345.405" cy="-633.745" rx="4.00001" ry="4.00001"/>
</g>
<!-- error&#45;&gt;api -->
<g id="edge30" class="edge"><title>error&#45;&gt;api</title>
<path style="fill:none;stroke:#007f48;" d="M340,-1188C336,-1132 328,-1039 320,-1006 303,-926 296,-905 259,-832 252,-819 244,-804 236,-791"/>
<ellipse style="fill:#007f48;stroke:#007f48;" cx="233.985" cy="-787.473" rx="4.00002" ry="4.00002"/>
</g>
<!-- error&#45;&gt;models -->
<g id="edge2" class="edge"><title>error&#45;&gt;models</title>
<path style="fill:none;stroke:#007f48;" d="M301,-1214C269,-1199 224,-1176 186,-1152 176,-1146 166,-1138 157,-1131"/>
<ellipse style="fill:#007f48;stroke:#007f48;" cx="154.073" cy="-1128.56" rx="4.00002" ry="4.00002"/>
</g>
<!-- error&#45;&gt;binder -->
<g id="edge24" class="edge"><title>error&#45;&gt;binder</title>
<path style="fill:none;stroke:#007f48;" d="M320,-1194C310,-1178 300,-1159 289,-1141"/>
<ellipse style="fill:#007f48;stroke:#007f48;" cx="286.985" cy="-1137.47" rx="4.00002" ry="4.00002"/>
</g>
<!-- error&#45;&gt;cursor -->
<g id="edge12" class="edge"><title>error&#45;&gt;cursor</title>
<path style="fill:none;stroke:#007f48;" d="M371,-1197C380,-1183 391,-1167 398,-1152 427,-1089 448,-1013 460,-961"/>
<ellipse style="fill:#007f48;stroke:#007f48;" cx="461.03" cy="-956.881" rx="4.00001" ry="4.00001"/>
</g>
<!-- oauth -->
<g id="node12" class="node"><title>oauth</title>
<ellipse style="fill:#00487f;stroke:#00487f;stroke-width:2;" cx="316" cy="-734" rx="32.909" ry="32.909"/>
<ellipse style="fill:none;stroke:#00487f;stroke-width:2;" cx="316" cy="-734" rx="36.909" ry="36.909"/>
<text text-anchor="middle" x="316" y="-731.5" style="font-family:Times New Roman;font-size:10.00;fill:#ffffff;">oauth(1)</text>
</g>
<!-- oauth&#45;&gt;auth -->
<g id="edge10" class="edge"><title>oauth&#45;&gt;auth</title>
<path style="fill:none;stroke:#00487f;" d="M316,-697C316,-681 316,-663 316,-644"/>
<ellipse style="fill:#00487f;stroke:#00487f;" cx="316" cy="-640" rx="4" ry="4"/>
</g>
</g>
</svg>
