<?xml version="1.0" encoding="UTF-8" standalone="no"?>
<!DOCTYPE svg PUBLIC "-//W3C//DTD SVG 1.0//EN"
 "http://www.w3.org/TR/2001/REC-SVG-20010904/DTD/svg10.dtd" [
 <!ATTLIST svg xmlns:xlink CDATA #FIXED "http://www.w3.org/1999/xlink">
]>
<!-- Generated by Graphviz version 2.20.2 (Wed Sep 16 11:12:11 UTC 2009)
     For user: (ivo) Ivo Wetzel,,, -->
<!-- Title: dependencies Pages: 1 -->
<svg width="647pt" height="1550pt"
 viewBox="0.00 0.00 647.00 1550.00" xmlns="http://www.w3.org/2000/svg" xmlns:xlink="http://www.w3.org/1999/xlink">
<g id="graph0" class="graph" transform="scale(1 1) rotate(0) translate(4 1546)">
<title>dependencies</title>
<polygon style="fill:white;stroke:white;" points="-4,4 -4,-1546 643,-1546 643,4 -4,4"/>
<!-- __init__ -->
<g id="node1" class="node"><title>__init__</title>
<polygon style="fill:#7f0000;stroke:#7f0000;stroke-width:2;" points="562.905,-75.6731 562.905,-176.327 487.394,-247.5 380.606,-247.5 305.095,-176.327 305.095,-75.6731 380.606,-4.5 487.394,-4.5 562.905,-75.6731"/>
<polygon style="fill:none;stroke:#7f0000;stroke-width:2;" points="566.89,-73.9421 566.89,-178.058 488.972,-251.5 379.028,-251.5 301.11,-178.058 301.11,-73.9421 379.028,-0.5 488.972,-0.5 566.89,-73.9421"/>
<text text-anchor="middle" x="434" y="-141.5" style="font-family:Times New Roman;font-size:55.00;fill:#ffffff;">__init__</text>
<text text-anchor="middle" x="434" y="-76.5" style="font-family:Times New Roman;font-size:55.00;fill:#ffffff;">[7]</text>
</g>
<!-- streaming -->
<g id="node2" class="node"><title>streaming</title>
<ellipse style="fill:#24007f;stroke:#24007f;stroke-width:2;" cx="281" cy="-430" rx="141.786" ry="141.786"/>
<text text-anchor="middle" x="281" y="-440.8" style="font-family:Times New Roman;font-size:38.00;fill:#ffffff;">streaming</text>
<text text-anchor="middle" x="281" y="-395.8" style="font-family:Times New Roman;font-size:38.00;fill:#ffffff;">[5](1)</text>
</g>
<!-- streaming&#45;&gt;__init__ -->
<g id="edge50" class="edge"><title>streaming&#45;&gt;__init__</title>
<path style="fill:none;stroke:#24007f;" d="M345,-303C353,-287 361,-270 369,-254"/>
<ellipse style="fill:#24007f;stroke:#24007f;" cx="371.015" cy="-250.473" rx="4.00002" ry="4.00002"/>
</g>
<!-- auth -->
<g id="node3" class="node"><title>auth</title>
<ellipse style="fill:#7f6d00;stroke:#7f6d00;stroke-width:2;" cx="366" cy="-684" rx="75.8684" ry="75.8684"/>
<text text-anchor="middle" x="366" y="-693.2" style="font-family:Times New Roman;font-size:32.00;fill:#ffffff;">auth</text>
<text text-anchor="middle" x="366" y="-655.2" style="font-family:Times New Roman;font-size:32.00;fill:#ffffff;">[3](2)</text>
</g>
<!-- auth&#45;&gt;__init__ -->
<g id="edge40" class="edge"><title>auth&#45;&gt;__init__</title>
<path style="fill:none;stroke:#7f6d00;" d="M407,-620C415,-605 422,-588 426,-572 441,-515 440,-369 438,-260"/>
<ellipse style="fill:#7f6d00;stroke:#7f6d00;" cx="438" cy="-256" rx="4" ry="4"/>
</g>
<!-- auth&#45;&gt;streaming -->
<g id="edge16" class="edge"><title>auth&#45;&gt;streaming</title>
<path style="fill:none;stroke:#7f6d00;" d="M342,-612C338,-599 334,-586 329,-573"/>
<ellipse style="fill:#7f6d00;stroke:#7f6d00;" cx="327.405" cy="-568.745" rx="4.00001" ry="4.00001"/>
</g>
<!-- api -->
<g id="node4" class="node"><title>api</title>
<ellipse style="fill:#ff0000;stroke:#ff0000;stroke-width:2;" cx="211" cy="-876" rx="80.1095" ry="80.1095"/>
<text text-anchor="middle" x="211" y="-886.4" style="font-family:Times New Roman;font-size:34.00;fill:#000000;">api</text>
<text text-anchor="middle" x="211" y="-845.4" style="font-family:Times New Roman;font-size:34.00;fill:#000000;">[3](3)</text>
</g>
<!-- api&#45;&gt;__init__ -->
<g id="edge38" class="edge"><title>api&#45;&gt;__init__</title>
<path style="fill:none;stroke:#ff0000;" d="M175,-804C122,-687 39,-452 136,-288 171,-230 234,-191 293,-166"/>
<ellipse style="fill:#ff0000;stroke:#ff0000;" cx="297.255" cy="-164.405" rx="4.00001" ry="4.00001"/>
</g>
<!-- api&#45;&gt;streaming -->
<g id="edge14" class="edge"><title>api&#45;&gt;streaming</title>
<path style="fill:none;stroke:#ff0000;" d="M223,-797C233,-736 246,-651 258,-578"/>
<ellipse style="fill:#ff0000;stroke:#ff0000;" cx="258.504" cy="-573.969" rx="4.00001" ry="4.00001"/>
</g>
<!-- api&#45;&gt;auth -->
<g id="edge6" class="edge"><title>api&#45;&gt;auth</title>
<path style="fill:none;stroke:#ff0000;" d="M261,-814C278,-793 296,-771 313,-750"/>
<ellipse style="fill:#ff0000;stroke:#ff0000;" cx="315.675" cy="-746.255" rx="4.00002" ry="4.00002"/>
</g>
<!-- models -->
<g id="node5" class="node"><title>models</title>
<ellipse style="fill:#00ff91;stroke:#00ff91;stroke-width:2;" cx="114" cy="-1282" rx="89.8026" ry="89.8026"/>
<text text-anchor="middle" x="114" y="-1291.1" style="font-family:Times New Roman;font-size:31.00;fill:#000000;">models</text>
<text text-anchor="middle" x="114" y="-1254.1" style="font-family:Times New Roman;font-size:31.00;fill:#000000;">[2](3)</text>
</g>
<!-- models&#45;&gt;__init__ -->
<g id="edge48" class="edge"><title>models&#45;&gt;__init__</title>
<path style="fill:none;stroke:#00ff91;" d="M85,-1197C60,-1115 28,-988 28,-876 28,-876 28,-876 28,-684 28,-505 -15,-430 91,-288 140,-223 222,-183 293,-159"/>
<ellipse style="fill:#00ff91;stroke:#00ff91;" cx="297.255" cy="-157.405" rx="4.00001" ry="4.00001"/>
</g>
<!-- models&#45;&gt;streaming -->
<g id="edge20" class="edge"><title>models&#45;&gt;streaming</title>
<path style="fill:none;stroke:#00ff91;" d="M116,-1192C118,-1134 119,-1059 121,-992 124,-904 110,-881 128,-796 145,-716 179,-631 212,-563"/>
<ellipse style="fill:#00ff91;stroke:#00ff91;" cx="213.424" cy="-559.677" rx="4.00002" ry="4.00002"/>
</g>
<!-- parsers -->
<g id="node7" class="node"><title>parsers</title>
<ellipse style="fill:#0091ff;stroke:#0091ff;stroke-width:2;" cx="206" cy="-1074" rx="82.2301" ry="82.2301"/>
<text text-anchor="middle" x="206" y="-1081.7" style="font-family:Times New Roman;font-size:27.00;fill:#000000;">parsers</text>
<text text-anchor="middle" x="206" y="-1049.7" style="font-family:Times New Roman;font-size:27.00;fill:#000000;">[2](1)</text>
</g>
<!-- models&#45;&gt;parsers -->
<g id="edge34" class="edge"><title>models&#45;&gt;parsers</title>
<path style="fill:none;stroke:#00ff91;" d="M150,-1199C156,-1185 163,-1170 169,-1157"/>
<ellipse style="fill:#00ff91;stroke:#00ff91;" cx="170.595" cy="-1152.75" rx="4.00001" ry="4.00001"/>
</g>
<!-- binder -->
<g id="node6" class="node"><title>binder</title>
<ellipse style="fill:#ffda00;stroke:#ffda00;stroke-width:2;" cx="299" cy="-1282" rx="72.832" ry="72.832"/>
<text text-anchor="middle" x="299" y="-1289.7" style="font-family:Times New Roman;font-size:27.00;fill:#000000;">binder</text>
<text text-anchor="middle" x="299" y="-1257.7" style="font-family:Times New Roman;font-size:27.00;fill:#000000;">[2](1)</text>
</g>
<!-- binder&#45;&gt;api -->
<g id="edge28" class="edge"><title>binder&#45;&gt;api</title>
<path style="fill:none;stroke:#ffda00;" d="M308,-1210C314,-1150 315,-1063 291,-992 286,-976 277,-959 267,-944"/>
<ellipse style="fill:#ffda00;stroke:#ffda00;" cx="264.985" cy="-940.473" rx="4.00002" ry="4.00002"/>
</g>
<!-- parsers&#45;&gt;api -->
<g id="edge32" class="edge"><title>parsers&#45;&gt;api</title>
<path style="fill:none;stroke:#0091ff;" d="M208,-992C208,-983 208,-973 208,-964"/>
<ellipse style="fill:#0091ff;stroke:#0091ff;" cx="208.504" cy="-959.969" rx="4.00001" ry="4.00001"/>
</g>
<!-- cursor -->
<g id="node8" class="node"><title>cursor</title>
<ellipse style="fill:#48ff00;stroke:#48ff00;stroke-width:2;" cx="555" cy="-1074" rx="63.1385" ry="63.1385"/>
<text text-anchor="middle" x="555" y="-1081.3" style="font-family:Times New Roman;font-size:23.00;fill:#000000;">cursor</text>
<text text-anchor="middle" x="555" y="-1053.3" style="font-family:Times New Roman;font-size:23.00;fill:#000000;">[1](1)</text>
</g>
<!-- cursor&#45;&gt;__init__ -->
<g id="edge44" class="edge"><title>cursor&#45;&gt;__init__</title>
<path style="fill:none;stroke:#48ff00;" d="M572,-1013C606,-877 672,-543 576,-288 567,-264 552,-240 535,-219"/>
<ellipse style="fill:#48ff00;stroke:#48ff00;" cx="532.561" cy="-216.073" rx="4.00002" ry="4.00002"/>
</g>
<!-- utils -->
<g id="node9" class="node"><title>utils</title>
<ellipse style="fill:#4800ff;stroke:#4800ff;stroke-width:2;" cx="164" cy="-1475" rx="48.0833" ry="48.0833"/>
<ellipse style="fill:none;stroke:#4800ff;stroke-width:2;" cx="164" cy="-1475" rx="52.0833" ry="52.0833"/>
<text text-anchor="middle" x="164" y="-1481.5" style="font-family:Times New Roman;font-size:25.00;fill:#000000;">utils</text>
<text text-anchor="middle" x="164" y="-1452.5" style="font-family:Times New Roman;font-size:25.00;fill:#000000;">(4)</text>
</g>
<!-- utils&#45;&gt;streaming -->
<g id="edge22" class="edge"><title>utils&#45;&gt;streaming</title>
<path style="fill:none;stroke:#4800ff;" d="M116,-1455C83,-1438 41,-1410 21,-1372 -15,-1300 14,-1271 21,-1192 47,-928 25,-847 137,-608 148,-584 163,-562 179,-541"/>
<ellipse style="fill:#4800ff;stroke:#4800ff;" cx="181.675" cy="-537.255" rx="4.00002" ry="4.00002"/>
</g>
<!-- utils&#45;&gt;models -->
<g id="edge4" class="edge"><title>utils&#45;&gt;models</title>
<path style="fill:none;stroke:#4800ff;" d="M151,-1425C148,-1410 143,-1394 139,-1377"/>
<ellipse style="fill:#4800ff;stroke:#4800ff;" cx="137.97" cy="-1372.88" rx="4.00001" ry="4.00001"/>
</g>
<!-- utils&#45;&gt;binder -->
<g id="edge26" class="edge"><title>utils&#45;&gt;binder</title>
<path style="fill:none;stroke:#4800ff;" d="M194,-1432C212,-1408 233,-1376 252,-1349"/>
<ellipse style="fill:#4800ff;stroke:#4800ff;" cx="254.675" cy="-1345.25" rx="4.00002" ry="4.00002"/>
</g>
<!-- utils&#45;&gt;parsers -->
<g id="edge36" class="edge"><title>utils&#45;&gt;parsers</title>
<path style="fill:none;stroke:#4800ff;" d="M188,-1429C196,-1411 203,-1391 207,-1372 221,-1303 220,-1224 216,-1164"/>
<ellipse style="fill:#4800ff;stroke:#4800ff;" cx="215.496" cy="-1159.97" rx="4.00001" ry="4.00001"/>
</g>
<!-- cache -->
<g id="node10" class="node"><title>cache</title>
<ellipse style="fill:#247f00;stroke:#247f00;stroke-width:2;" cx="518" cy="-430" rx="50.9117" ry="50.9117"/>
<ellipse style="fill:none;stroke:#247f00;stroke-width:2;" cx="518" cy="-430" rx="54.9117" ry="54.9117"/>
<text text-anchor="middle" x="518" y="-435.9" style="font-family:Times New Roman;font-size:19.00;fill:#ffffff;">cache</text>
<text text-anchor="middle" x="518" y="-412.9" style="font-family:Times New Roman;font-size:19.00;fill:#ffffff;">(1)</text>
</g>
<!-- cache&#45;&gt;__init__ -->
<g id="edge42" class="edge"><title>cache&#45;&gt;__init__</title>
<path style="fill:none;stroke:#247f00;" d="M503,-377C494,-344 482,-301 470,-260"/>
<ellipse style="fill:#247f00;stroke:#247f00;" cx="468.97" cy="-255.881" rx="4.00001" ry="4.00001"/>
</g>
<!-- error -->
<g id="node11" class="node"><title>error</title>
<ellipse style="fill:#007f48;stroke:#007f48;stroke-width:2;" cx="398" cy="-1475" rx="63.1682" ry="63.1682"/>
<ellipse style="fill:none;stroke:#007f48;stroke-width:2;" cx="398" cy="-1475" rx="67.1386" ry="67.1386"/>
<text text-anchor="middle" x="398" y="-1484.1" style="font-family:Times New Roman;font-size:31.00;fill:#ffffff;">error</text>
<text text-anchor="middle" x="398" y="-1447.1" style="font-family:Times New Roman;font-size:31.00;fill:#ffffff;">(7)</text>
</g>
<!-- error&#45;&gt;__init__ -->
<g id="edge46" class="edge"><title>error&#45;&gt;__init__</title>
<path style="fill:none;stroke:#007f48;" d="M423,-1413C427,-1399 431,-1385 434,-1372 460,-1241 453,-1206 453,-1074 453,-1074 453,-1074 453,-876 453,-660 445,-409 439,-260"/>
<ellipse style="fill:#007f48;stroke:#007f48;" cx="439" cy="-256" rx="4" ry="4"/>
</g>
<!-- error&#45;&gt;streaming -->
<g id="edge18" class="edge"><title>error&#45;&gt;streaming</title>
<path style="fill:none;stroke:#007f48;" d="M400,-1408C401,-1350 400,-1265 390,-1192 379,-1101 386,-1072 343,-992 333,-972 319,-975 310,-956 281,-890 305,-866 294,-796 292,-779 289,-776 287,-760 281,-702 279,-636 278,-580"/>
<ellipse style="fill:#007f48;stroke:#007f48;" cx="278" cy="-576" rx="4" ry="4"/>
</g>
<!-- error&#45;&gt;auth -->
<g id="edge8" class="edge"><title>error&#45;&gt;auth</title>
<path style="fill:none;stroke:#007f48;" d="M412,-1409C435,-1286 474,-1015 422,-796 419,-783 414,-769 408,-756"/>
<ellipse style="fill:#007f48;stroke:#007f48;" cx="406.576" cy="-752.677" rx="4.00002" ry="4.00002"/>
</g>
<!-- error&#45;&gt;api -->
<g id="edge30" class="edge"><title>error&#45;&gt;api</title>
<path style="fill:none;stroke:#007f48;" d="M395,-1408C391,-1338 383,-1231 375,-1192 356,-1100 353,-1073 307,-992 297,-974 284,-957 272,-940"/>
<ellipse style="fill:#007f48;stroke:#007f48;" cx="269.561" cy="-937.073" rx="4.00002" ry="4.00002"/>
</g>
<!-- error&#45;&gt;models -->
<g id="edge2" class="edge"><title>error&#45;&gt;models</title>
<path style="fill:none;stroke:#007f48;" d="M339,-1443C304,-1424 260,-1398 223,-1372 212,-1364 200,-1354 189,-1346"/>
<ellipse style="fill:#007f48;stroke:#007f48;" cx="185.255" cy="-1343.32" rx="4.00002" ry="4.00002"/>
</g>
<!-- error&#45;&gt;binder -->
<g id="edge24" class="edge"><title>error&#45;&gt;binder</title>
<path style="fill:none;stroke:#007f48;" d="M367,-1415C357,-1396 346,-1374 336,-1354"/>
<ellipse style="fill:#007f48;stroke:#007f48;" cx="333.985" cy="-1350.47" rx="4.00002" ry="4.00002"/>
</g>
<!-- error&#45;&gt;cursor -->
<g id="edge12" class="edge"><title>error&#45;&gt;cursor</title>
<path style="fill:none;stroke:#007f48;" d="M434,-1418C442,-1403 451,-1387 458,-1372 491,-1295 519,-1204 537,-1143"/>
<ellipse style="fill:#007f48;stroke:#007f48;" cx="538.03" cy="-1138.88" rx="4.00001" ry="4.00001"/>
</g>
<!-- oauth -->
<g id="node12" class="node"><title>oauth</title>
<ellipse style="fill:#00487f;stroke:#00487f;stroke-width:2;" cx="366" cy="-876" rx="49.0349" ry="49.0349"/>
<ellipse style="fill:none;stroke:#00487f;stroke-width:2;" cx="366" cy="-876" rx="52.9975" ry="52.9975"/>
<text text-anchor="middle" x="366" y="-881.9" style="font-family:Times New Roman;font-size:19.00;fill:#ffffff;">oauth</text>
<text text-anchor="middle" x="366" y="-858.9" style="font-family:Times New Roman;font-size:19.00;fill:#ffffff;">(1)</text>
</g>
<!-- oauth&#45;&gt;auth -->
<g id="edge10" class="edge"><title>oauth&#45;&gt;auth</title>
<path style="fill:none;stroke:#00487f;" d="M366,-823C366,-806 366,-787 366,-768"/>
<ellipse style="fill:#00487f;stroke:#00487f;" cx="366" cy="-764" rx="4" ry="4"/>
</g>
</g>
</svg>
